<?xml version="1.0" encoding="UTF-8" standalone="no"?>
<!DOCTYPE svg PUBLIC "-//W3C//DTD SVG 1.1//EN"
 "http://www.w3.org/Graphics/SVG/1.1/DTD/svg11.dtd">
<!-- Generated by graphviz version 2.47.3 (20210619.1520)
 -->
<!-- Title: G Pages: 1 -->
<svg width="1573pt" height="829pt"
 viewBox="0.00 0.00 1573.20 829.20" xmlns="http://www.w3.org/2000/svg" xmlns:xlink="http://www.w3.org/1999/xlink">
<g id="graph0" class="graph" transform="scale(1 1) rotate(0) translate(21.6 807.6)">
<title>G</title>
<polygon fill="#111111" stroke="transparent" points="-21.6,21.6 -21.6,-807.6 1551.6,-807.6 1551.6,21.6 -21.6,21.6"/>
<!-- ControlPanel/ControlPanel.js -->
<g id="node1" class="node">
<title>ControlPanel/ControlPanel.js</title>
<path fill="none" stroke="#c6c5fe" d="M663.83,-747C663.83,-747 481.17,-747 481.17,-747 477.33,-747 473.5,-743.17 473.5,-739.33 473.5,-739.33 473.5,-731.67 473.5,-731.67 473.5,-727.83 477.33,-724 481.17,-724 481.17,-724 663.83,-724 663.83,-724 667.67,-724 671.5,-727.83 671.5,-731.67 671.5,-731.67 671.5,-739.33 671.5,-739.33 671.5,-743.17 667.67,-747 663.83,-747"/>
<text text-anchor="middle" x="572.5" y="-731.8" font-family="Arial" font-size="14.00" fill="#c6c5fe">ControlPanel/ControlPanel.js</text>
</g>
<!-- ControlPanel/EventHub.js -->
<g id="node2" class="node">
<title>ControlPanel/EventHub.js</title>
<path fill="none" stroke="#cfffac" d="M1233.33,-667C1233.33,-667 1070.67,-667 1070.67,-667 1066.83,-667 1063,-663.17 1063,-659.33 1063,-659.33 1063,-651.67 1063,-651.67 1063,-647.83 1066.83,-644 1070.67,-644 1070.67,-644 1233.33,-644 1233.33,-644 1237.17,-644 1241,-647.83 1241,-651.67 1241,-651.67 1241,-659.33 1241,-659.33 1241,-663.17 1237.17,-667 1233.33,-667"/>
<text text-anchor="middle" x="1152" y="-651.8" font-family="Arial" font-size="14.00" fill="#cfffac">ControlPanel/EventHub.js</text>
</g>
<!-- ControlPanel/ControlPanel.js&#45;&gt;ControlPanel/EventHub.js -->
<g id="edge1" class="edge">
<title>ControlPanel/ControlPanel.js&#45;&gt;ControlPanel/EventHub.js</title>
<path fill="none" stroke="#757575" d="M619.55,-747.03C695.51,-764.03 851.18,-790.37 977,-756.5 1036.81,-740.4 1097.25,-698.14 1128.75,-673.69"/>
<polygon fill="#757575" stroke="#757575" points="1131.16,-676.25 1136.84,-667.3 1126.82,-670.75 1131.16,-676.25"/>
</g>
<!-- ControlPanel/StaticEvent.js -->
<g id="node3" class="node">
<title>ControlPanel/StaticEvent.js</title>
<path fill="none" stroke="#cfffac" d="M943.83,-747C943.83,-747 771.17,-747 771.17,-747 767.33,-747 763.5,-743.17 763.5,-739.33 763.5,-739.33 763.5,-731.67 763.5,-731.67 763.5,-727.83 767.33,-724 771.17,-724 771.17,-724 943.83,-724 943.83,-724 947.67,-724 951.5,-727.83 951.5,-731.67 951.5,-731.67 951.5,-739.33 951.5,-739.33 951.5,-743.17 947.67,-747 943.83,-747"/>
<text text-anchor="middle" x="857.5" y="-731.8" font-family="Arial" font-size="14.00" fill="#cfffac">ControlPanel/StaticEvent.js</text>
</g>
<!-- ControlPanel/ControlPanel.js&#45;&gt;ControlPanel/StaticEvent.js -->
<g id="edge2" class="edge">
<title>ControlPanel/ControlPanel.js&#45;&gt;ControlPanel/StaticEvent.js</title>
<path fill="none" stroke="#757575" d="M671.69,-735.5C698.02,-735.5 726.56,-735.5 753.16,-735.5"/>
<polygon fill="#757575" stroke="#757575" points="753.25,-739 763.25,-735.5 753.25,-732 753.25,-739"/>
</g>
<!-- TaskSystem/Task.js -->
<g id="node4" class="node">
<title>TaskSystem/Task.js</title>
<path fill="none" stroke="#c6c5fe" d="M921.83,-626C921.83,-626 793.17,-626 793.17,-626 789.33,-626 785.5,-622.17 785.5,-618.33 785.5,-618.33 785.5,-610.67 785.5,-610.67 785.5,-606.83 789.33,-603 793.17,-603 793.17,-603 921.83,-603 921.83,-603 925.67,-603 929.5,-606.83 929.5,-610.67 929.5,-610.67 929.5,-618.33 929.5,-618.33 929.5,-622.17 925.67,-626 921.83,-626"/>
<text text-anchor="middle" x="857.5" y="-610.8" font-family="Arial" font-size="14.00" fill="#c6c5fe">TaskSystem/Task.js</text>
</g>
<!-- ControlPanel/ControlPanel.js&#45;&gt;TaskSystem/Task.js -->
<g id="edge3" class="edge">
<title>ControlPanel/ControlPanel.js&#45;&gt;TaskSystem/Task.js</title>
<path fill="none" stroke="#757575" d="M671.66,-727.59C682.27,-724.6 692.6,-720.66 702,-715.5 723.25,-703.82 718.84,-689.36 738,-674.5 762.05,-655.85 792.8,-640.49 816.95,-629.97"/>
<polygon fill="#757575" stroke="#757575" points="818.35,-633.18 826.18,-626.05 815.61,-626.74 818.35,-633.18"/>
</g>
<!-- utils/functionQueue.js -->
<g id="node5" class="node">
<title>utils/functionQueue.js</title>
<path fill="none" stroke="#cfffac" d="M925.83,-706C925.83,-706 789.17,-706 789.17,-706 785.33,-706 781.5,-702.17 781.5,-698.33 781.5,-698.33 781.5,-690.67 781.5,-690.67 781.5,-686.83 785.33,-683 789.17,-683 789.17,-683 925.83,-683 925.83,-683 929.67,-683 933.5,-686.83 933.5,-690.67 933.5,-690.67 933.5,-698.33 933.5,-698.33 933.5,-702.17 929.67,-706 925.83,-706"/>
<text text-anchor="middle" x="857.5" y="-690.8" font-family="Arial" font-size="14.00" fill="#cfffac">utils/functionQueue.js</text>
</g>
<!-- ControlPanel/ControlPanel.js&#45;&gt;utils/functionQueue.js -->
<g id="edge4" class="edge">
<title>ControlPanel/ControlPanel.js&#45;&gt;utils/functionQueue.js</title>
<path fill="none" stroke="#757575" d="M653.08,-723.97C690,-718.62 733.93,-712.26 771.49,-706.82"/>
<polygon fill="#757575" stroke="#757575" points="772.01,-710.28 781.4,-705.38 771,-703.35 772.01,-710.28"/>
</g>
<!-- TaskSystem/Task.js&#45;&gt;ControlPanel/EventHub.js -->
<g id="edge14" class="edge">
<title>TaskSystem/Task.js&#45;&gt;ControlPanel/EventHub.js</title>
<path fill="none" stroke="#757575" d="M929.68,-624.48C968.5,-629.92 1017,-636.72 1058.7,-642.56"/>
<polygon fill="#757575" stroke="#757575" points="1058.48,-646.07 1068.87,-643.99 1059.45,-639.13 1058.48,-646.07"/>
</g>
<!-- TaskSystem/Data.js -->
<g id="node13" class="node">
<title>TaskSystem/Data.js</title>
<path fill="none" stroke="#cfffac" d="M1215.83,-626C1215.83,-626 1088.17,-626 1088.17,-626 1084.33,-626 1080.5,-622.17 1080.5,-618.33 1080.5,-618.33 1080.5,-610.67 1080.5,-610.67 1080.5,-606.83 1084.33,-603 1088.17,-603 1088.17,-603 1215.83,-603 1215.83,-603 1219.67,-603 1223.5,-606.83 1223.5,-610.67 1223.5,-610.67 1223.5,-618.33 1223.5,-618.33 1223.5,-622.17 1219.67,-626 1215.83,-626"/>
<text text-anchor="middle" x="1152" y="-610.8" font-family="Arial" font-size="14.00" fill="#cfffac">TaskSystem/Data.js</text>
</g>
<!-- TaskSystem/Task.js&#45;&gt;TaskSystem/Data.js -->
<g id="edge15" class="edge">
<title>TaskSystem/Task.js&#45;&gt;TaskSystem/Data.js</title>
<path fill="none" stroke="#757575" d="M929.68,-614.5C972.12,-614.5 1026.12,-614.5 1070.16,-614.5"/>
<polygon fill="#757575" stroke="#757575" points="1070.26,-618 1080.26,-614.5 1070.26,-611 1070.26,-618"/>
</g>
<!-- TaskSystem/StaticEvent.js -->
<g id="node14" class="node">
<title>TaskSystem/StaticEvent.js</title>
<path fill="none" stroke="#cfffac" d="M1236.83,-585C1236.83,-585 1067.17,-585 1067.17,-585 1063.33,-585 1059.5,-581.17 1059.5,-577.33 1059.5,-577.33 1059.5,-569.67 1059.5,-569.67 1059.5,-565.83 1063.33,-562 1067.17,-562 1067.17,-562 1236.83,-562 1236.83,-562 1240.67,-562 1244.5,-565.83 1244.5,-569.67 1244.5,-569.67 1244.5,-577.33 1244.5,-577.33 1244.5,-581.17 1240.67,-585 1236.83,-585"/>
<text text-anchor="middle" x="1152" y="-569.8" font-family="Arial" font-size="14.00" fill="#cfffac">TaskSystem/StaticEvent.js</text>
</g>
<!-- TaskSystem/Task.js&#45;&gt;TaskSystem/StaticEvent.js -->
<g id="edge16" class="edge">
<title>TaskSystem/Task.js&#45;&gt;TaskSystem/StaticEvent.js</title>
<path fill="none" stroke="#757575" d="M929.68,-604.52C968.5,-599.08 1017,-592.28 1058.7,-586.44"/>
<polygon fill="#757575" stroke="#757575" points="1059.45,-589.87 1068.87,-585.01 1058.48,-582.93 1059.45,-589.87"/>
</g>
<!-- ControlPanel/index.js -->
<g id="node6" class="node">
<title>ControlPanel/index.js</title>
<path fill="none" stroke="#c6c5fe" d="M395.83,-786C395.83,-786 261.17,-786 261.17,-786 257.33,-786 253.5,-782.17 253.5,-778.33 253.5,-778.33 253.5,-770.67 253.5,-770.67 253.5,-766.83 257.33,-763 261.17,-763 261.17,-763 395.83,-763 395.83,-763 399.67,-763 403.5,-766.83 403.5,-770.67 403.5,-770.67 403.5,-778.33 403.5,-778.33 403.5,-782.17 399.67,-786 395.83,-786"/>
<text text-anchor="middle" x="328.5" y="-770.8" font-family="Arial" font-size="14.00" fill="#c6c5fe">ControlPanel/index.js</text>
</g>
<!-- ControlPanel/index.js&#45;&gt;ControlPanel/ControlPanel.js -->
<g id="edge5" class="edge">
<title>ControlPanel/index.js&#45;&gt;ControlPanel/ControlPanel.js</title>
<path fill="none" stroke="#757575" d="M401.13,-762.96C429.05,-758.46 461.22,-753.27 490.02,-748.63"/>
<polygon fill="#757575" stroke="#757575" points="490.74,-752.06 500.06,-747.01 489.63,-745.15 490.74,-752.06"/>
</g>
<!-- Errors/errors.js -->
<g id="node7" class="node">
<title>Errors/errors.js</title>
<path fill="none" stroke="#cfffac" d="M1199.83,-406C1199.83,-406 1104.17,-406 1104.17,-406 1100.33,-406 1096.5,-402.17 1096.5,-398.33 1096.5,-398.33 1096.5,-390.67 1096.5,-390.67 1096.5,-386.83 1100.33,-383 1104.17,-383 1104.17,-383 1199.83,-383 1199.83,-383 1203.67,-383 1207.5,-386.83 1207.5,-390.67 1207.5,-390.67 1207.5,-398.33 1207.5,-398.33 1207.5,-402.17 1203.67,-406 1199.83,-406"/>
<text text-anchor="middle" x="1152" y="-390.8" font-family="Arial" font-size="14.00" fill="#cfffac">Errors/errors.js</text>
</g>
<!-- Pipeline/PluginSystem.js -->
<g id="node8" class="node">
<title>Pipeline/PluginSystem.js</title>
<path fill="none" stroke="#c6c5fe" d="M651.33,-426C651.33,-426 493.67,-426 493.67,-426 489.83,-426 486,-422.17 486,-418.33 486,-418.33 486,-410.67 486,-410.67 486,-406.83 489.83,-403 493.67,-403 493.67,-403 651.33,-403 651.33,-403 655.17,-403 659,-406.83 659,-410.67 659,-410.67 659,-418.33 659,-418.33 659,-422.17 655.17,-426 651.33,-426"/>
<text text-anchor="middle" x="572.5" y="-410.8" font-family="Arial" font-size="14.00" fill="#c6c5fe">Pipeline/PluginSystem.js</text>
</g>
<!-- Pipeline/PluginSystem.js&#45;&gt;Errors/errors.js -->
<g id="edge6" class="edge">
<title>Pipeline/PluginSystem.js&#45;&gt;Errors/errors.js</title>
<path fill="none" stroke="#757575" d="M659.02,-411.54C775.55,-407.5 981.66,-400.36 1086.24,-396.74"/>
<polygon fill="#757575" stroke="#757575" points="1086.47,-400.24 1096.34,-396.39 1086.23,-393.24 1086.47,-400.24"/>
</g>
<!-- utils/createUUID.js -->
<g id="node9" class="node">
<title>utils/createUUID.js</title>
<path fill="none" stroke="#cfffac" d="M916.83,-567C916.83,-567 798.17,-567 798.17,-567 794.33,-567 790.5,-563.17 790.5,-559.33 790.5,-559.33 790.5,-551.67 790.5,-551.67 790.5,-547.83 794.33,-544 798.17,-544 798.17,-544 916.83,-544 916.83,-544 920.67,-544 924.5,-547.83 924.5,-551.67 924.5,-551.67 924.5,-559.33 924.5,-559.33 924.5,-563.17 920.67,-567 916.83,-567"/>
<text text-anchor="middle" x="857.5" y="-551.8" font-family="Arial" font-size="14.00" fill="#cfffac">utils/createUUID.js</text>
</g>
<!-- Pipeline/PluginSystem.js&#45;&gt;utils/createUUID.js -->
<g id="edge7" class="edge">
<title>Pipeline/PluginSystem.js&#45;&gt;utils/createUUID.js</title>
<path fill="none" stroke="#757575" d="M659.26,-415.72C674.63,-419.17 689.65,-425 702,-434.5 733.55,-458.77 708.54,-489.73 738,-516.5 750.08,-527.48 765.32,-535.37 780.8,-541.04"/>
<polygon fill="#757575" stroke="#757575" points="779.86,-544.42 790.45,-544.3 782.1,-537.79 779.86,-544.42"/>
</g>
<!-- Pipeline/index.js -->
<g id="node10" class="node">
<title>Pipeline/index.js</title>
<path fill="none" stroke="#c6c5fe" d="M624.33,-706C624.33,-706 520.67,-706 520.67,-706 516.83,-706 513,-702.17 513,-698.33 513,-698.33 513,-690.67 513,-690.67 513,-686.83 516.83,-683 520.67,-683 520.67,-683 624.33,-683 624.33,-683 628.17,-683 632,-686.83 632,-690.67 632,-690.67 632,-698.33 632,-698.33 632,-702.17 628.17,-706 624.33,-706"/>
<text text-anchor="middle" x="572.5" y="-690.8" font-family="Arial" font-size="14.00" fill="#c6c5fe">Pipeline/index.js</text>
</g>
<!-- Pipeline/index.js&#45;&gt;utils/functionQueue.js -->
<g id="edge9" class="edge">
<title>Pipeline/index.js&#45;&gt;utils/functionQueue.js</title>
<path fill="none" stroke="#757575" d="M632.14,-694.5C672.33,-694.5 726.28,-694.5 771.21,-694.5"/>
<polygon fill="#757575" stroke="#757575" points="771.24,-698 781.24,-694.5 771.24,-691 771.24,-698"/>
</g>
<!-- Pipeline/index.js&#45;&gt;utils/createUUID.js -->
<g id="edge8" class="edge">
<title>Pipeline/index.js&#45;&gt;utils/createUUID.js</title>
<path fill="none" stroke="#757575" d="M589.58,-682.8C618.21,-662.39 680.44,-619.93 738,-593.5 758.33,-584.16 781.6,-576.16 802.11,-569.94"/>
<polygon fill="#757575" stroke="#757575" points="803.34,-573.23 811.93,-567.04 801.35,-566.52 803.34,-573.23"/>
</g>
<!-- Spider/index.js -->
<g id="node11" class="node">
<title>Spider/index.js</title>
<path fill="none" stroke="#c6c5fe" d="M204.83,-706C204.83,-706 110.17,-706 110.17,-706 106.33,-706 102.5,-702.17 102.5,-698.33 102.5,-698.33 102.5,-690.67 102.5,-690.67 102.5,-686.83 106.33,-683 110.17,-683 110.17,-683 204.83,-683 204.83,-683 208.67,-683 212.5,-686.83 212.5,-690.67 212.5,-690.67 212.5,-698.33 212.5,-698.33 212.5,-702.17 208.67,-706 204.83,-706"/>
<text text-anchor="middle" x="157.5" y="-690.8" font-family="Arial" font-size="14.00" fill="#c6c5fe">Spider/index.js</text>
</g>
<!-- Spider/index.js&#45;&gt;ControlPanel/EventHub.js -->
<g id="edge10" class="edge">
<title>Spider/index.js&#45;&gt;ControlPanel/EventHub.js</title>
<path fill="none" stroke="#757575" d="M202.88,-682.98C217.76,-679.61 234.5,-676.34 250,-674.5 540.29,-640.05 886.78,-645.76 1052.81,-651.37"/>
<polygon fill="#757575" stroke="#757575" points="1052.88,-654.87 1063,-651.72 1053.12,-647.88 1052.88,-654.87"/>
</g>
<!-- Spider/index.js&#45;&gt;ControlPanel/index.js -->
<g id="edge11" class="edge">
<title>Spider/index.js&#45;&gt;ControlPanel/index.js</title>
<path fill="none" stroke="#757575" d="M175.79,-706.19C193.76,-717.99 222.99,-736.16 250,-748.5 258.91,-752.57 268.65,-756.33 278.12,-759.66"/>
<polygon fill="#757575" stroke="#757575" points="277.26,-763.07 287.85,-762.97 279.51,-756.44 277.26,-763.07"/>
</g>
<!-- Spider/index.js&#45;&gt;Pipeline/index.js -->
<g id="edge12" class="edge">
<title>Spider/index.js&#45;&gt;Pipeline/index.js</title>
<path fill="none" stroke="#757575" d="M199.61,-706.01C215.25,-709.84 233.32,-713.61 250,-715.5 336.92,-725.35 437.62,-715.33 502.83,-706.04"/>
<polygon fill="#757575" stroke="#757575" points="503.59,-709.46 512.98,-704.56 502.58,-702.54 503.59,-709.46"/>
</g>
<!-- Spider/staticEvent.js -->
<g id="node12" class="node">
<title>Spider/staticEvent.js</title>
<path fill="none" stroke="#cfffac" d="M393.83,-706C393.83,-706 263.17,-706 263.17,-706 259.33,-706 255.5,-702.17 255.5,-698.33 255.5,-698.33 255.5,-690.67 255.5,-690.67 255.5,-686.83 259.33,-683 263.17,-683 263.17,-683 393.83,-683 393.83,-683 397.67,-683 401.5,-686.83 401.5,-690.67 401.5,-690.67 401.5,-698.33 401.5,-698.33 401.5,-702.17 397.67,-706 393.83,-706"/>
<text text-anchor="middle" x="328.5" y="-690.8" font-family="Arial" font-size="14.00" fill="#cfffac">Spider/staticEvent.js</text>
</g>
<!-- Spider/index.js&#45;&gt;Spider/staticEvent.js -->
<g id="edge13" class="edge">
<title>Spider/index.js&#45;&gt;Spider/staticEvent.js</title>
<path fill="none" stroke="#757575" d="M212.9,-694.5C223.25,-694.5 234.28,-694.5 245.26,-694.5"/>
<polygon fill="#757575" stroke="#757575" points="245.32,-698 255.32,-694.5 245.32,-691 245.32,-698"/>
</g>
<!-- TaskSystem/TaskGroup.js -->
<g id="node15" class="node">
<title>TaskSystem/TaskGroup.js</title>
<path fill="none" stroke="#c6c5fe" d="M656.83,-588C656.83,-588 488.17,-588 488.17,-588 484.33,-588 480.5,-584.17 480.5,-580.33 480.5,-580.33 480.5,-572.67 480.5,-572.67 480.5,-568.83 484.33,-565 488.17,-565 488.17,-565 656.83,-565 656.83,-565 660.67,-565 664.5,-568.83 664.5,-572.67 664.5,-572.67 664.5,-580.33 664.5,-580.33 664.5,-584.17 660.67,-588 656.83,-588"/>
<text text-anchor="middle" x="572.5" y="-572.8" font-family="Arial" font-size="14.00" fill="#c6c5fe">TaskSystem/TaskGroup.js</text>
</g>
<!-- TaskSystem/TaskGroup.js&#45;&gt;TaskSystem/Task.js -->
<g id="edge17" class="edge">
<title>TaskSystem/TaskGroup.js&#45;&gt;TaskSystem/Task.js</title>
<path fill="none" stroke="#757575" d="M659.18,-588C696.06,-592.96 738.96,-598.72 775.32,-603.6"/>
<polygon fill="#757575" stroke="#757575" points="775.02,-607.09 785.4,-604.95 775.95,-600.15 775.02,-607.09"/>
</g>
<!-- TaskSystem/index.js -->
<g id="node16" class="node">
<title>TaskSystem/index.js</title>
<path fill="none" stroke="#c6c5fe" d="M394.33,-588C394.33,-588 262.67,-588 262.67,-588 258.83,-588 255,-584.17 255,-580.33 255,-580.33 255,-572.67 255,-572.67 255,-568.83 258.83,-565 262.67,-565 262.67,-565 394.33,-565 394.33,-565 398.17,-565 402,-568.83 402,-572.67 402,-572.67 402,-580.33 402,-580.33 402,-584.17 398.17,-588 394.33,-588"/>
<text text-anchor="middle" x="328.5" y="-572.8" font-family="Arial" font-size="14.00" fill="#c6c5fe">TaskSystem/index.js</text>
</g>
<!-- TaskSystem/index.js&#45;&gt;TaskSystem/Task.js -->
<g id="edge18" class="edge">
<title>TaskSystem/index.js&#45;&gt;TaskSystem/Task.js</title>
<path fill="none" stroke="#757575" d="M386.45,-588.04C404.47,-591.28 424.5,-594.48 443,-596.5 557.85,-609.06 691.56,-612.95 775.12,-614.1"/>
<polygon fill="#757575" stroke="#757575" points="775.27,-617.6 785.31,-614.23 775.36,-610.6 775.27,-617.6"/>
</g>
<!-- TaskSystem/index.js&#45;&gt;TaskSystem/TaskGroup.js -->
<g id="edge19" class="edge">
<title>TaskSystem/index.js&#45;&gt;TaskSystem/TaskGroup.js</title>
<path fill="none" stroke="#757575" d="M402.11,-576.5C423.57,-576.5 447.47,-576.5 470.39,-576.5"/>
<polygon fill="#757575" stroke="#757575" points="470.49,-580 480.49,-576.5 470.49,-573 470.49,-580"/>
</g>
<!-- index.js -->
<g id="node17" class="node">
<title>index.js</title>
<path fill="none" stroke="#c6c5fe" d="M57.33,-468C57.33,-468 7.67,-468 7.67,-468 3.83,-468 0,-464.17 0,-460.33 0,-460.33 0,-452.67 0,-452.67 0,-448.83 3.83,-445 7.67,-445 7.67,-445 57.33,-445 57.33,-445 61.17,-445 65,-448.83 65,-452.67 65,-452.67 65,-460.33 65,-460.33 65,-464.17 61.17,-468 57.33,-468"/>
<text text-anchor="middle" x="32.5" y="-452.8" font-family="Arial" font-size="14.00" fill="#c6c5fe">index.js</text>
</g>
<!-- index.js&#45;&gt;Pipeline/PluginSystem.js -->
<g id="edge20" class="edge">
<title>index.js&#45;&gt;Pipeline/PluginSystem.js</title>
<path fill="none" stroke="#757575" d="M65.04,-455.66C129.43,-453.75 280.6,-448.32 407,-436.5 432.34,-434.13 459.78,-430.78 484.85,-427.4"/>
<polygon fill="#757575" stroke="#757575" points="485.63,-430.83 495.06,-426.01 484.68,-423.89 485.63,-430.83"/>
</g>
<!-- index.js&#45;&gt;Spider/index.js -->
<g id="edge21" class="edge">
<title>index.js&#45;&gt;Spider/index.js</title>
<path fill="none" stroke="#757575" d="M39.6,-468.3C59.24,-506.3 120.98,-625.77 145.91,-674"/>
<polygon fill="#757575" stroke="#757575" points="142.81,-675.63 150.51,-682.91 149.03,-672.42 142.81,-675.63"/>
</g>
<!-- index.js&#45;&gt;TaskSystem/index.js -->
<g id="edge22" class="edge">
<title>index.js&#45;&gt;TaskSystem/index.js</title>
<path fill="none" stroke="#757575" d="M61.69,-468.01C114.79,-489.68 229.65,-536.56 289.5,-560.99"/>
<polygon fill="#757575" stroke="#757575" points="288.38,-564.31 298.96,-564.85 291.03,-557.83 288.38,-564.31"/>
</g>
<!-- plugins/index.js -->
<g id="node18" class="node">
<title>plugins/index.js</title>
<path fill="none" stroke="#c6c5fe" d="M206.33,-428C206.33,-428 108.67,-428 108.67,-428 104.83,-428 101,-424.17 101,-420.33 101,-420.33 101,-412.67 101,-412.67 101,-408.83 104.83,-405 108.67,-405 108.67,-405 206.33,-405 206.33,-405 210.17,-405 214,-408.83 214,-412.67 214,-412.67 214,-420.33 214,-420.33 214,-424.17 210.17,-428 206.33,-428"/>
<text text-anchor="middle" x="157.5" y="-412.8" font-family="Arial" font-size="14.00" fill="#c6c5fe">plugins/index.js</text>
</g>
<!-- index.js&#45;&gt;plugins/index.js -->
<g id="edge23" class="edge">
<title>index.js&#45;&gt;plugins/index.js</title>
<path fill="none" stroke="#757575" d="M65.18,-446.2C79.19,-441.64 95.93,-436.2 111.23,-431.22"/>
<polygon fill="#757575" stroke="#757575" points="112.6,-434.46 121.03,-428.04 110.43,-427.8 112.6,-434.46"/>
</g>
<!-- tools/index.js -->
<g id="node19" class="node">
<title>tools/index.js</title>
<path fill="none" stroke="#c6c5fe" d="M370.33,-245C370.33,-245 286.67,-245 286.67,-245 282.83,-245 279,-241.17 279,-237.33 279,-237.33 279,-229.67 279,-229.67 279,-225.83 282.83,-222 286.67,-222 286.67,-222 370.33,-222 370.33,-222 374.17,-222 378,-225.83 378,-229.67 378,-229.67 378,-237.33 378,-237.33 378,-241.17 374.17,-245 370.33,-245"/>
<text text-anchor="middle" x="328.5" y="-229.8" font-family="Arial" font-size="14.00" fill="#c6c5fe">tools/index.js</text>
</g>
<!-- index.js&#45;&gt;tools/index.js -->
<g id="edge24" class="edge">
<title>index.js&#45;&gt;tools/index.js</title>
<path fill="none" stroke="#757575" d="M45.57,-444.82C58.8,-432.21 80.82,-411.75 101,-395.5 170.96,-339.17 258.67,-279.28 301.52,-250.66"/>
<polygon fill="#757575" stroke="#757575" points="303.57,-253.5 309.96,-245.04 299.7,-247.67 303.57,-253.5"/>
</g>
<!-- plugins/Download.js -->
<g id="node20" class="node">
<title>plugins/Download.js</title>
<path fill="none" stroke="#c6c5fe" d="M392.33,-428C392.33,-428 264.67,-428 264.67,-428 260.83,-428 257,-424.17 257,-420.33 257,-420.33 257,-412.67 257,-412.67 257,-408.83 260.83,-405 264.67,-405 264.67,-405 392.33,-405 392.33,-405 396.17,-405 400,-408.83 400,-412.67 400,-412.67 400,-420.33 400,-420.33 400,-424.17 396.17,-428 392.33,-428"/>
<text text-anchor="middle" x="328.5" y="-412.8" font-family="Arial" font-size="14.00" fill="#c6c5fe">plugins/Download.js</text>
</g>
<!-- plugins/index.js&#45;&gt;plugins/Download.js -->
<g id="edge36" class="edge">
<title>plugins/index.js&#45;&gt;plugins/Download.js</title>
<path fill="none" stroke="#757575" d="M214.31,-416.5C224.76,-416.5 235.88,-416.5 246.9,-416.5"/>
<polygon fill="#757575" stroke="#757575" points="246.99,-420 256.99,-416.5 246.99,-413 246.99,-420"/>
</g>
<!-- plugins/ExcelHelper.js -->
<g id="node22" class="node">
<title>plugins/ExcelHelper.js</title>
<path fill="none" stroke="#c6c5fe" d="M399.33,-346C399.33,-346 257.67,-346 257.67,-346 253.83,-346 250,-342.17 250,-338.33 250,-338.33 250,-330.67 250,-330.67 250,-326.83 253.83,-323 257.67,-323 257.67,-323 399.33,-323 399.33,-323 403.17,-323 407,-326.83 407,-330.67 407,-330.67 407,-338.33 407,-338.33 407,-342.17 403.17,-346 399.33,-346"/>
<text text-anchor="middle" x="328.5" y="-330.8" font-family="Arial" font-size="14.00" fill="#c6c5fe">plugins/ExcelHelper.js</text>
</g>
<!-- plugins/index.js&#45;&gt;plugins/ExcelHelper.js -->
<g id="edge37" class="edge">
<title>plugins/index.js&#45;&gt;plugins/ExcelHelper.js</title>
<path fill="none" stroke="#757575" d="M172.17,-405C189.31,-391.13 220.09,-368 250,-354.5 254.29,-352.57 258.79,-350.79 263.39,-349.17"/>
<polygon fill="#757575" stroke="#757575" points="264.49,-352.5 272.9,-346.06 262.31,-345.84 264.49,-352.5"/>
</g>
<!-- plugins/Request.js -->
<g id="node28" class="node">
<title>plugins/Request.js</title>
<path fill="none" stroke="#c6c5fe" d="M387.83,-387C387.83,-387 269.17,-387 269.17,-387 265.33,-387 261.5,-383.17 261.5,-379.33 261.5,-379.33 261.5,-371.67 261.5,-371.67 261.5,-367.83 265.33,-364 269.17,-364 269.17,-364 387.83,-364 387.83,-364 391.67,-364 395.5,-367.83 395.5,-371.67 395.5,-371.67 395.5,-379.33 395.5,-379.33 395.5,-383.17 391.67,-387 387.83,-387"/>
<text text-anchor="middle" x="328.5" y="-371.8" font-family="Arial" font-size="14.00" fill="#c6c5fe">plugins/Request.js</text>
</g>
<!-- plugins/index.js&#45;&gt;plugins/Request.js -->
<g id="edge38" class="edge">
<title>plugins/index.js&#45;&gt;plugins/Request.js</title>
<path fill="none" stroke="#757575" d="M206.03,-404.97C226,-400.12 249.41,-394.45 270.32,-389.37"/>
<polygon fill="#757575" stroke="#757575" points="271.15,-392.77 280.04,-387.01 269.5,-385.97 271.15,-392.77"/>
</g>
<!-- plugins/zipFile.js -->
<g id="node30" class="node">
<title>plugins/zipFile.js</title>
<path fill="none" stroke="#c6c5fe" d="M381.33,-508C381.33,-508 275.67,-508 275.67,-508 271.83,-508 268,-504.17 268,-500.33 268,-500.33 268,-492.67 268,-492.67 268,-488.83 271.83,-485 275.67,-485 275.67,-485 381.33,-485 381.33,-485 385.17,-485 389,-488.83 389,-492.67 389,-492.67 389,-500.33 389,-500.33 389,-504.17 385.17,-508 381.33,-508"/>
<text text-anchor="middle" x="328.5" y="-492.8" font-family="Arial" font-size="14.00" fill="#c6c5fe">plugins/zipFile.js</text>
</g>
<!-- plugins/index.js&#45;&gt;plugins/zipFile.js -->
<g id="edge39" class="edge">
<title>plugins/index.js&#45;&gt;plugins/zipFile.js</title>
<path fill="none" stroke="#757575" d="M183.07,-428.13C212.32,-441.98 261.3,-465.16 294,-480.64"/>
<polygon fill="#757575" stroke="#757575" points="292.63,-483.87 303.17,-484.98 295.63,-477.54 292.63,-483.87"/>
</g>
<!-- tools/loader/loader.js -->
<g id="node25" class="node">
<title>tools/loader/loader.js</title>
<path fill="none" stroke="#c6c5fe" d="M1218.83,-265C1218.83,-265 1085.17,-265 1085.17,-265 1081.33,-265 1077.5,-261.17 1077.5,-257.33 1077.5,-257.33 1077.5,-249.67 1077.5,-249.67 1077.5,-245.83 1081.33,-242 1085.17,-242 1085.17,-242 1218.83,-242 1218.83,-242 1222.67,-242 1226.5,-245.83 1226.5,-249.67 1226.5,-249.67 1226.5,-257.33 1226.5,-257.33 1226.5,-261.17 1222.67,-265 1218.83,-265"/>
<text text-anchor="middle" x="1152" y="-249.8" font-family="Arial" font-size="14.00" fill="#c6c5fe">tools/loader/loader.js</text>
</g>
<!-- tools/index.js&#45;&gt;tools/loader/loader.js -->
<g id="edge57" class="edge">
<title>tools/index.js&#45;&gt;tools/loader/loader.js</title>
<path fill="none" stroke="#757575" d="M378.12,-234.68C513.57,-237.98 896.4,-247.3 1067.07,-251.46"/>
<polygon fill="#757575" stroke="#757575" points="1067.18,-254.96 1077.26,-251.7 1067.35,-247.96 1067.18,-254.96"/>
</g>
<!-- tools/Mock/Mock.js -->
<g id="node31" class="node">
<title>tools/Mock/Mock.js</title>
<path fill="none" stroke="#c6c5fe" d="M633.33,-225C633.33,-225 511.67,-225 511.67,-225 507.83,-225 504,-221.17 504,-217.33 504,-217.33 504,-209.67 504,-209.67 504,-205.83 507.83,-202 511.67,-202 511.67,-202 633.33,-202 633.33,-202 637.17,-202 641,-205.83 641,-209.67 641,-209.67 641,-217.33 641,-217.33 641,-221.17 637.17,-225 633.33,-225"/>
<text text-anchor="middle" x="572.5" y="-209.8" font-family="Arial" font-size="14.00" fill="#c6c5fe">tools/Mock/Mock.js</text>
</g>
<!-- tools/index.js&#45;&gt;tools/Mock/Mock.js -->
<g id="edge55" class="edge">
<title>tools/index.js&#45;&gt;tools/Mock/Mock.js</title>
<path fill="none" stroke="#757575" d="M378.18,-229.48C411.25,-226.74 455.7,-223.07 493.64,-219.93"/>
<polygon fill="#757575" stroke="#757575" points="493.97,-223.42 503.65,-219.11 493.39,-216.44 493.97,-223.42"/>
</g>
<!-- tools/analysis/index.js -->
<g id="node41" class="node">
<title>tools/analysis/index.js</title>
<path fill="none" stroke="#c6c5fe" d="M641.33,-105C641.33,-105 503.67,-105 503.67,-105 499.83,-105 496,-101.17 496,-97.33 496,-97.33 496,-89.67 496,-89.67 496,-85.83 499.83,-82 503.67,-82 503.67,-82 641.33,-82 641.33,-82 645.17,-82 649,-85.83 649,-89.67 649,-89.67 649,-97.33 649,-97.33 649,-101.17 645.17,-105 641.33,-105"/>
<text text-anchor="middle" x="572.5" y="-89.8" font-family="Arial" font-size="14.00" fill="#c6c5fe">tools/analysis/index.js</text>
</g>
<!-- tools/index.js&#45;&gt;tools/analysis/index.js -->
<g id="edge56" class="edge">
<title>tools/index.js&#45;&gt;tools/analysis/index.js</title>
<path fill="none" stroke="#757575" d="M349.72,-221.8C392.62,-196.99 492.9,-138.97 542.57,-110.24"/>
<polygon fill="#757575" stroke="#757575" points="544.61,-113.1 551.51,-105.06 541.1,-107.04 544.61,-113.1"/>
</g>
<!-- plugins/Download.js&#45;&gt;Pipeline/PluginSystem.js -->
<g id="edge25" class="edge">
<title>plugins/Download.js&#45;&gt;Pipeline/PluginSystem.js</title>
<path fill="none" stroke="#757575" d="M400.15,-415.92C423.69,-415.72 450.33,-415.5 475.46,-415.29"/>
<polygon fill="#757575" stroke="#757575" points="475.78,-418.79 485.75,-415.21 475.73,-411.79 475.78,-418.79"/>
</g>
<!-- plugins/utils/toFile.js -->
<g id="node21" class="node">
<title>plugins/utils/toFile.js</title>
<path fill="none" stroke="#cfffac" d="M636.33,-467C636.33,-467 508.67,-467 508.67,-467 504.83,-467 501,-463.17 501,-459.33 501,-459.33 501,-451.67 501,-451.67 501,-447.83 504.83,-444 508.67,-444 508.67,-444 636.33,-444 636.33,-444 640.17,-444 644,-447.83 644,-451.67 644,-451.67 644,-459.33 644,-459.33 644,-463.17 640.17,-467 636.33,-467"/>
<text text-anchor="middle" x="572.5" y="-451.8" font-family="Arial" font-size="14.00" fill="#cfffac">plugins/utils/toFile.js</text>
</g>
<!-- plugins/Download.js&#45;&gt;plugins/utils/toFile.js -->
<g id="edge26" class="edge">
<title>plugins/Download.js&#45;&gt;plugins/utils/toFile.js</title>
<path fill="none" stroke="#757575" d="M400.15,-427.89C428.48,-432.45 461.29,-437.74 490.57,-442.46"/>
<polygon fill="#757575" stroke="#757575" points="490.34,-445.96 500.77,-444.1 491.45,-439.05 490.34,-445.96"/>
</g>
<!-- plugins/ExcelHelper.js&#45;&gt;Pipeline/PluginSystem.js -->
<g id="edge27" class="edge">
<title>plugins/ExcelHelper.js&#45;&gt;Pipeline/PluginSystem.js</title>
<path fill="none" stroke="#757575" d="M388.91,-346.02C395.24,-348.35 401.39,-351.15 407,-354.5 427.25,-366.61 422.23,-382.32 443,-393.5 453.26,-399.02 464.61,-403.17 476.18,-406.28"/>
<polygon fill="#757575" stroke="#757575" points="475.39,-409.69 485.93,-408.65 477.04,-402.89 475.39,-409.69"/>
</g>
<!-- plugins/ExcelHelper/createExcelFile.js -->
<g id="node23" class="node">
<title>plugins/ExcelHelper/createExcelFile.js</title>
<path fill="none" stroke="#c6c5fe" d="M694.33,-305C694.33,-305 450.67,-305 450.67,-305 446.83,-305 443,-301.17 443,-297.33 443,-297.33 443,-289.67 443,-289.67 443,-285.83 446.83,-282 450.67,-282 450.67,-282 694.33,-282 694.33,-282 698.17,-282 702,-285.83 702,-289.67 702,-289.67 702,-297.33 702,-297.33 702,-301.17 698.17,-305 694.33,-305"/>
<text text-anchor="middle" x="572.5" y="-289.8" font-family="Arial" font-size="14.00" fill="#c6c5fe">plugins/ExcelHelper/createExcelFile.js</text>
</g>
<!-- plugins/ExcelHelper.js&#45;&gt;plugins/ExcelHelper/createExcelFile.js -->
<g id="edge28" class="edge">
<title>plugins/ExcelHelper.js&#45;&gt;plugins/ExcelHelper/createExcelFile.js</title>
<path fill="none" stroke="#757575" d="M397.55,-322.97C427.45,-317.9 462.72,-311.93 493.66,-306.69"/>
<polygon fill="#757575" stroke="#757575" points="494.26,-310.14 503.54,-305.01 493.09,-303.23 494.26,-310.14"/>
</g>
<!-- plugins/ExcelHelper/xlsx.js -->
<g id="node24" class="node">
<title>plugins/ExcelHelper/xlsx.js</title>
<path fill="none" stroke="#c6c5fe" d="M942.33,-305C942.33,-305 772.67,-305 772.67,-305 768.83,-305 765,-301.17 765,-297.33 765,-297.33 765,-289.67 765,-289.67 765,-285.83 768.83,-282 772.67,-282 772.67,-282 942.33,-282 942.33,-282 946.17,-282 950,-285.83 950,-289.67 950,-289.67 950,-297.33 950,-297.33 950,-301.17 946.17,-305 942.33,-305"/>
<text text-anchor="middle" x="857.5" y="-289.8" font-family="Arial" font-size="14.00" fill="#c6c5fe">plugins/ExcelHelper/xlsx.js</text>
</g>
<!-- plugins/ExcelHelper.js&#45;&gt;plugins/ExcelHelper/xlsx.js -->
<g id="edge29" class="edge">
<title>plugins/ExcelHelper.js&#45;&gt;plugins/ExcelHelper/xlsx.js</title>
<path fill="none" stroke="#757575" d="M407.03,-331.77C482.46,-328.72 600.26,-322.94 702,-313.5 722.71,-311.58 744.93,-309.01 765.87,-306.35"/>
<polygon fill="#757575" stroke="#757575" points="766.56,-309.79 776.04,-305.04 765.67,-302.84 766.56,-309.79"/>
</g>
<!-- plugins/ExcelHelper/createExcelFile.js&#45;&gt;plugins/ExcelHelper/xlsx.js -->
<g id="edge30" class="edge">
<title>plugins/ExcelHelper/createExcelFile.js&#45;&gt;plugins/ExcelHelper/xlsx.js</title>
<path fill="none" stroke="#757575" d="M702.16,-293.5C719.7,-293.5 737.5,-293.5 754.47,-293.5"/>
<polygon fill="#757575" stroke="#757575" points="754.92,-297 764.92,-293.5 754.92,-290 754.92,-297"/>
</g>
<!-- plugins/ExcelHelper/xlsx.js&#45;&gt;tools/loader/loader.js -->
<g id="edge31" class="edge">
<title>plugins/ExcelHelper/xlsx.js&#45;&gt;tools/loader/loader.js</title>
<path fill="none" stroke="#757575" d="M942.71,-281.98C981.75,-276.65 1028.03,-270.32 1067.04,-264.98"/>
<polygon fill="#757575" stroke="#757575" points="1067.88,-268.4 1077.32,-263.58 1066.93,-261.46 1067.88,-268.4"/>
</g>
<!-- utils/type.js -->
<g id="node38" class="node">
<title>utils/type.js</title>
<path fill="none" stroke="#cfffac" d="M1463.83,-103C1463.83,-103 1393.17,-103 1393.17,-103 1389.33,-103 1385.5,-99.17 1385.5,-95.33 1385.5,-95.33 1385.5,-87.67 1385.5,-87.67 1385.5,-83.83 1389.33,-80 1393.17,-80 1393.17,-80 1463.83,-80 1463.83,-80 1467.67,-80 1471.5,-83.83 1471.5,-87.67 1471.5,-87.67 1471.5,-95.33 1471.5,-95.33 1471.5,-99.17 1467.67,-103 1463.83,-103"/>
<text text-anchor="middle" x="1428.5" y="-87.8" font-family="Arial" font-size="14.00" fill="#cfffac">utils/type.js</text>
</g>
<!-- tools/loader/loader.js&#45;&gt;utils/type.js -->
<g id="edge61" class="edge">
<title>tools/loader/loader.js&#45;&gt;utils/type.js</title>
<path fill="none" stroke="#757575" d="M1187.03,-241.94C1215.68,-231.58 1257.26,-215.02 1291,-195.5 1335.21,-169.92 1381.43,-131.96 1407.13,-109.67"/>
<polygon fill="#757575" stroke="#757575" points="1409.51,-112.24 1414.73,-103.02 1404.9,-106.97 1409.51,-112.24"/>
</g>
<!-- tools/loader/jsDelivr.js -->
<g id="node42" class="node">
<title>tools/loader/jsDelivr.js</title>
<path fill="none" stroke="#cfffac" d="M1498.33,-224C1498.33,-224 1358.67,-224 1358.67,-224 1354.83,-224 1351,-220.17 1351,-216.33 1351,-216.33 1351,-208.67 1351,-208.67 1351,-204.83 1354.83,-201 1358.67,-201 1358.67,-201 1498.33,-201 1498.33,-201 1502.17,-201 1506,-204.83 1506,-208.67 1506,-208.67 1506,-216.33 1506,-216.33 1506,-220.17 1502.17,-224 1498.33,-224"/>
<text text-anchor="middle" x="1428.5" y="-208.8" font-family="Arial" font-size="14.00" fill="#cfffac">tools/loader/jsDelivr.js</text>
</g>
<!-- tools/loader/loader.js&#45;&gt;tools/loader/jsDelivr.js -->
<g id="edge58" class="edge">
<title>tools/loader/loader.js&#45;&gt;tools/loader/jsDelivr.js</title>
<path fill="none" stroke="#757575" d="M1226.56,-242.51C1261.69,-237.27 1303.97,-230.95 1340.67,-225.47"/>
<polygon fill="#757575" stroke="#757575" points="1341.49,-228.89 1350.86,-223.95 1340.45,-221.96 1341.49,-228.89"/>
</g>
<!-- tools/loader/loaderFunction.js -->
<g id="node43" class="node">
<title>tools/loader/loaderFunction.js</title>
<path fill="none" stroke="#cfffac" d="M1522.33,-306C1522.33,-306 1334.67,-306 1334.67,-306 1330.83,-306 1327,-302.17 1327,-298.33 1327,-298.33 1327,-290.67 1327,-290.67 1327,-286.83 1330.83,-283 1334.67,-283 1334.67,-283 1522.33,-283 1522.33,-283 1526.17,-283 1530,-286.83 1530,-290.67 1530,-290.67 1530,-298.33 1530,-298.33 1530,-302.17 1526.17,-306 1522.33,-306"/>
<text text-anchor="middle" x="1428.5" y="-290.8" font-family="Arial" font-size="14.00" fill="#cfffac">tools/loader/loaderFunction.js</text>
</g>
<!-- tools/loader/loader.js&#45;&gt;tools/loader/loaderFunction.js -->
<g id="edge59" class="edge">
<title>tools/loader/loader.js&#45;&gt;tools/loader/loaderFunction.js</title>
<path fill="none" stroke="#757575" d="M1226.56,-264.49C1261.54,-269.71 1303.62,-276 1340.21,-281.46"/>
<polygon fill="#757575" stroke="#757575" points="1339.97,-284.97 1350.38,-282.98 1341,-278.04 1339.97,-284.97"/>
</g>
<!-- tools/loader/scriptStore.js -->
<g id="node44" class="node">
<title>tools/loader/scriptStore.js</title>
<path fill="none" stroke="#cfffac" d="M1509.83,-265C1509.83,-265 1347.17,-265 1347.17,-265 1343.33,-265 1339.5,-261.17 1339.5,-257.33 1339.5,-257.33 1339.5,-249.67 1339.5,-249.67 1339.5,-245.83 1343.33,-242 1347.17,-242 1347.17,-242 1509.83,-242 1509.83,-242 1513.67,-242 1517.5,-245.83 1517.5,-249.67 1517.5,-249.67 1517.5,-257.33 1517.5,-257.33 1517.5,-261.17 1513.67,-265 1509.83,-265"/>
<text text-anchor="middle" x="1428.5" y="-249.8" font-family="Arial" font-size="14.00" fill="#cfffac">tools/loader/scriptStore.js</text>
</g>
<!-- tools/loader/loader.js&#45;&gt;tools/loader/scriptStore.js -->
<g id="edge60" class="edge">
<title>tools/loader/loader.js&#45;&gt;tools/loader/scriptStore.js</title>
<path fill="none" stroke="#757575" d="M1226.56,-253.5C1257.94,-253.5 1295.02,-253.5 1328.73,-253.5"/>
<polygon fill="#757575" stroke="#757575" points="1329.07,-257 1339.07,-253.5 1329.07,-250 1329.07,-257"/>
</g>
<!-- plugins/JSzip/JSzip.js -->
<g id="node26" class="node">
<title>plugins/JSzip/JSzip.js</title>
<path fill="none" stroke="#c6c5fe" d="M926.83,-508C926.83,-508 788.17,-508 788.17,-508 784.33,-508 780.5,-504.17 780.5,-500.33 780.5,-500.33 780.5,-492.67 780.5,-492.67 780.5,-488.83 784.33,-485 788.17,-485 788.17,-485 926.83,-485 926.83,-485 930.67,-485 934.5,-488.83 934.5,-492.67 934.5,-492.67 934.5,-500.33 934.5,-500.33 934.5,-504.17 930.67,-508 926.83,-508"/>
<text text-anchor="middle" x="857.5" y="-492.8" font-family="Arial" font-size="14.00" fill="#c6c5fe">plugins/JSzip/JSzip.js</text>
</g>
<!-- plugins/JSzip/JSzip.js&#45;&gt;tools/loader/loader.js -->
<g id="edge32" class="edge">
<title>plugins/JSzip/JSzip.js&#45;&gt;tools/loader/loader.js</title>
<path fill="none" stroke="#757575" d="M872.61,-484.78C919.72,-445.64 1071.83,-319.27 1129.01,-271.77"/>
<polygon fill="#757575" stroke="#757575" points="1131.58,-274.19 1137.03,-265.1 1127.11,-268.8 1131.58,-274.19"/>
</g>
<!-- plugins/JSzip/zipper.js -->
<g id="node27" class="node">
<title>plugins/JSzip/zipper.js</title>
<path fill="none" stroke="#c6c5fe" d="M643.83,-508C643.83,-508 501.17,-508 501.17,-508 497.33,-508 493.5,-504.17 493.5,-500.33 493.5,-500.33 493.5,-492.67 493.5,-492.67 493.5,-488.83 497.33,-485 501.17,-485 501.17,-485 643.83,-485 643.83,-485 647.67,-485 651.5,-488.83 651.5,-492.67 651.5,-492.67 651.5,-500.33 651.5,-500.33 651.5,-504.17 647.67,-508 643.83,-508"/>
<text text-anchor="middle" x="572.5" y="-492.8" font-family="Arial" font-size="14.00" fill="#c6c5fe">plugins/JSzip/zipper.js</text>
</g>
<!-- plugins/JSzip/zipper.js&#45;&gt;plugins/JSzip/JSzip.js -->
<g id="edge33" class="edge">
<title>plugins/JSzip/zipper.js&#45;&gt;plugins/JSzip/JSzip.js</title>
<path fill="none" stroke="#757575" d="M651.58,-496.5C688.22,-496.5 732.01,-496.5 769.69,-496.5"/>
<polygon fill="#757575" stroke="#757575" points="770.14,-500 780.14,-496.5 770.14,-493 770.14,-500"/>
</g>
<!-- plugins/Request.js&#45;&gt;Pipeline/PluginSystem.js -->
<g id="edge34" class="edge">
<title>plugins/Request.js&#45;&gt;Pipeline/PluginSystem.js</title>
<path fill="none" stroke="#757575" d="M395.63,-386.16C424.67,-390.84 459.07,-396.38 489.7,-401.32"/>
<polygon fill="#757575" stroke="#757575" points="489.51,-404.83 499.94,-402.97 490.62,-397.92 489.51,-404.83"/>
</g>
<!-- utils/concurrent.js -->
<g id="node29" class="node">
<title>utils/concurrent.js</title>
<path fill="none" stroke="#c6c5fe" d="M627.83,-385C627.83,-385 517.17,-385 517.17,-385 513.33,-385 509.5,-381.17 509.5,-377.33 509.5,-377.33 509.5,-369.67 509.5,-369.67 509.5,-365.83 513.33,-362 517.17,-362 517.17,-362 627.83,-362 627.83,-362 631.67,-362 635.5,-365.83 635.5,-369.67 635.5,-369.67 635.5,-377.33 635.5,-377.33 635.5,-381.17 631.67,-385 627.83,-385"/>
<text text-anchor="middle" x="572.5" y="-369.8" font-family="Arial" font-size="14.00" fill="#c6c5fe">utils/concurrent.js</text>
</g>
<!-- plugins/Request.js&#45;&gt;utils/concurrent.js -->
<g id="edge35" class="edge">
<title>plugins/Request.js&#45;&gt;utils/concurrent.js</title>
<path fill="none" stroke="#757575" d="M395.63,-374.95C427.71,-374.69 466.33,-374.37 499.2,-374.1"/>
<polygon fill="#757575" stroke="#757575" points="499.23,-377.6 509.2,-374.01 499.17,-370.6 499.23,-377.6"/>
</g>
<!-- utils/retryAndDelay.js -->
<g id="node45" class="node">
<title>utils/retryAndDelay.js</title>
<path fill="none" stroke="#c6c5fe" d="M924.33,-386C924.33,-386 790.67,-386 790.67,-386 786.83,-386 783,-382.17 783,-378.33 783,-378.33 783,-370.67 783,-370.67 783,-366.83 786.83,-363 790.67,-363 790.67,-363 924.33,-363 924.33,-363 928.17,-363 932,-366.83 932,-370.67 932,-370.67 932,-378.33 932,-378.33 932,-382.17 928.17,-386 924.33,-386"/>
<text text-anchor="middle" x="857.5" y="-370.8" font-family="Arial" font-size="14.00" fill="#c6c5fe">utils/retryAndDelay.js</text>
</g>
<!-- utils/concurrent.js&#45;&gt;utils/retryAndDelay.js -->
<g id="edge62" class="edge">
<title>utils/concurrent.js&#45;&gt;utils/retryAndDelay.js</title>
<path fill="none" stroke="#757575" d="M635.61,-373.72C675.83,-373.86 728.72,-374.05 772.66,-374.2"/>
<polygon fill="#757575" stroke="#757575" points="772.74,-377.7 782.75,-374.24 772.76,-370.7 772.74,-377.7"/>
</g>
<!-- plugins/zipFile.js&#45;&gt;Pipeline/PluginSystem.js -->
<g id="edge40" class="edge">
<title>plugins/zipFile.js&#45;&gt;Pipeline/PluginSystem.js</title>
<path fill="none" stroke="#757575" d="M375.74,-484.87C386.44,-481.14 397.47,-476.4 407,-470.5 426.24,-458.59 422.83,-444.75 443,-434.5 453.2,-429.32 464.39,-425.41 475.79,-422.46"/>
<polygon fill="#757575" stroke="#757575" points="476.89,-425.8 485.84,-420.12 475.3,-418.98 476.89,-425.8"/>
</g>
<!-- plugins/zipFile.js&#45;&gt;TaskSystem/TaskGroup.js -->
<g id="edge41" class="edge">
<title>plugins/zipFile.js&#45;&gt;TaskSystem/TaskGroup.js</title>
<path fill="none" stroke="#757575" d="M349.79,-508.02C372.02,-520.2 409.05,-539.18 443,-550.5 457.52,-555.34 473.29,-559.44 488.64,-562.84"/>
<polygon fill="#757575" stroke="#757575" points="488.13,-566.31 498.65,-564.98 489.6,-559.47 488.13,-566.31"/>
</g>
<!-- plugins/zipFile.js&#45;&gt;plugins/utils/toFile.js -->
<g id="edge44" class="edge">
<title>plugins/zipFile.js&#45;&gt;plugins/utils/toFile.js</title>
<path fill="none" stroke="#757575" d="M389.23,-485.12C406.56,-481.91 425.52,-478.48 443,-475.5 458.34,-472.89 474.73,-470.23 490.49,-467.75"/>
<polygon fill="#757575" stroke="#757575" points="491.41,-471.15 500.75,-466.14 490.32,-464.23 491.41,-471.15"/>
</g>
<!-- plugins/zipFile.js&#45;&gt;plugins/JSzip/JSzip.js -->
<g id="edge42" class="edge">
<title>plugins/zipFile.js&#45;&gt;plugins/JSzip/JSzip.js</title>
<path fill="none" stroke="#757575" d="M383.8,-508.05C402.47,-511.49 423.57,-514.8 443,-516.5 557.67,-526.53 587.13,-523.9 702,-516.5 725.04,-515.01 749.9,-512.3 772.79,-509.33"/>
<polygon fill="#757575" stroke="#757575" points="773.36,-512.79 782.82,-508 772.44,-505.85 773.36,-512.79"/>
</g>
<!-- plugins/zipFile.js&#45;&gt;plugins/JSzip/zipper.js -->
<g id="edge43" class="edge">
<title>plugins/zipFile.js&#45;&gt;plugins/JSzip/zipper.js</title>
<path fill="none" stroke="#757575" d="M389.01,-496.5C417.42,-496.5 452,-496.5 483.38,-496.5"/>
<polygon fill="#757575" stroke="#757575" points="483.44,-500 493.44,-496.5 483.44,-493 483.44,-500"/>
</g>
<!-- tools/Mock/Mock.js&#45;&gt;tools/loader/loader.js -->
<g id="edge46" class="edge">
<title>tools/Mock/Mock.js&#45;&gt;tools/loader/loader.js</title>
<path fill="none" stroke="#757575" d="M641.35,-217.54C721.55,-222.39 859.03,-230.95 977,-239.5 1006.47,-241.64 1038.74,-244.17 1067.39,-246.5"/>
<polygon fill="#757575" stroke="#757575" points="1067.11,-249.99 1077.36,-247.31 1067.68,-243.01 1067.11,-249.99"/>
</g>
<!-- tools/Mock/Server/index.js -->
<g id="node32" class="node">
<title>tools/Mock/Server/index.js</title>
<path fill="none" stroke="#c6c5fe" d="M940.83,-187C940.83,-187 774.17,-187 774.17,-187 770.33,-187 766.5,-183.17 766.5,-179.33 766.5,-179.33 766.5,-171.67 766.5,-171.67 766.5,-167.83 770.33,-164 774.17,-164 774.17,-164 940.83,-164 940.83,-164 944.67,-164 948.5,-167.83 948.5,-171.67 948.5,-171.67 948.5,-179.33 948.5,-179.33 948.5,-183.17 944.67,-187 940.83,-187"/>
<text text-anchor="middle" x="857.5" y="-171.8" font-family="Arial" font-size="14.00" fill="#c6c5fe">tools/Mock/Server/index.js</text>
</g>
<!-- tools/Mock/Mock.js&#45;&gt;tools/Mock/Server/index.js -->
<g id="edge45" class="edge">
<title>tools/Mock/Mock.js&#45;&gt;tools/Mock/Server/index.js</title>
<path fill="none" stroke="#757575" d="M641.29,-204.4C676.94,-199.61 721.25,-193.66 760.38,-188.41"/>
<polygon fill="#757575" stroke="#757575" points="761.29,-191.82 770.74,-187.02 760.36,-184.88 761.29,-191.82"/>
</g>
<!-- tools/Mock/Server/excel.js -->
<g id="node33" class="node">
<title>tools/Mock/Server/excel.js</title>
<path fill="none" stroke="#cfffac" d="M1235.33,-187C1235.33,-187 1068.67,-187 1068.67,-187 1064.83,-187 1061,-183.17 1061,-179.33 1061,-179.33 1061,-171.67 1061,-171.67 1061,-167.83 1064.83,-164 1068.67,-164 1068.67,-164 1235.33,-164 1235.33,-164 1239.17,-164 1243,-167.83 1243,-171.67 1243,-171.67 1243,-179.33 1243,-179.33 1243,-183.17 1239.17,-187 1235.33,-187"/>
<text text-anchor="middle" x="1152" y="-171.8" font-family="Arial" font-size="14.00" fill="#cfffac">tools/Mock/Server/excel.js</text>
</g>
<!-- tools/Mock/Server/index.js&#45;&gt;tools/Mock/Server/excel.js -->
<g id="edge47" class="edge">
<title>tools/Mock/Server/index.js&#45;&gt;tools/Mock/Server/excel.js</title>
<path fill="none" stroke="#757575" d="M948.65,-175.5C980.97,-175.5 1017.61,-175.5 1050.74,-175.5"/>
<polygon fill="#757575" stroke="#757575" points="1050.9,-179 1060.9,-175.5 1050.9,-172 1050.9,-179"/>
</g>
<!-- tools/analysis/Search/GlobalVars.js -->
<g id="node34" class="node">
<title>tools/analysis/Search/GlobalVars.js</title>
<path fill="none" stroke="#c6c5fe" d="M969.33,-64C969.33,-64 745.67,-64 745.67,-64 741.83,-64 738,-60.17 738,-56.33 738,-56.33 738,-48.67 738,-48.67 738,-44.83 741.83,-41 745.67,-41 745.67,-41 969.33,-41 969.33,-41 973.17,-41 977,-44.83 977,-48.67 977,-48.67 977,-56.33 977,-56.33 977,-60.17 973.17,-64 969.33,-64"/>
<text text-anchor="middle" x="857.5" y="-48.8" font-family="Arial" font-size="14.00" fill="#c6c5fe">tools/analysis/Search/GlobalVars.js</text>
</g>
<!-- tools/analysis/Search/window&#45;default.json -->
<g id="node35" class="node">
<title>tools/analysis/Search/window&#45;default.json</title>
<path fill="none" stroke="#cfffac" d="M1283.33,-64C1283.33,-64 1020.67,-64 1020.67,-64 1016.83,-64 1013,-60.17 1013,-56.33 1013,-56.33 1013,-48.67 1013,-48.67 1013,-44.83 1016.83,-41 1020.67,-41 1020.67,-41 1283.33,-41 1283.33,-41 1287.17,-41 1291,-44.83 1291,-48.67 1291,-48.67 1291,-56.33 1291,-56.33 1291,-60.17 1287.17,-64 1283.33,-64"/>
<text text-anchor="middle" x="1152" y="-48.8" font-family="Arial" font-size="14.00" fill="#cfffac">tools/analysis/Search/window&#45;default.json</text>
</g>
<!-- tools/analysis/Search/GlobalVars.js&#45;&gt;tools/analysis/Search/window&#45;default.json -->
<g id="edge48" class="edge">
<title>tools/analysis/Search/GlobalVars.js&#45;&gt;tools/analysis/Search/window&#45;default.json</title>
<path fill="none" stroke="#757575" d="M977.05,-52.5C985.47,-52.5 994.02,-52.5 1002.58,-52.5"/>
<polygon fill="#757575" stroke="#757575" points="1002.63,-56 1012.63,-52.5 1002.63,-49 1002.63,-56"/>
</g>
<!-- tools/analysis/Search/Search.js -->
<g id="node36" class="node">
<title>tools/analysis/Search/Search.js</title>
<path fill="none" stroke="#c6c5fe" d="M956.33,-23C956.33,-23 758.67,-23 758.67,-23 754.83,-23 751,-19.17 751,-15.33 751,-15.33 751,-7.67 751,-7.67 751,-3.83 754.83,0 758.67,0 758.67,0 956.33,0 956.33,0 960.17,0 964,-3.83 964,-7.67 964,-7.67 964,-15.33 964,-15.33 964,-19.17 960.17,-23 956.33,-23"/>
<text text-anchor="middle" x="857.5" y="-7.8" font-family="Arial" font-size="14.00" fill="#c6c5fe">tools/analysis/Search/Search.js</text>
</g>
<!-- tools/analysis/Search/searchObj.js -->
<g id="node37" class="node">
<title>tools/analysis/Search/searchObj.js</title>
<path fill="none" stroke="#c6c5fe" d="M1260.83,-23C1260.83,-23 1043.17,-23 1043.17,-23 1039.33,-23 1035.5,-19.17 1035.5,-15.33 1035.5,-15.33 1035.5,-7.67 1035.5,-7.67 1035.5,-3.83 1039.33,0 1043.17,0 1043.17,0 1260.83,0 1260.83,0 1264.67,0 1268.5,-3.83 1268.5,-7.67 1268.5,-7.67 1268.5,-15.33 1268.5,-15.33 1268.5,-19.17 1264.67,-23 1260.83,-23"/>
<text text-anchor="middle" x="1152" y="-7.8" font-family="Arial" font-size="14.00" fill="#c6c5fe">tools/analysis/Search/searchObj.js</text>
</g>
<!-- tools/analysis/Search/Search.js&#45;&gt;tools/analysis/Search/searchObj.js -->
<g id="edge49" class="edge">
<title>tools/analysis/Search/Search.js&#45;&gt;tools/analysis/Search/searchObj.js</title>
<path fill="none" stroke="#757575" d="M964.1,-11.5C983.84,-11.5 1004.65,-11.5 1024.93,-11.5"/>
<polygon fill="#757575" stroke="#757575" points="1025.16,-15 1035.16,-11.5 1025.16,-8 1025.16,-15"/>
</g>
<!-- tools/analysis/Search/searchObj.js&#45;&gt;utils/type.js -->
<g id="edge50" class="edge">
<title>tools/analysis/Search/searchObj.js&#45;&gt;utils/type.js</title>
<path fill="none" stroke="#757575" d="M1254.66,-23.03C1267.01,-25.37 1279.36,-28.17 1291,-31.5 1328.84,-42.34 1369.89,-61.48 1396.99,-75.22"/>
<polygon fill="#757575" stroke="#757575" points="1395.47,-78.38 1405.96,-79.84 1398.67,-72.15 1395.47,-78.38"/>
</g>
<!-- tools/analysis/antiDebugger.js -->
<g id="node39" class="node">
<title>tools/analysis/antiDebugger.js</title>
<path fill="none" stroke="#cfffac" d="M952.33,-146C952.33,-146 762.67,-146 762.67,-146 758.83,-146 755,-142.17 755,-138.33 755,-138.33 755,-130.67 755,-130.67 755,-126.83 758.83,-123 762.67,-123 762.67,-123 952.33,-123 952.33,-123 956.17,-123 960,-126.83 960,-130.67 960,-130.67 960,-138.33 960,-138.33 960,-142.17 956.17,-146 952.33,-146"/>
<text text-anchor="middle" x="857.5" y="-130.8" font-family="Arial" font-size="14.00" fill="#cfffac">tools/analysis/antiDebugger.js</text>
</g>
<!-- tools/analysis/copy.js -->
<g id="node40" class="node">
<title>tools/analysis/copy.js</title>
<path fill="none" stroke="#cfffac" d="M924.83,-105C924.83,-105 790.17,-105 790.17,-105 786.33,-105 782.5,-101.17 782.5,-97.33 782.5,-97.33 782.5,-89.67 782.5,-89.67 782.5,-85.83 786.33,-82 790.17,-82 790.17,-82 924.83,-82 924.83,-82 928.67,-82 932.5,-85.83 932.5,-89.67 932.5,-89.67 932.5,-97.33 932.5,-97.33 932.5,-101.17 928.67,-105 924.83,-105"/>
<text text-anchor="middle" x="857.5" y="-89.8" font-family="Arial" font-size="14.00" fill="#cfffac">tools/analysis/copy.js</text>
</g>
<!-- tools/analysis/index.js&#45;&gt;tools/analysis/Search/GlobalVars.js -->
<g id="edge51" class="edge">
<title>tools/analysis/index.js&#45;&gt;tools/analysis/Search/GlobalVars.js</title>
<path fill="none" stroke="#757575" d="M649.34,-82.51C685.56,-77.27 729.16,-70.95 766.99,-65.47"/>
<polygon fill="#757575" stroke="#757575" points="767.59,-68.92 776.99,-64.02 766.59,-61.99 767.59,-68.92"/>
</g>
<!-- tools/analysis/index.js&#45;&gt;tools/analysis/Search/Search.js -->
<g id="edge52" class="edge">
<title>tools/analysis/index.js&#45;&gt;tools/analysis/Search/Search.js</title>
<path fill="none" stroke="#757575" d="M599.48,-81.91C631.48,-68.07 687.76,-45.07 738,-31.5 746.8,-29.12 756.05,-26.97 765.34,-25.05"/>
<polygon fill="#757575" stroke="#757575" points="766.29,-28.43 775.41,-23.04 764.92,-21.56 766.29,-28.43"/>
</g>
<!-- tools/analysis/index.js&#45;&gt;tools/analysis/antiDebugger.js -->
<g id="edge53" class="edge">
<title>tools/analysis/index.js&#45;&gt;tools/analysis/antiDebugger.js</title>
<path fill="none" stroke="#757575" d="M649.34,-104.49C685.56,-109.73 729.16,-116.05 766.99,-121.53"/>
<polygon fill="#757575" stroke="#757575" points="766.59,-125.01 776.99,-122.98 767.59,-118.08 766.59,-125.01"/>
</g>
<!-- tools/analysis/index.js&#45;&gt;tools/analysis/copy.js -->
<g id="edge54" class="edge">
<title>tools/analysis/index.js&#45;&gt;tools/analysis/copy.js</title>
<path fill="none" stroke="#757575" d="M649.34,-93.5C687.21,-93.5 733.15,-93.5 772.14,-93.5"/>
<polygon fill="#757575" stroke="#757575" points="772.41,-97 782.41,-93.5 772.41,-90 772.41,-97"/>
</g>
<!-- utils/retryAndDelay.js&#45;&gt;Errors/errors.js -->
<g id="edge63" class="edge">
<title>utils/retryAndDelay.js&#45;&gt;Errors/errors.js</title>
<path fill="none" stroke="#757575" d="M932.31,-379.55C979.67,-382.79 1040.59,-386.95 1086.1,-390.06"/>
<polygon fill="#757575" stroke="#757575" points="1085.93,-393.56 1096.14,-390.75 1086.41,-386.58 1085.93,-393.56"/>
</g>
</g>
</svg>
