<?xml version="1.0" encoding="UTF-8" standalone="no"?>
<!DOCTYPE svg PUBLIC "-//W3C//DTD SVG 1.1//EN"
 "http://www.w3.org/Graphics/SVG/1.1/DTD/svg11.dtd">
<!-- Generated by graphviz version 2.47.3 (20210619.1520)
 -->
<!-- Title: G Pages: 1 -->
<svg width="1794pt" height="898pt"
 viewBox="0.00 0.00 1794.20 897.70" xmlns="http://www.w3.org/2000/svg" xmlns:xlink="http://www.w3.org/1999/xlink">
<g id="graph0" class="graph" transform="scale(1 1) rotate(0) translate(21.6 876.1)">
<title>G</title>
<polygon fill="#111111" stroke="transparent" points="-21.6,21.6 -21.6,-876.1 1772.6,-876.1 1772.6,21.6 -21.6,21.6"/>
<!-- ControlPanel/ControlPanel.js -->
<g id="node1" class="node">
<title>ControlPanel/ControlPanel.js</title>
<path fill="none" stroke="#c6c5fe" d="M663.83,-728C663.83,-728 481.17,-728 481.17,-728 477.33,-728 473.5,-724.17 473.5,-720.33 473.5,-720.33 473.5,-712.67 473.5,-712.67 473.5,-708.83 477.33,-705 481.17,-705 481.17,-705 663.83,-705 663.83,-705 667.67,-705 671.5,-708.83 671.5,-712.67 671.5,-712.67 671.5,-720.33 671.5,-720.33 671.5,-724.17 667.67,-728 663.83,-728"/>
<text text-anchor="middle" x="572.5" y="-712.8" font-family="Arial" font-size="14.00" fill="#c6c5fe">ControlPanel/ControlPanel.js</text>
</g>
<!-- ControlPanel/StaticEvent.js -->
<g id="node2" class="node">
<title>ControlPanel/StaticEvent.js</title>
<path fill="none" stroke="#c6c5fe" d="M943.83,-708C943.83,-708 771.17,-708 771.17,-708 767.33,-708 763.5,-704.17 763.5,-700.33 763.5,-700.33 763.5,-692.67 763.5,-692.67 763.5,-688.83 767.33,-685 771.17,-685 771.17,-685 943.83,-685 943.83,-685 947.67,-685 951.5,-688.83 951.5,-692.67 951.5,-692.67 951.5,-700.33 951.5,-700.33 951.5,-704.17 947.67,-708 943.83,-708"/>
<text text-anchor="middle" x="857.5" y="-692.8" font-family="Arial" font-size="14.00" fill="#c6c5fe">ControlPanel/StaticEvent.js</text>
</g>
<!-- ControlPanel/ControlPanel.js&#45;&gt;ControlPanel/StaticEvent.js -->
<g id="edge1" class="edge">
<title>ControlPanel/ControlPanel.js&#45;&gt;ControlPanel/StaticEvent.js</title>
<path fill="none" stroke="#757575" d="M671.69,-709.56C698.02,-707.7 726.56,-705.68 753.16,-703.8"/>
<polygon fill="#757575" stroke="#757575" points="753.52,-707.29 763.25,-703.09 753.03,-700.3 753.52,-707.29"/>
</g>
<!-- ControlPanel/TaskManager.js -->
<g id="node3" class="node">
<title>ControlPanel/TaskManager.js</title>
<path fill="none" stroke="#c6c5fe" d="M1245.33,-730C1245.33,-730 1058.67,-730 1058.67,-730 1054.83,-730 1051,-726.17 1051,-722.33 1051,-722.33 1051,-714.67 1051,-714.67 1051,-710.83 1054.83,-707 1058.67,-707 1058.67,-707 1245.33,-707 1245.33,-707 1249.17,-707 1253,-710.83 1253,-714.67 1253,-714.67 1253,-722.33 1253,-722.33 1253,-726.17 1249.17,-730 1245.33,-730"/>
<text text-anchor="middle" x="1152" y="-714.8" font-family="Arial" font-size="14.00" fill="#c6c5fe">ControlPanel/TaskManager.js</text>
</g>
<!-- ControlPanel/ControlPanel.js&#45;&gt;ControlPanel/TaskManager.js -->
<g id="edge2" class="edge">
<title>ControlPanel/ControlPanel.js&#45;&gt;ControlPanel/TaskManager.js</title>
<path fill="none" stroke="#757575" d="M671.79,-717.16C693.59,-717.29 716.58,-717.41 738,-717.5 840.56,-717.94 957.44,-718.2 1040.62,-718.34"/>
<polygon fill="#757575" stroke="#757575" points="1040.85,-721.84 1050.85,-718.36 1040.86,-714.84 1040.85,-721.84"/>
</g>
<!-- utils/EventHub.js -->
<g id="node4" class="node">
<title>utils/EventHub.js</title>
<path fill="none" stroke="#cfffac" d="M1711.33,-786C1711.33,-786 1605.67,-786 1605.67,-786 1601.83,-786 1598,-782.17 1598,-778.33 1598,-778.33 1598,-770.67 1598,-770.67 1598,-766.83 1601.83,-763 1605.67,-763 1605.67,-763 1711.33,-763 1711.33,-763 1715.17,-763 1719,-766.83 1719,-770.67 1719,-770.67 1719,-778.33 1719,-778.33 1719,-782.17 1715.17,-786 1711.33,-786"/>
<text text-anchor="middle" x="1658.5" y="-770.8" font-family="Arial" font-size="14.00" fill="#cfffac">utils/EventHub.js</text>
</g>
<!-- ControlPanel/ControlPanel.js&#45;&gt;utils/EventHub.js -->
<g id="edge3" class="edge">
<title>ControlPanel/ControlPanel.js&#45;&gt;utils/EventHub.js</title>
<path fill="none" stroke="#757575" d="M671.74,-726.17C693.54,-728.12 716.54,-730.02 738,-731.5 1054.77,-753.34 1433.7,-767.18 1587.5,-772.28"/>
<polygon fill="#757575" stroke="#757575" points="1587.63,-775.79 1597.74,-772.62 1587.86,-768.79 1587.63,-775.79"/>
</g>
<!-- utils/functionQueue.js -->
<g id="node5" class="node">
<title>utils/functionQueue.js</title>
<path fill="none" stroke="#cfffac" d="M925.83,-667C925.83,-667 789.17,-667 789.17,-667 785.33,-667 781.5,-663.17 781.5,-659.33 781.5,-659.33 781.5,-651.67 781.5,-651.67 781.5,-647.83 785.33,-644 789.17,-644 789.17,-644 925.83,-644 925.83,-644 929.67,-644 933.5,-647.83 933.5,-651.67 933.5,-651.67 933.5,-659.33 933.5,-659.33 933.5,-663.17 929.67,-667 925.83,-667"/>
<text text-anchor="middle" x="857.5" y="-651.8" font-family="Arial" font-size="14.00" fill="#cfffac">utils/functionQueue.js</text>
</g>
<!-- ControlPanel/ControlPanel.js&#45;&gt;utils/functionQueue.js -->
<g id="edge4" class="edge">
<title>ControlPanel/ControlPanel.js&#45;&gt;utils/functionQueue.js</title>
<path fill="none" stroke="#757575" d="M617.66,-704.96C650.68,-696.53 697.01,-685.11 738,-676.5 750.63,-673.85 764.06,-671.25 777.17,-668.84"/>
<polygon fill="#757575" stroke="#757575" points="777.9,-672.27 787.12,-667.04 776.65,-665.38 777.9,-672.27"/>
</g>
<!-- utils/pauseToggle.js -->
<g id="node6" class="node">
<title>utils/pauseToggle.js</title>
<path fill="none" stroke="#cfffac" d="M921.33,-826C921.33,-826 793.67,-826 793.67,-826 789.83,-826 786,-822.17 786,-818.33 786,-818.33 786,-810.67 786,-810.67 786,-806.83 789.83,-803 793.67,-803 793.67,-803 921.33,-803 921.33,-803 925.17,-803 929,-806.83 929,-810.67 929,-810.67 929,-818.33 929,-818.33 929,-822.17 925.17,-826 921.33,-826"/>
<text text-anchor="middle" x="857.5" y="-810.8" font-family="Arial" font-size="14.00" fill="#cfffac">utils/pauseToggle.js</text>
</g>
<!-- ControlPanel/ControlPanel.js&#45;&gt;utils/pauseToggle.js -->
<g id="edge5" class="edge">
<title>ControlPanel/ControlPanel.js&#45;&gt;utils/pauseToggle.js</title>
<path fill="none" stroke="#757575" d="M596.1,-728.1C627.3,-743.71 685.67,-771.49 738,-788.5 752.38,-793.17 768.01,-797.27 783.06,-800.75"/>
<polygon fill="#757575" stroke="#757575" points="782.32,-804.17 792.85,-802.94 783.86,-797.34 782.32,-804.17"/>
</g>
<!-- TaskSystem/TaskGroup.js -->
<g id="node7" class="node">
<title>TaskSystem/TaskGroup.js</title>
<path fill="none" stroke="#c6c5fe" d="M1236.33,-628C1236.33,-628 1067.67,-628 1067.67,-628 1063.83,-628 1060,-624.17 1060,-620.33 1060,-620.33 1060,-612.67 1060,-612.67 1060,-608.83 1063.83,-605 1067.67,-605 1067.67,-605 1236.33,-605 1236.33,-605 1240.17,-605 1244,-608.83 1244,-612.67 1244,-612.67 1244,-620.33 1244,-620.33 1244,-624.17 1240.17,-628 1236.33,-628"/>
<text text-anchor="middle" x="1152" y="-612.8" font-family="Arial" font-size="14.00" fill="#c6c5fe">TaskSystem/TaskGroup.js</text>
</g>
<!-- ControlPanel/StaticEvent.js&#45;&gt;TaskSystem/TaskGroup.js -->
<g id="edge6" class="edge">
<title>ControlPanel/StaticEvent.js&#45;&gt;TaskSystem/TaskGroup.js</title>
<path fill="none" stroke="#757575" d="M937.92,-684.96C951.05,-682.52 964.47,-679.7 977,-676.5 1024.69,-664.34 1077.98,-645.09 1112.87,-631.69"/>
<polygon fill="#757575" stroke="#757575" points="1114.14,-634.95 1122.2,-628.08 1111.61,-628.42 1114.14,-634.95"/>
</g>
<!-- TaskSystem/Task.js -->
<g id="node8" class="node">
<title>TaskSystem/Task.js</title>
<path fill="none" stroke="#c6c5fe" d="M1492.83,-730C1492.83,-730 1364.17,-730 1364.17,-730 1360.33,-730 1356.5,-726.17 1356.5,-722.33 1356.5,-722.33 1356.5,-714.67 1356.5,-714.67 1356.5,-710.83 1360.33,-707 1364.17,-707 1364.17,-707 1492.83,-707 1492.83,-707 1496.67,-707 1500.5,-710.83 1500.5,-714.67 1500.5,-714.67 1500.5,-722.33 1500.5,-722.33 1500.5,-726.17 1496.67,-730 1492.83,-730"/>
<text text-anchor="middle" x="1428.5" y="-714.8" font-family="Arial" font-size="14.00" fill="#c6c5fe">TaskSystem/Task.js</text>
</g>
<!-- ControlPanel/TaskManager.js&#45;&gt;TaskSystem/Task.js -->
<g id="edge7" class="edge">
<title>ControlPanel/TaskManager.js&#45;&gt;TaskSystem/Task.js</title>
<path fill="none" stroke="#757575" d="M1253.27,-718.5C1283.82,-718.5 1317.01,-718.5 1346.15,-718.5"/>
<polygon fill="#757575" stroke="#757575" points="1346.28,-722 1356.28,-718.5 1346.28,-715 1346.28,-722"/>
</g>
<!-- TaskSystem/TaskGroup.js&#45;&gt;TaskSystem/Task.js -->
<g id="edge20" class="edge">
<title>TaskSystem/TaskGroup.js&#45;&gt;TaskSystem/Task.js</title>
<path fill="none" stroke="#757575" d="M1227.14,-628.05C1248.12,-632.4 1270.76,-638.13 1291,-645.5 1331.21,-660.14 1374.21,-684.81 1400.97,-701.37"/>
<polygon fill="#757575" stroke="#757575" points="1399.39,-704.51 1409.72,-706.86 1403.11,-698.58 1399.39,-704.51"/>
</g>
<!-- TaskSystem/Task.js&#45;&gt;utils/EventHub.js -->
<g id="edge19" class="edge">
<title>TaskSystem/Task.js&#45;&gt;utils/EventHub.js</title>
<path fill="none" stroke="#757575" d="M1476.47,-730.04C1512.48,-738.88 1562.35,-751.13 1600.63,-760.53"/>
<polygon fill="#757575" stroke="#757575" points="1600.05,-763.99 1610.6,-762.98 1601.72,-757.2 1600.05,-763.99"/>
</g>
<!-- TaskSystem/Data.js -->
<g id="node16" class="node">
<title>TaskSystem/Data.js</title>
<path fill="none" stroke="#cfffac" d="M1722.33,-694C1722.33,-694 1594.67,-694 1594.67,-694 1590.83,-694 1587,-690.17 1587,-686.33 1587,-686.33 1587,-678.67 1587,-678.67 1587,-674.83 1590.83,-671 1594.67,-671 1594.67,-671 1722.33,-671 1722.33,-671 1726.17,-671 1730,-674.83 1730,-678.67 1730,-678.67 1730,-686.33 1730,-686.33 1730,-690.17 1726.17,-694 1722.33,-694"/>
<text text-anchor="middle" x="1658.5" y="-678.8" font-family="Arial" font-size="14.00" fill="#cfffac">TaskSystem/Data.js</text>
</g>
<!-- TaskSystem/Task.js&#45;&gt;TaskSystem/Data.js -->
<g id="edge17" class="edge">
<title>TaskSystem/Task.js&#45;&gt;TaskSystem/Data.js</title>
<path fill="none" stroke="#757575" d="M1500.7,-707.26C1524.82,-703.45 1551.92,-699.17 1576.73,-695.25"/>
<polygon fill="#757575" stroke="#757575" points="1577.51,-698.67 1586.84,-693.66 1576.41,-691.76 1577.51,-698.67"/>
</g>
<!-- TaskSystem/StaticEvent.js -->
<g id="node17" class="node">
<title>TaskSystem/StaticEvent.js</title>
<path fill="none" stroke="#cfffac" d="M1743.33,-735C1743.33,-735 1573.67,-735 1573.67,-735 1569.83,-735 1566,-731.17 1566,-727.33 1566,-727.33 1566,-719.67 1566,-719.67 1566,-715.83 1569.83,-712 1573.67,-712 1573.67,-712 1743.33,-712 1743.33,-712 1747.17,-712 1751,-715.83 1751,-719.67 1751,-719.67 1751,-727.33 1751,-727.33 1751,-731.17 1747.17,-735 1743.33,-735"/>
<text text-anchor="middle" x="1658.5" y="-719.8" font-family="Arial" font-size="14.00" fill="#cfffac">TaskSystem/StaticEvent.js</text>
</g>
<!-- TaskSystem/Task.js&#45;&gt;TaskSystem/StaticEvent.js -->
<g id="edge18" class="edge">
<title>TaskSystem/Task.js&#45;&gt;TaskSystem/StaticEvent.js</title>
<path fill="none" stroke="#757575" d="M1500.7,-720.06C1518.12,-720.44 1537.1,-720.86 1555.64,-721.27"/>
<polygon fill="#757575" stroke="#757575" points="1555.81,-724.77 1565.89,-721.49 1555.97,-717.77 1555.81,-724.77"/>
</g>
<!-- ControlPanel/index.js -->
<g id="node9" class="node">
<title>ControlPanel/index.js</title>
<path fill="none" stroke="#c6c5fe" d="M395.83,-722C395.83,-722 261.17,-722 261.17,-722 257.33,-722 253.5,-718.17 253.5,-714.33 253.5,-714.33 253.5,-706.67 253.5,-706.67 253.5,-702.83 257.33,-699 261.17,-699 261.17,-699 395.83,-699 395.83,-699 399.67,-699 403.5,-702.83 403.5,-706.67 403.5,-706.67 403.5,-714.33 403.5,-714.33 403.5,-718.17 399.67,-722 395.83,-722"/>
<text text-anchor="middle" x="328.5" y="-706.8" font-family="Arial" font-size="14.00" fill="#c6c5fe">ControlPanel/index.js</text>
</g>
<!-- ControlPanel/index.js&#45;&gt;ControlPanel/ControlPanel.js -->
<g id="edge8" class="edge">
<title>ControlPanel/index.js&#45;&gt;ControlPanel/ControlPanel.js</title>
<path fill="none" stroke="#757575" d="M403.75,-712.34C422.53,-712.81 443.09,-713.32 463.17,-713.81"/>
<polygon fill="#757575" stroke="#757575" points="463.22,-717.32 473.3,-714.07 463.39,-710.32 463.22,-717.32"/>
</g>
<!-- Errors/errors.js -->
<g id="node10" class="node">
<title>Errors/errors.js</title>
<path fill="none" stroke="#cfffac" d="M1199.83,-544C1199.83,-544 1104.17,-544 1104.17,-544 1100.33,-544 1096.5,-540.17 1096.5,-536.33 1096.5,-536.33 1096.5,-528.67 1096.5,-528.67 1096.5,-524.83 1100.33,-521 1104.17,-521 1104.17,-521 1199.83,-521 1199.83,-521 1203.67,-521 1207.5,-524.83 1207.5,-528.67 1207.5,-528.67 1207.5,-536.33 1207.5,-536.33 1207.5,-540.17 1203.67,-544 1199.83,-544"/>
<text text-anchor="middle" x="1152" y="-528.8" font-family="Arial" font-size="14.00" fill="#cfffac">Errors/errors.js</text>
</g>
<!-- Pipeline/PluginSystem.js -->
<g id="node11" class="node">
<title>Pipeline/PluginSystem.js</title>
<path fill="none" stroke="#c6c5fe" d="M651.33,-544C651.33,-544 493.67,-544 493.67,-544 489.83,-544 486,-540.17 486,-536.33 486,-536.33 486,-528.67 486,-528.67 486,-524.83 489.83,-521 493.67,-521 493.67,-521 651.33,-521 651.33,-521 655.17,-521 659,-524.83 659,-528.67 659,-528.67 659,-536.33 659,-536.33 659,-540.17 655.17,-544 651.33,-544"/>
<text text-anchor="middle" x="572.5" y="-528.8" font-family="Arial" font-size="14.00" fill="#c6c5fe">Pipeline/PluginSystem.js</text>
</g>
<!-- Pipeline/PluginSystem.js&#45;&gt;Errors/errors.js -->
<g id="edge9" class="edge">
<title>Pipeline/PluginSystem.js&#45;&gt;Errors/errors.js</title>
<path fill="none" stroke="#757575" d="M647.83,-520.98C676,-517.15 708.41,-513.38 738,-511.5 844.01,-504.76 870.97,-505.12 977,-511.5 1013.18,-513.68 1053.36,-518.37 1085.98,-522.77"/>
<polygon fill="#757575" stroke="#757575" points="1085.91,-526.3 1096.3,-524.19 1086.86,-519.36 1085.91,-526.3"/>
</g>
<!-- utils/createUUID.js -->
<g id="node12" class="node">
<title>utils/createUUID.js</title>
<path fill="none" stroke="#cfffac" d="M916.83,-544C916.83,-544 798.17,-544 798.17,-544 794.33,-544 790.5,-540.17 790.5,-536.33 790.5,-536.33 790.5,-528.67 790.5,-528.67 790.5,-524.83 794.33,-521 798.17,-521 798.17,-521 916.83,-521 916.83,-521 920.67,-521 924.5,-524.83 924.5,-528.67 924.5,-528.67 924.5,-536.33 924.5,-536.33 924.5,-540.17 920.67,-544 916.83,-544"/>
<text text-anchor="middle" x="857.5" y="-528.8" font-family="Arial" font-size="14.00" fill="#cfffac">utils/createUUID.js</text>
</g>
<!-- Pipeline/PluginSystem.js&#45;&gt;utils/createUUID.js -->
<g id="edge10" class="edge">
<title>Pipeline/PluginSystem.js&#45;&gt;utils/createUUID.js</title>
<path fill="none" stroke="#757575" d="M659.18,-532.5C697.69,-532.5 742.78,-532.5 780.12,-532.5"/>
<polygon fill="#757575" stroke="#757575" points="780.44,-536 790.44,-532.5 780.44,-529 780.44,-536"/>
</g>
<!-- Pipeline/index.js -->
<g id="node13" class="node">
<title>Pipeline/index.js</title>
<path fill="none" stroke="#c6c5fe" d="M624.33,-667C624.33,-667 520.67,-667 520.67,-667 516.83,-667 513,-663.17 513,-659.33 513,-659.33 513,-651.67 513,-651.67 513,-647.83 516.83,-644 520.67,-644 520.67,-644 624.33,-644 624.33,-644 628.17,-644 632,-647.83 632,-651.67 632,-651.67 632,-659.33 632,-659.33 632,-663.17 628.17,-667 624.33,-667"/>
<text text-anchor="middle" x="572.5" y="-651.8" font-family="Arial" font-size="14.00" fill="#c6c5fe">Pipeline/index.js</text>
</g>
<!-- Pipeline/index.js&#45;&gt;utils/functionQueue.js -->
<g id="edge12" class="edge">
<title>Pipeline/index.js&#45;&gt;utils/functionQueue.js</title>
<path fill="none" stroke="#757575" d="M632.14,-655.5C672.33,-655.5 726.28,-655.5 771.21,-655.5"/>
<polygon fill="#757575" stroke="#757575" points="771.24,-659 781.24,-655.5 771.24,-652 771.24,-659"/>
</g>
<!-- Pipeline/index.js&#45;&gt;utils/createUUID.js -->
<g id="edge11" class="edge">
<title>Pipeline/index.js&#45;&gt;utils/createUUID.js</title>
<path fill="none" stroke="#757575" d="M606.13,-643.98C633.39,-633.4 672.42,-615.98 702,-593.5 721.31,-578.83 716.82,-564.31 738,-552.5 750.88,-545.32 765.68,-540.58 780.36,-537.48"/>
<polygon fill="#757575" stroke="#757575" points="781.3,-540.86 790.48,-535.58 780.01,-533.98 781.3,-540.86"/>
</g>
<!-- Spider/index.js -->
<g id="node14" class="node">
<title>Spider/index.js</title>
<path fill="none" stroke="#c6c5fe" d="M204.83,-722C204.83,-722 110.17,-722 110.17,-722 106.33,-722 102.5,-718.17 102.5,-714.33 102.5,-714.33 102.5,-706.67 102.5,-706.67 102.5,-702.83 106.33,-699 110.17,-699 110.17,-699 204.83,-699 204.83,-699 208.67,-699 212.5,-702.83 212.5,-706.67 212.5,-706.67 212.5,-714.33 212.5,-714.33 212.5,-718.17 208.67,-722 204.83,-722"/>
<text text-anchor="middle" x="157.5" y="-706.8" font-family="Arial" font-size="14.00" fill="#c6c5fe">Spider/index.js</text>
</g>
<!-- Spider/index.js&#45;&gt;utils/EventHub.js -->
<g id="edge16" class="edge">
<title>Spider/index.js&#45;&gt;utils/EventHub.js</title>
<path fill="none" stroke="#757575" d="M172.17,-722.02C189.3,-735.9 220.07,-759.04 250,-772.5 384.49,-832.98 424.04,-854.5 571.5,-854.5 571.5,-854.5 571.5,-854.5 1153,-854.5 1319.47,-854.5 1513.06,-811.49 1604.49,-788.54"/>
<polygon fill="#757575" stroke="#757575" points="1605.5,-791.89 1614.34,-786.05 1603.79,-785.11 1605.5,-791.89"/>
</g>
<!-- Spider/index.js&#45;&gt;ControlPanel/index.js -->
<g id="edge13" class="edge">
<title>Spider/index.js&#45;&gt;ControlPanel/index.js</title>
<path fill="none" stroke="#757575" d="M212.9,-710.5C222.6,-710.5 232.91,-710.5 243.21,-710.5"/>
<polygon fill="#757575" stroke="#757575" points="243.49,-714 253.49,-710.5 243.49,-707 243.49,-714"/>
</g>
<!-- Spider/index.js&#45;&gt;Pipeline/index.js -->
<g id="edge14" class="edge">
<title>Spider/index.js&#45;&gt;Pipeline/index.js</title>
<path fill="none" stroke="#757575" d="M206.75,-698.94C220.65,-695.89 235.88,-692.81 250,-690.5 336.66,-676.35 437.41,-666.43 502.71,-660.85"/>
<polygon fill="#757575" stroke="#757575" points="503.2,-664.32 512.87,-659.99 502.61,-657.34 503.2,-664.32"/>
</g>
<!-- Spider/staticEvent.js -->
<g id="node15" class="node">
<title>Spider/staticEvent.js</title>
<path fill="none" stroke="#cfffac" d="M393.83,-763C393.83,-763 263.17,-763 263.17,-763 259.33,-763 255.5,-759.17 255.5,-755.33 255.5,-755.33 255.5,-747.67 255.5,-747.67 255.5,-743.83 259.33,-740 263.17,-740 263.17,-740 393.83,-740 393.83,-740 397.67,-740 401.5,-743.83 401.5,-747.67 401.5,-747.67 401.5,-755.33 401.5,-755.33 401.5,-759.17 397.67,-763 393.83,-763"/>
<text text-anchor="middle" x="328.5" y="-747.8" font-family="Arial" font-size="14.00" fill="#cfffac">Spider/staticEvent.js</text>
</g>
<!-- Spider/index.js&#45;&gt;Spider/staticEvent.js -->
<g id="edge15" class="edge">
<title>Spider/index.js&#45;&gt;Spider/staticEvent.js</title>
<path fill="none" stroke="#757575" d="M206.03,-722.03C226,-726.88 249.41,-732.55 270.32,-737.63"/>
<polygon fill="#757575" stroke="#757575" points="269.5,-741.03 280.04,-739.99 271.15,-734.23 269.5,-741.03"/>
</g>
<!-- TaskSystem/index.js -->
<g id="node18" class="node">
<title>TaskSystem/index.js</title>
<path fill="none" stroke="#c6c5fe" d="M923.33,-626C923.33,-626 791.67,-626 791.67,-626 787.83,-626 784,-622.17 784,-618.33 784,-618.33 784,-610.67 784,-610.67 784,-606.83 787.83,-603 791.67,-603 791.67,-603 923.33,-603 923.33,-603 927.17,-603 931,-606.83 931,-610.67 931,-610.67 931,-618.33 931,-618.33 931,-622.17 927.17,-626 923.33,-626"/>
<text text-anchor="middle" x="857.5" y="-610.8" font-family="Arial" font-size="14.00" fill="#c6c5fe">TaskSystem/index.js</text>
</g>
<!-- TaskSystem/index.js&#45;&gt;TaskSystem/TaskGroup.js -->
<g id="edge22" class="edge">
<title>TaskSystem/index.js&#45;&gt;TaskSystem/TaskGroup.js</title>
<path fill="none" stroke="#757575" d="M931.18,-615C966.9,-615.24 1010.54,-615.54 1049.5,-615.81"/>
<polygon fill="#757575" stroke="#757575" points="1049.79,-619.31 1059.82,-615.88 1049.84,-612.31 1049.79,-619.31"/>
</g>
<!-- TaskSystem/index.js&#45;&gt;TaskSystem/Task.js -->
<g id="edge21" class="edge">
<title>TaskSystem/index.js&#45;&gt;TaskSystem/Task.js</title>
<path fill="none" stroke="#757575" d="M924.02,-626.03C941.26,-629.08 959.83,-632.4 977,-635.5 1110.76,-659.67 1266.71,-688.56 1355.61,-705.1"/>
<polygon fill="#757575" stroke="#757575" points="1355.11,-708.57 1365.58,-706.95 1356.39,-701.68 1355.11,-708.57"/>
</g>
<!-- index.js -->
<g id="node19" class="node">
<title>index.js</title>
<path fill="none" stroke="#c6c5fe" d="M57.33,-544C57.33,-544 7.67,-544 7.67,-544 3.83,-544 0,-540.17 0,-536.33 0,-536.33 0,-528.67 0,-528.67 0,-524.83 3.83,-521 7.67,-521 7.67,-521 57.33,-521 57.33,-521 61.17,-521 65,-524.83 65,-528.67 65,-528.67 65,-536.33 65,-536.33 65,-540.17 61.17,-544 57.33,-544"/>
<text text-anchor="middle" x="32.5" y="-528.8" font-family="Arial" font-size="14.00" fill="#c6c5fe">index.js</text>
</g>
<!-- index.js&#45;&gt;Pipeline/PluginSystem.js -->
<g id="edge23" class="edge">
<title>index.js&#45;&gt;Pipeline/PluginSystem.js</title>
<path fill="none" stroke="#757575" d="M65.15,-532.5C144.07,-532.5 352.13,-532.5 475.6,-532.5"/>
<polygon fill="#757575" stroke="#757575" points="475.81,-536 485.81,-532.5 475.81,-529 475.81,-536"/>
</g>
<!-- index.js&#45;&gt;Spider/index.js -->
<g id="edge24" class="edge">
<title>index.js&#45;&gt;Spider/index.js</title>
<path fill="none" stroke="#757575" d="M41.57,-544.18C62.07,-573.84 116.34,-652.38 142.29,-689.93"/>
<polygon fill="#757575" stroke="#757575" points="139.67,-692.31 148.24,-698.54 145.43,-688.33 139.67,-692.31"/>
</g>
<!-- index.js&#45;&gt;TaskSystem/index.js -->
<g id="edge25" class="edge">
<title>index.js&#45;&gt;TaskSystem/index.js</title>
<path fill="none" stroke="#757575" d="M65.26,-543.83C107.02,-558.14 182.93,-582.14 250,-592.5 435.23,-621.12 655.87,-620.59 773.28,-617.6"/>
<polygon fill="#757575" stroke="#757575" points="773.73,-621.09 783.63,-617.32 773.54,-614.09 773.73,-621.09"/>
</g>
<!-- plugins/index.js -->
<g id="node20" class="node">
<title>plugins/index.js</title>
<path fill="none" stroke="#c6c5fe" d="M206.33,-504C206.33,-504 108.67,-504 108.67,-504 104.83,-504 101,-500.17 101,-496.33 101,-496.33 101,-488.67 101,-488.67 101,-484.83 104.83,-481 108.67,-481 108.67,-481 206.33,-481 206.33,-481 210.17,-481 214,-484.83 214,-488.67 214,-488.67 214,-496.33 214,-496.33 214,-500.17 210.17,-504 206.33,-504"/>
<text text-anchor="middle" x="157.5" y="-488.8" font-family="Arial" font-size="14.00" fill="#c6c5fe">plugins/index.js</text>
</g>
<!-- index.js&#45;&gt;plugins/index.js -->
<g id="edge26" class="edge">
<title>index.js&#45;&gt;plugins/index.js</title>
<path fill="none" stroke="#757575" d="M65.18,-522.2C79.19,-517.64 95.93,-512.2 111.23,-507.22"/>
<polygon fill="#757575" stroke="#757575" points="112.6,-510.46 121.03,-504.04 110.43,-503.8 112.6,-510.46"/>
</g>
<!-- tools/index.js -->
<g id="node21" class="node">
<title>tools/index.js</title>
<path fill="none" stroke="#c6c5fe" d="M370.33,-245C370.33,-245 286.67,-245 286.67,-245 282.83,-245 279,-241.17 279,-237.33 279,-237.33 279,-229.67 279,-229.67 279,-225.83 282.83,-222 286.67,-222 286.67,-222 370.33,-222 370.33,-222 374.17,-222 378,-225.83 378,-229.67 378,-229.67 378,-237.33 378,-237.33 378,-241.17 374.17,-245 370.33,-245"/>
<text text-anchor="middle" x="328.5" y="-229.8" font-family="Arial" font-size="14.00" fill="#c6c5fe">tools/index.js</text>
</g>
<!-- index.js&#45;&gt;tools/index.js -->
<g id="edge27" class="edge">
<title>index.js&#45;&gt;tools/index.js</title>
<path fill="none" stroke="#757575" d="M45.03,-520.78C89.94,-475.1 253.52,-308.74 308.97,-252.34"/>
<polygon fill="#757575" stroke="#757575" points="311.54,-254.72 316.05,-245.14 306.55,-249.82 311.54,-254.72"/>
</g>
<!-- plugins/Download.js -->
<g id="node22" class="node">
<title>plugins/Download.js</title>
<path fill="none" stroke="#c6c5fe" d="M392.33,-463C392.33,-463 264.67,-463 264.67,-463 260.83,-463 257,-459.17 257,-455.33 257,-455.33 257,-447.67 257,-447.67 257,-443.83 260.83,-440 264.67,-440 264.67,-440 392.33,-440 392.33,-440 396.17,-440 400,-443.83 400,-447.67 400,-447.67 400,-455.33 400,-455.33 400,-459.17 396.17,-463 392.33,-463"/>
<text text-anchor="middle" x="328.5" y="-447.8" font-family="Arial" font-size="14.00" fill="#c6c5fe">plugins/Download.js</text>
</g>
<!-- plugins/index.js&#45;&gt;plugins/Download.js -->
<g id="edge39" class="edge">
<title>plugins/index.js&#45;&gt;plugins/Download.js</title>
<path fill="none" stroke="#757575" d="M206.03,-480.97C226,-476.12 249.41,-470.45 270.32,-465.37"/>
<polygon fill="#757575" stroke="#757575" points="271.15,-468.77 280.04,-463.01 269.5,-461.97 271.15,-468.77"/>
</g>
<!-- plugins/ExcelHelper.js -->
<g id="node24" class="node">
<title>plugins/ExcelHelper.js</title>
<path fill="none" stroke="#c6c5fe" d="M399.33,-504C399.33,-504 257.67,-504 257.67,-504 253.83,-504 250,-500.17 250,-496.33 250,-496.33 250,-488.67 250,-488.67 250,-484.83 253.83,-481 257.67,-481 257.67,-481 399.33,-481 399.33,-481 403.17,-481 407,-484.83 407,-488.67 407,-488.67 407,-496.33 407,-496.33 407,-500.17 403.17,-504 399.33,-504"/>
<text text-anchor="middle" x="328.5" y="-488.8" font-family="Arial" font-size="14.00" fill="#c6c5fe">plugins/ExcelHelper.js</text>
</g>
<!-- plugins/index.js&#45;&gt;plugins/ExcelHelper.js -->
<g id="edge40" class="edge">
<title>plugins/index.js&#45;&gt;plugins/ExcelHelper.js</title>
<path fill="none" stroke="#757575" d="M214.31,-492.5C222.46,-492.5 231.02,-492.5 239.62,-492.5"/>
<polygon fill="#757575" stroke="#757575" points="239.73,-496 249.73,-492.5 239.73,-489 239.73,-496"/>
</g>
<!-- plugins/Request.js -->
<g id="node30" class="node">
<title>plugins/Request.js</title>
<path fill="none" stroke="#c6c5fe" d="M387.83,-584C387.83,-584 269.17,-584 269.17,-584 265.33,-584 261.5,-580.17 261.5,-576.33 261.5,-576.33 261.5,-568.67 261.5,-568.67 261.5,-564.83 265.33,-561 269.17,-561 269.17,-561 387.83,-561 387.83,-561 391.67,-561 395.5,-564.83 395.5,-568.67 395.5,-568.67 395.5,-576.33 395.5,-576.33 395.5,-580.17 391.67,-584 387.83,-584"/>
<text text-anchor="middle" x="328.5" y="-568.8" font-family="Arial" font-size="14.00" fill="#c6c5fe">plugins/Request.js</text>
</g>
<!-- plugins/index.js&#45;&gt;plugins/Request.js -->
<g id="edge41" class="edge">
<title>plugins/index.js&#45;&gt;plugins/Request.js</title>
<path fill="none" stroke="#757575" d="M183.07,-504.13C212.32,-517.98 261.3,-541.16 294,-556.64"/>
<polygon fill="#757575" stroke="#757575" points="292.63,-559.87 303.17,-560.98 295.63,-553.54 292.63,-559.87"/>
</g>
<!-- plugins/zipFile.js -->
<g id="node32" class="node">
<title>plugins/zipFile.js</title>
<path fill="none" stroke="#c6c5fe" d="M381.33,-402C381.33,-402 275.67,-402 275.67,-402 271.83,-402 268,-398.17 268,-394.33 268,-394.33 268,-386.67 268,-386.67 268,-382.83 271.83,-379 275.67,-379 275.67,-379 381.33,-379 381.33,-379 385.17,-379 389,-382.83 389,-386.67 389,-386.67 389,-394.33 389,-394.33 389,-398.17 385.17,-402 381.33,-402"/>
<text text-anchor="middle" x="328.5" y="-386.8" font-family="Arial" font-size="14.00" fill="#c6c5fe">plugins/zipFile.js</text>
</g>
<!-- plugins/index.js&#45;&gt;plugins/zipFile.js -->
<g id="edge42" class="edge">
<title>plugins/index.js&#45;&gt;plugins/zipFile.js</title>
<path fill="none" stroke="#757575" d="M174.32,-480.93C192.27,-468.01 222.61,-446.77 250,-430.5 264.17,-422.08 280.31,-413.59 294.17,-406.61"/>
<polygon fill="#757575" stroke="#757575" points="295.97,-409.62 303.36,-402.03 292.85,-403.36 295.97,-409.62"/>
</g>
<!-- tools/loader/loader.js -->
<g id="node27" class="node">
<title>tools/loader/loader.js</title>
<path fill="none" stroke="#c6c5fe" d="M1218.83,-265C1218.83,-265 1085.17,-265 1085.17,-265 1081.33,-265 1077.5,-261.17 1077.5,-257.33 1077.5,-257.33 1077.5,-249.67 1077.5,-249.67 1077.5,-245.83 1081.33,-242 1085.17,-242 1085.17,-242 1218.83,-242 1218.83,-242 1222.67,-242 1226.5,-245.83 1226.5,-249.67 1226.5,-249.67 1226.5,-257.33 1226.5,-257.33 1226.5,-261.17 1222.67,-265 1218.83,-265"/>
<text text-anchor="middle" x="1152" y="-249.8" font-family="Arial" font-size="14.00" fill="#c6c5fe">tools/loader/loader.js</text>
</g>
<!-- tools/index.js&#45;&gt;tools/loader/loader.js -->
<g id="edge60" class="edge">
<title>tools/index.js&#45;&gt;tools/loader/loader.js</title>
<path fill="none" stroke="#757575" d="M378.12,-234.68C513.57,-237.98 896.4,-247.3 1067.07,-251.46"/>
<polygon fill="#757575" stroke="#757575" points="1067.18,-254.96 1077.26,-251.7 1067.35,-247.96 1067.18,-254.96"/>
</g>
<!-- tools/Mock/Mock.js -->
<g id="node33" class="node">
<title>tools/Mock/Mock.js</title>
<path fill="none" stroke="#c6c5fe" d="M633.33,-225C633.33,-225 511.67,-225 511.67,-225 507.83,-225 504,-221.17 504,-217.33 504,-217.33 504,-209.67 504,-209.67 504,-205.83 507.83,-202 511.67,-202 511.67,-202 633.33,-202 633.33,-202 637.17,-202 641,-205.83 641,-209.67 641,-209.67 641,-217.33 641,-217.33 641,-221.17 637.17,-225 633.33,-225"/>
<text text-anchor="middle" x="572.5" y="-209.8" font-family="Arial" font-size="14.00" fill="#c6c5fe">tools/Mock/Mock.js</text>
</g>
<!-- tools/index.js&#45;&gt;tools/Mock/Mock.js -->
<g id="edge58" class="edge">
<title>tools/index.js&#45;&gt;tools/Mock/Mock.js</title>
<path fill="none" stroke="#757575" d="M378.18,-229.48C411.25,-226.74 455.7,-223.07 493.64,-219.93"/>
<polygon fill="#757575" stroke="#757575" points="493.97,-223.42 503.65,-219.11 493.39,-216.44 493.97,-223.42"/>
</g>
<!-- tools/analysis/index.js -->
<g id="node43" class="node">
<title>tools/analysis/index.js</title>
<path fill="none" stroke="#c6c5fe" d="M641.33,-105C641.33,-105 503.67,-105 503.67,-105 499.83,-105 496,-101.17 496,-97.33 496,-97.33 496,-89.67 496,-89.67 496,-85.83 499.83,-82 503.67,-82 503.67,-82 641.33,-82 641.33,-82 645.17,-82 649,-85.83 649,-89.67 649,-89.67 649,-97.33 649,-97.33 649,-101.17 645.17,-105 641.33,-105"/>
<text text-anchor="middle" x="572.5" y="-89.8" font-family="Arial" font-size="14.00" fill="#c6c5fe">tools/analysis/index.js</text>
</g>
<!-- tools/index.js&#45;&gt;tools/analysis/index.js -->
<g id="edge59" class="edge">
<title>tools/index.js&#45;&gt;tools/analysis/index.js</title>
<path fill="none" stroke="#757575" d="M349.72,-221.8C392.62,-196.99 492.9,-138.97 542.57,-110.24"/>
<polygon fill="#757575" stroke="#757575" points="544.61,-113.1 551.51,-105.06 541.1,-107.04 544.61,-113.1"/>
</g>
<!-- plugins/Download.js&#45;&gt;Pipeline/PluginSystem.js -->
<g id="edge28" class="edge">
<title>plugins/Download.js&#45;&gt;Pipeline/PluginSystem.js</title>
<path fill="none" stroke="#757575" d="M377.26,-463C387.15,-465.62 397.45,-468.51 407,-471.5 451.04,-485.31 500.59,-504.14 533.68,-517.22"/>
<polygon fill="#757575" stroke="#757575" points="532.4,-520.47 542.98,-520.91 534.98,-513.97 532.4,-520.47"/>
</g>
<!-- plugins/utils/toFile.js -->
<g id="node23" class="node">
<title>plugins/utils/toFile.js</title>
<path fill="none" stroke="#cfffac" d="M636.33,-423C636.33,-423 508.67,-423 508.67,-423 504.83,-423 501,-419.17 501,-415.33 501,-415.33 501,-407.67 501,-407.67 501,-403.83 504.83,-400 508.67,-400 508.67,-400 636.33,-400 636.33,-400 640.17,-400 644,-403.83 644,-407.67 644,-407.67 644,-415.33 644,-415.33 644,-419.17 640.17,-423 636.33,-423"/>
<text text-anchor="middle" x="572.5" y="-407.8" font-family="Arial" font-size="14.00" fill="#cfffac">plugins/utils/toFile.js</text>
</g>
<!-- plugins/Download.js&#45;&gt;plugins/utils/toFile.js -->
<g id="edge29" class="edge">
<title>plugins/Download.js&#45;&gt;plugins/utils/toFile.js</title>
<path fill="none" stroke="#757575" d="M393.69,-439.96C409.78,-437.13 427.01,-434.15 443,-431.5 458.35,-428.95 474.74,-426.33 490.51,-423.85"/>
<polygon fill="#757575" stroke="#757575" points="491.42,-427.25 500.76,-422.25 490.34,-420.34 491.42,-427.25"/>
</g>
<!-- plugins/ExcelHelper.js&#45;&gt;Pipeline/PluginSystem.js -->
<g id="edge30" class="edge">
<title>plugins/ExcelHelper.js&#45;&gt;Pipeline/PluginSystem.js</title>
<path fill="none" stroke="#757575" d="M399.17,-504.02C428.15,-508.81 461.95,-514.39 491.9,-519.34"/>
<polygon fill="#757575" stroke="#757575" points="491.46,-522.82 501.9,-521 492.61,-515.91 491.46,-522.82"/>
</g>
<!-- plugins/ExcelHelper/createExcelFile.js -->
<g id="node25" class="node">
<title>plugins/ExcelHelper/createExcelFile.js</title>
<path fill="none" stroke="#c6c5fe" d="M694.33,-464C694.33,-464 450.67,-464 450.67,-464 446.83,-464 443,-460.17 443,-456.33 443,-456.33 443,-448.67 443,-448.67 443,-444.83 446.83,-441 450.67,-441 450.67,-441 694.33,-441 694.33,-441 698.17,-441 702,-444.83 702,-448.67 702,-448.67 702,-456.33 702,-456.33 702,-460.17 698.17,-464 694.33,-464"/>
<text text-anchor="middle" x="572.5" y="-448.8" font-family="Arial" font-size="14.00" fill="#c6c5fe">plugins/ExcelHelper/createExcelFile.js</text>
</g>
<!-- plugins/ExcelHelper.js&#45;&gt;plugins/ExcelHelper/createExcelFile.js -->
<g id="edge31" class="edge">
<title>plugins/ExcelHelper.js&#45;&gt;plugins/ExcelHelper/createExcelFile.js</title>
<path fill="none" stroke="#757575" d="M399.17,-480.98C428.15,-476.19 461.95,-470.61 491.9,-465.66"/>
<polygon fill="#757575" stroke="#757575" points="492.61,-469.09 501.9,-464 491.46,-462.18 492.61,-469.09"/>
</g>
<!-- plugins/ExcelHelper/xlsx.js -->
<g id="node26" class="node">
<title>plugins/ExcelHelper/xlsx.js</title>
<path fill="none" stroke="#c6c5fe" d="M942.33,-464C942.33,-464 772.67,-464 772.67,-464 768.83,-464 765,-460.17 765,-456.33 765,-456.33 765,-448.67 765,-448.67 765,-444.83 768.83,-441 772.67,-441 772.67,-441 942.33,-441 942.33,-441 946.17,-441 950,-444.83 950,-448.67 950,-448.67 950,-456.33 950,-456.33 950,-460.17 946.17,-464 942.33,-464"/>
<text text-anchor="middle" x="857.5" y="-448.8" font-family="Arial" font-size="14.00" fill="#c6c5fe">plugins/ExcelHelper/xlsx.js</text>
</g>
<!-- plugins/ExcelHelper.js&#45;&gt;plugins/ExcelHelper/xlsx.js -->
<g id="edge32" class="edge">
<title>plugins/ExcelHelper.js&#45;&gt;plugins/ExcelHelper/xlsx.js</title>
<path fill="none" stroke="#757575" d="M407.03,-490.03C482.46,-487.24 600.26,-481.8 702,-472.5 722.93,-470.59 745.38,-467.99 766.51,-465.31"/>
<polygon fill="#757575" stroke="#757575" points="766.97,-468.78 776.44,-464.03 766.07,-461.83 766.97,-468.78"/>
</g>
<!-- plugins/ExcelHelper/createExcelFile.js&#45;&gt;plugins/ExcelHelper/xlsx.js -->
<g id="edge33" class="edge">
<title>plugins/ExcelHelper/createExcelFile.js&#45;&gt;plugins/ExcelHelper/xlsx.js</title>
<path fill="none" stroke="#757575" d="M702.16,-452.5C719.7,-452.5 737.5,-452.5 754.47,-452.5"/>
<polygon fill="#757575" stroke="#757575" points="754.92,-456 764.92,-452.5 754.92,-449 754.92,-456"/>
</g>
<!-- plugins/ExcelHelper/xlsx.js&#45;&gt;tools/loader/loader.js -->
<g id="edge34" class="edge">
<title>plugins/ExcelHelper/xlsx.js&#45;&gt;tools/loader/loader.js</title>
<path fill="none" stroke="#757575" d="M875.49,-440.94C924.66,-407.49 1067.31,-310.44 1125.67,-270.74"/>
<polygon fill="#757575" stroke="#757575" points="1127.66,-273.61 1133.96,-265.09 1123.73,-267.82 1127.66,-273.61"/>
</g>
<!-- utils/type.js -->
<g id="node40" class="node">
<title>utils/type.js</title>
<path fill="none" stroke="#cfffac" d="M1463.83,-103C1463.83,-103 1393.17,-103 1393.17,-103 1389.33,-103 1385.5,-99.17 1385.5,-95.33 1385.5,-95.33 1385.5,-87.67 1385.5,-87.67 1385.5,-83.83 1389.33,-80 1393.17,-80 1393.17,-80 1463.83,-80 1463.83,-80 1467.67,-80 1471.5,-83.83 1471.5,-87.67 1471.5,-87.67 1471.5,-95.33 1471.5,-95.33 1471.5,-99.17 1467.67,-103 1463.83,-103"/>
<text text-anchor="middle" x="1428.5" y="-87.8" font-family="Arial" font-size="14.00" fill="#cfffac">utils/type.js</text>
</g>
<!-- tools/loader/loader.js&#45;&gt;utils/type.js -->
<g id="edge64" class="edge">
<title>tools/loader/loader.js&#45;&gt;utils/type.js</title>
<path fill="none" stroke="#757575" d="M1187.03,-241.94C1215.68,-231.58 1257.26,-215.02 1291,-195.5 1335.21,-169.92 1381.43,-131.96 1407.13,-109.67"/>
<polygon fill="#757575" stroke="#757575" points="1409.51,-112.24 1414.73,-103.02 1404.9,-106.97 1409.51,-112.24"/>
</g>
<!-- tools/loader/jsDelivr.js -->
<g id="node44" class="node">
<title>tools/loader/jsDelivr.js</title>
<path fill="none" stroke="#cfffac" d="M1498.33,-306C1498.33,-306 1358.67,-306 1358.67,-306 1354.83,-306 1351,-302.17 1351,-298.33 1351,-298.33 1351,-290.67 1351,-290.67 1351,-286.83 1354.83,-283 1358.67,-283 1358.67,-283 1498.33,-283 1498.33,-283 1502.17,-283 1506,-286.83 1506,-290.67 1506,-290.67 1506,-298.33 1506,-298.33 1506,-302.17 1502.17,-306 1498.33,-306"/>
<text text-anchor="middle" x="1428.5" y="-290.8" font-family="Arial" font-size="14.00" fill="#cfffac">tools/loader/jsDelivr.js</text>
</g>
<!-- tools/loader/loader.js&#45;&gt;tools/loader/jsDelivr.js -->
<g id="edge61" class="edge">
<title>tools/loader/loader.js&#45;&gt;tools/loader/jsDelivr.js</title>
<path fill="none" stroke="#757575" d="M1226.56,-264.49C1261.69,-269.73 1303.97,-276.05 1340.67,-281.53"/>
<polygon fill="#757575" stroke="#757575" points="1340.45,-285.04 1350.86,-283.05 1341.49,-278.11 1340.45,-285.04"/>
</g>
<!-- tools/loader/loaderFunction.js -->
<g id="node45" class="node">
<title>tools/loader/loaderFunction.js</title>
<path fill="none" stroke="#cfffac" d="M1522.33,-265C1522.33,-265 1334.67,-265 1334.67,-265 1330.83,-265 1327,-261.17 1327,-257.33 1327,-257.33 1327,-249.67 1327,-249.67 1327,-245.83 1330.83,-242 1334.67,-242 1334.67,-242 1522.33,-242 1522.33,-242 1526.17,-242 1530,-245.83 1530,-249.67 1530,-249.67 1530,-257.33 1530,-257.33 1530,-261.17 1526.17,-265 1522.33,-265"/>
<text text-anchor="middle" x="1428.5" y="-249.8" font-family="Arial" font-size="14.00" fill="#cfffac">tools/loader/loaderFunction.js</text>
</g>
<!-- tools/loader/loader.js&#45;&gt;tools/loader/loaderFunction.js -->
<g id="edge62" class="edge">
<title>tools/loader/loader.js&#45;&gt;tools/loader/loaderFunction.js</title>
<path fill="none" stroke="#757575" d="M1226.56,-253.5C1254.24,-253.5 1286.36,-253.5 1316.69,-253.5"/>
<polygon fill="#757575" stroke="#757575" points="1316.9,-257 1326.9,-253.5 1316.9,-250 1316.9,-257"/>
</g>
<!-- tools/loader/scriptStore.js -->
<g id="node46" class="node">
<title>tools/loader/scriptStore.js</title>
<path fill="none" stroke="#cfffac" d="M1509.83,-224C1509.83,-224 1347.17,-224 1347.17,-224 1343.33,-224 1339.5,-220.17 1339.5,-216.33 1339.5,-216.33 1339.5,-208.67 1339.5,-208.67 1339.5,-204.83 1343.33,-201 1347.17,-201 1347.17,-201 1509.83,-201 1509.83,-201 1513.67,-201 1517.5,-204.83 1517.5,-208.67 1517.5,-208.67 1517.5,-216.33 1517.5,-216.33 1517.5,-220.17 1513.67,-224 1509.83,-224"/>
<text text-anchor="middle" x="1428.5" y="-208.8" font-family="Arial" font-size="14.00" fill="#cfffac">tools/loader/scriptStore.js</text>
</g>
<!-- tools/loader/loader.js&#45;&gt;tools/loader/scriptStore.js -->
<g id="edge63" class="edge">
<title>tools/loader/loader.js&#45;&gt;tools/loader/scriptStore.js</title>
<path fill="none" stroke="#757575" d="M1226.56,-242.51C1261.54,-237.29 1303.62,-231 1340.21,-225.54"/>
<polygon fill="#757575" stroke="#757575" points="1341,-228.96 1350.38,-224.02 1339.97,-222.03 1341,-228.96"/>
</g>
<!-- plugins/JSzip/JSzip.js -->
<g id="node28" class="node">
<title>plugins/JSzip/JSzip.js</title>
<path fill="none" stroke="#c6c5fe" d="M926.83,-305C926.83,-305 788.17,-305 788.17,-305 784.33,-305 780.5,-301.17 780.5,-297.33 780.5,-297.33 780.5,-289.67 780.5,-289.67 780.5,-285.83 784.33,-282 788.17,-282 788.17,-282 926.83,-282 926.83,-282 930.67,-282 934.5,-285.83 934.5,-289.67 934.5,-289.67 934.5,-297.33 934.5,-297.33 934.5,-301.17 930.67,-305 926.83,-305"/>
<text text-anchor="middle" x="857.5" y="-289.8" font-family="Arial" font-size="14.00" fill="#c6c5fe">plugins/JSzip/JSzip.js</text>
</g>
<!-- plugins/JSzip/JSzip.js&#45;&gt;tools/loader/loader.js -->
<g id="edge35" class="edge">
<title>plugins/JSzip/JSzip.js&#45;&gt;tools/loader/loader.js</title>
<path fill="none" stroke="#757575" d="M934.59,-283.09C975.25,-277.53 1025.38,-270.68 1067.16,-264.97"/>
<polygon fill="#757575" stroke="#757575" points="1067.88,-268.4 1077.31,-263.58 1066.93,-261.46 1067.88,-268.4"/>
</g>
<!-- plugins/JSzip/zipper.js -->
<g id="node29" class="node">
<title>plugins/JSzip/zipper.js</title>
<path fill="none" stroke="#c6c5fe" d="M643.83,-305C643.83,-305 501.17,-305 501.17,-305 497.33,-305 493.5,-301.17 493.5,-297.33 493.5,-297.33 493.5,-289.67 493.5,-289.67 493.5,-285.83 497.33,-282 501.17,-282 501.17,-282 643.83,-282 643.83,-282 647.67,-282 651.5,-285.83 651.5,-289.67 651.5,-289.67 651.5,-297.33 651.5,-297.33 651.5,-301.17 647.67,-305 643.83,-305"/>
<text text-anchor="middle" x="572.5" y="-289.8" font-family="Arial" font-size="14.00" fill="#c6c5fe">plugins/JSzip/zipper.js</text>
</g>
<!-- plugins/JSzip/zipper.js&#45;&gt;plugins/JSzip/JSzip.js -->
<g id="edge36" class="edge">
<title>plugins/JSzip/zipper.js&#45;&gt;plugins/JSzip/JSzip.js</title>
<path fill="none" stroke="#757575" d="M651.58,-293.5C688.22,-293.5 732.01,-293.5 769.69,-293.5"/>
<polygon fill="#757575" stroke="#757575" points="770.14,-297 780.14,-293.5 770.14,-290 770.14,-297"/>
</g>
<!-- plugins/Request.js&#45;&gt;Pipeline/PluginSystem.js -->
<g id="edge37" class="edge">
<title>plugins/Request.js&#45;&gt;Pipeline/PluginSystem.js</title>
<path fill="none" stroke="#757575" d="M393.69,-560.96C409.78,-558.13 427.01,-555.15 443,-552.5 456.71,-550.23 471.26,-547.89 485.45,-545.65"/>
<polygon fill="#757575" stroke="#757575" points="486.36,-549.05 495.7,-544.04 485.28,-542.13 486.36,-549.05"/>
</g>
<!-- utils/concurrent.js -->
<g id="node31" class="node">
<title>utils/concurrent.js</title>
<path fill="none" stroke="#c6c5fe" d="M627.83,-585C627.83,-585 517.17,-585 517.17,-585 513.33,-585 509.5,-581.17 509.5,-577.33 509.5,-577.33 509.5,-569.67 509.5,-569.67 509.5,-565.83 513.33,-562 517.17,-562 517.17,-562 627.83,-562 627.83,-562 631.67,-562 635.5,-565.83 635.5,-569.67 635.5,-569.67 635.5,-577.33 635.5,-577.33 635.5,-581.17 631.67,-585 627.83,-585"/>
<text text-anchor="middle" x="572.5" y="-569.8" font-family="Arial" font-size="14.00" fill="#c6c5fe">utils/concurrent.js</text>
</g>
<!-- plugins/Request.js&#45;&gt;utils/concurrent.js -->
<g id="edge38" class="edge">
<title>plugins/Request.js&#45;&gt;utils/concurrent.js</title>
<path fill="none" stroke="#757575" d="M395.63,-572.77C427.71,-572.91 466.33,-573.07 499.2,-573.2"/>
<polygon fill="#757575" stroke="#757575" points="499.18,-576.7 509.2,-573.24 499.21,-569.7 499.18,-576.7"/>
</g>
<!-- utils/retryAndDelay.js -->
<g id="node47" class="node">
<title>utils/retryAndDelay.js</title>
<path fill="none" stroke="#c6c5fe" d="M924.33,-585C924.33,-585 790.67,-585 790.67,-585 786.83,-585 783,-581.17 783,-577.33 783,-577.33 783,-569.67 783,-569.67 783,-565.83 786.83,-562 790.67,-562 790.67,-562 924.33,-562 924.33,-562 928.17,-562 932,-565.83 932,-569.67 932,-569.67 932,-577.33 932,-577.33 932,-581.17 928.17,-585 924.33,-585"/>
<text text-anchor="middle" x="857.5" y="-569.8" font-family="Arial" font-size="14.00" fill="#c6c5fe">utils/retryAndDelay.js</text>
</g>
<!-- utils/concurrent.js&#45;&gt;utils/retryAndDelay.js -->
<g id="edge65" class="edge">
<title>utils/concurrent.js&#45;&gt;utils/retryAndDelay.js</title>
<path fill="none" stroke="#757575" d="M635.61,-573.5C675.83,-573.5 728.72,-573.5 772.66,-573.5"/>
<polygon fill="#757575" stroke="#757575" points="772.75,-577 782.75,-573.5 772.75,-570 772.75,-577"/>
</g>
<!-- plugins/zipFile.js&#45;&gt;TaskSystem/TaskGroup.js -->
<g id="edge44" class="edge">
<title>plugins/zipFile.js&#45;&gt;TaskSystem/TaskGroup.js</title>
<path fill="none" stroke="#757575" d="M389.11,-385.49C532.34,-374.78 890.44,-356.38 977,-431.5 1019.37,-468.28 976.31,-510.06 1013,-552.5 1033.7,-576.45 1065.27,-592 1093,-601.77"/>
<polygon fill="#757575" stroke="#757575" points="1092.02,-605.14 1102.62,-604.99 1094.24,-598.5 1092.02,-605.14"/>
</g>
<!-- plugins/zipFile.js&#45;&gt;Pipeline/PluginSystem.js -->
<g id="edge43" class="edge">
<title>plugins/zipFile.js&#45;&gt;Pipeline/PluginSystem.js</title>
<path fill="none" stroke="#757575" d="M358.32,-402.15C373.63,-409.1 392.28,-418.85 407,-430.5 426.28,-445.75 423.42,-457.63 443,-472.5 468.47,-491.84 501.18,-507.01 527.22,-517.25"/>
<polygon fill="#757575" stroke="#757575" points="526.26,-520.63 536.85,-520.93 528.76,-514.09 526.26,-520.63"/>
</g>
<!-- plugins/zipFile.js&#45;&gt;plugins/utils/toFile.js -->
<g id="edge47" class="edge">
<title>plugins/zipFile.js&#45;&gt;plugins/utils/toFile.js</title>
<path fill="none" stroke="#757575" d="M389.01,-395.66C419.58,-398.32 457.27,-401.59 490.45,-404.47"/>
<polygon fill="#757575" stroke="#757575" points="490.33,-407.97 500.59,-405.35 490.93,-401 490.33,-407.97"/>
</g>
<!-- plugins/zipFile.js&#45;&gt;plugins/JSzip/JSzip.js -->
<g id="edge45" class="edge">
<title>plugins/zipFile.js&#45;&gt;plugins/JSzip/JSzip.js</title>
<path fill="none" stroke="#757575" d="M364.72,-378.98C386.98,-372.02 416.45,-363.39 443,-357.5 503.66,-344.05 667.87,-320 770.16,-305.52"/>
<polygon fill="#757575" stroke="#757575" points="770.76,-308.97 780.17,-304.11 769.78,-302.04 770.76,-308.97"/>
</g>
<!-- plugins/zipFile.js&#45;&gt;plugins/JSzip/zipper.js -->
<g id="edge46" class="edge">
<title>plugins/zipFile.js&#45;&gt;plugins/JSzip/zipper.js</title>
<path fill="none" stroke="#757575" d="M344.34,-378.74C365.16,-362.84 404.78,-334.73 443,-319.5 455.76,-314.41 469.65,-310.28 483.42,-306.93"/>
<polygon fill="#757575" stroke="#757575" points="484.45,-310.29 493.41,-304.63 482.88,-303.47 484.45,-310.29"/>
</g>
<!-- tools/Mock/Mock.js&#45;&gt;tools/loader/loader.js -->
<g id="edge49" class="edge">
<title>tools/Mock/Mock.js&#45;&gt;tools/loader/loader.js</title>
<path fill="none" stroke="#757575" d="M641.35,-217.54C721.55,-222.39 859.03,-230.95 977,-239.5 1006.47,-241.64 1038.74,-244.17 1067.39,-246.5"/>
<polygon fill="#757575" stroke="#757575" points="1067.11,-249.99 1077.36,-247.31 1067.68,-243.01 1067.11,-249.99"/>
</g>
<!-- tools/Mock/Server/index.js -->
<g id="node34" class="node">
<title>tools/Mock/Server/index.js</title>
<path fill="none" stroke="#c6c5fe" d="M940.83,-187C940.83,-187 774.17,-187 774.17,-187 770.33,-187 766.5,-183.17 766.5,-179.33 766.5,-179.33 766.5,-171.67 766.5,-171.67 766.5,-167.83 770.33,-164 774.17,-164 774.17,-164 940.83,-164 940.83,-164 944.67,-164 948.5,-167.83 948.5,-171.67 948.5,-171.67 948.5,-179.33 948.5,-179.33 948.5,-183.17 944.67,-187 940.83,-187"/>
<text text-anchor="middle" x="857.5" y="-171.8" font-family="Arial" font-size="14.00" fill="#c6c5fe">tools/Mock/Server/index.js</text>
</g>
<!-- tools/Mock/Mock.js&#45;&gt;tools/Mock/Server/index.js -->
<g id="edge48" class="edge">
<title>tools/Mock/Mock.js&#45;&gt;tools/Mock/Server/index.js</title>
<path fill="none" stroke="#757575" d="M641.29,-204.4C676.94,-199.61 721.25,-193.66 760.38,-188.41"/>
<polygon fill="#757575" stroke="#757575" points="761.29,-191.82 770.74,-187.02 760.36,-184.88 761.29,-191.82"/>
</g>
<!-- tools/Mock/Server/excel.js -->
<g id="node35" class="node">
<title>tools/Mock/Server/excel.js</title>
<path fill="none" stroke="#cfffac" d="M1235.33,-187C1235.33,-187 1068.67,-187 1068.67,-187 1064.83,-187 1061,-183.17 1061,-179.33 1061,-179.33 1061,-171.67 1061,-171.67 1061,-167.83 1064.83,-164 1068.67,-164 1068.67,-164 1235.33,-164 1235.33,-164 1239.17,-164 1243,-167.83 1243,-171.67 1243,-171.67 1243,-179.33 1243,-179.33 1243,-183.17 1239.17,-187 1235.33,-187"/>
<text text-anchor="middle" x="1152" y="-171.8" font-family="Arial" font-size="14.00" fill="#cfffac">tools/Mock/Server/excel.js</text>
</g>
<!-- tools/Mock/Server/index.js&#45;&gt;tools/Mock/Server/excel.js -->
<g id="edge50" class="edge">
<title>tools/Mock/Server/index.js&#45;&gt;tools/Mock/Server/excel.js</title>
<path fill="none" stroke="#757575" d="M948.65,-175.5C980.97,-175.5 1017.61,-175.5 1050.74,-175.5"/>
<polygon fill="#757575" stroke="#757575" points="1050.9,-179 1060.9,-175.5 1050.9,-172 1050.9,-179"/>
</g>
<!-- tools/analysis/Search/GlobalVars.js -->
<g id="node36" class="node">
<title>tools/analysis/Search/GlobalVars.js</title>
<path fill="none" stroke="#c6c5fe" d="M969.33,-64C969.33,-64 745.67,-64 745.67,-64 741.83,-64 738,-60.17 738,-56.33 738,-56.33 738,-48.67 738,-48.67 738,-44.83 741.83,-41 745.67,-41 745.67,-41 969.33,-41 969.33,-41 973.17,-41 977,-44.83 977,-48.67 977,-48.67 977,-56.33 977,-56.33 977,-60.17 973.17,-64 969.33,-64"/>
<text text-anchor="middle" x="857.5" y="-48.8" font-family="Arial" font-size="14.00" fill="#c6c5fe">tools/analysis/Search/GlobalVars.js</text>
</g>
<!-- tools/analysis/Search/window&#45;default.json -->
<g id="node37" class="node">
<title>tools/analysis/Search/window&#45;default.json</title>
<path fill="none" stroke="#cfffac" d="M1283.33,-64C1283.33,-64 1020.67,-64 1020.67,-64 1016.83,-64 1013,-60.17 1013,-56.33 1013,-56.33 1013,-48.67 1013,-48.67 1013,-44.83 1016.83,-41 1020.67,-41 1020.67,-41 1283.33,-41 1283.33,-41 1287.17,-41 1291,-44.83 1291,-48.67 1291,-48.67 1291,-56.33 1291,-56.33 1291,-60.17 1287.17,-64 1283.33,-64"/>
<text text-anchor="middle" x="1152" y="-48.8" font-family="Arial" font-size="14.00" fill="#cfffac">tools/analysis/Search/window&#45;default.json</text>
</g>
<!-- tools/analysis/Search/GlobalVars.js&#45;&gt;tools/analysis/Search/window&#45;default.json -->
<g id="edge51" class="edge">
<title>tools/analysis/Search/GlobalVars.js&#45;&gt;tools/analysis/Search/window&#45;default.json</title>
<path fill="none" stroke="#757575" d="M977.05,-52.5C985.47,-52.5 994.02,-52.5 1002.58,-52.5"/>
<polygon fill="#757575" stroke="#757575" points="1002.63,-56 1012.63,-52.5 1002.63,-49 1002.63,-56"/>
</g>
<!-- tools/analysis/Search/Search.js -->
<g id="node38" class="node">
<title>tools/analysis/Search/Search.js</title>
<path fill="none" stroke="#c6c5fe" d="M956.33,-23C956.33,-23 758.67,-23 758.67,-23 754.83,-23 751,-19.17 751,-15.33 751,-15.33 751,-7.67 751,-7.67 751,-3.83 754.83,0 758.67,0 758.67,0 956.33,0 956.33,0 960.17,0 964,-3.83 964,-7.67 964,-7.67 964,-15.33 964,-15.33 964,-19.17 960.17,-23 956.33,-23"/>
<text text-anchor="middle" x="857.5" y="-7.8" font-family="Arial" font-size="14.00" fill="#c6c5fe">tools/analysis/Search/Search.js</text>
</g>
<!-- tools/analysis/Search/searchObj.js -->
<g id="node39" class="node">
<title>tools/analysis/Search/searchObj.js</title>
<path fill="none" stroke="#c6c5fe" d="M1260.83,-23C1260.83,-23 1043.17,-23 1043.17,-23 1039.33,-23 1035.5,-19.17 1035.5,-15.33 1035.5,-15.33 1035.5,-7.67 1035.5,-7.67 1035.5,-3.83 1039.33,0 1043.17,0 1043.17,0 1260.83,0 1260.83,0 1264.67,0 1268.5,-3.83 1268.5,-7.67 1268.5,-7.67 1268.5,-15.33 1268.5,-15.33 1268.5,-19.17 1264.67,-23 1260.83,-23"/>
<text text-anchor="middle" x="1152" y="-7.8" font-family="Arial" font-size="14.00" fill="#c6c5fe">tools/analysis/Search/searchObj.js</text>
</g>
<!-- tools/analysis/Search/Search.js&#45;&gt;tools/analysis/Search/searchObj.js -->
<g id="edge52" class="edge">
<title>tools/analysis/Search/Search.js&#45;&gt;tools/analysis/Search/searchObj.js</title>
<path fill="none" stroke="#757575" d="M964.1,-11.5C983.84,-11.5 1004.65,-11.5 1024.93,-11.5"/>
<polygon fill="#757575" stroke="#757575" points="1025.16,-15 1035.16,-11.5 1025.16,-8 1025.16,-15"/>
</g>
<!-- tools/analysis/Search/searchObj.js&#45;&gt;utils/type.js -->
<g id="edge53" class="edge">
<title>tools/analysis/Search/searchObj.js&#45;&gt;utils/type.js</title>
<path fill="none" stroke="#757575" d="M1254.66,-23.03C1267.01,-25.37 1279.36,-28.17 1291,-31.5 1328.84,-42.34 1369.89,-61.48 1396.99,-75.22"/>
<polygon fill="#757575" stroke="#757575" points="1395.47,-78.38 1405.96,-79.84 1398.67,-72.15 1395.47,-78.38"/>
</g>
<!-- tools/analysis/antiDebugger.js -->
<g id="node41" class="node">
<title>tools/analysis/antiDebugger.js</title>
<path fill="none" stroke="#cfffac" d="M952.33,-105C952.33,-105 762.67,-105 762.67,-105 758.83,-105 755,-101.17 755,-97.33 755,-97.33 755,-89.67 755,-89.67 755,-85.83 758.83,-82 762.67,-82 762.67,-82 952.33,-82 952.33,-82 956.17,-82 960,-85.83 960,-89.67 960,-89.67 960,-97.33 960,-97.33 960,-101.17 956.17,-105 952.33,-105"/>
<text text-anchor="middle" x="857.5" y="-89.8" font-family="Arial" font-size="14.00" fill="#cfffac">tools/analysis/antiDebugger.js</text>
</g>
<!-- tools/analysis/copy.js -->
<g id="node42" class="node">
<title>tools/analysis/copy.js</title>
<path fill="none" stroke="#cfffac" d="M924.83,-146C924.83,-146 790.17,-146 790.17,-146 786.33,-146 782.5,-142.17 782.5,-138.33 782.5,-138.33 782.5,-130.67 782.5,-130.67 782.5,-126.83 786.33,-123 790.17,-123 790.17,-123 924.83,-123 924.83,-123 928.67,-123 932.5,-126.83 932.5,-130.67 932.5,-130.67 932.5,-138.33 932.5,-138.33 932.5,-142.17 928.67,-146 924.83,-146"/>
<text text-anchor="middle" x="857.5" y="-130.8" font-family="Arial" font-size="14.00" fill="#cfffac">tools/analysis/copy.js</text>
</g>
<!-- tools/analysis/index.js&#45;&gt;tools/analysis/Search/GlobalVars.js -->
<g id="edge54" class="edge">
<title>tools/analysis/index.js&#45;&gt;tools/analysis/Search/GlobalVars.js</title>
<path fill="none" stroke="#757575" d="M649.34,-82.51C685.56,-77.27 729.16,-70.95 766.99,-65.47"/>
<polygon fill="#757575" stroke="#757575" points="767.59,-68.92 776.99,-64.02 766.59,-61.99 767.59,-68.92"/>
</g>
<!-- tools/analysis/index.js&#45;&gt;tools/analysis/Search/Search.js -->
<g id="edge55" class="edge">
<title>tools/analysis/index.js&#45;&gt;tools/analysis/Search/Search.js</title>
<path fill="none" stroke="#757575" d="M599.48,-81.91C631.48,-68.07 687.76,-45.07 738,-31.5 746.8,-29.12 756.05,-26.97 765.34,-25.05"/>
<polygon fill="#757575" stroke="#757575" points="766.29,-28.43 775.41,-23.04 764.92,-21.56 766.29,-28.43"/>
</g>
<!-- tools/analysis/index.js&#45;&gt;tools/analysis/antiDebugger.js -->
<g id="edge56" class="edge">
<title>tools/analysis/index.js&#45;&gt;tools/analysis/antiDebugger.js</title>
<path fill="none" stroke="#757575" d="M649.34,-93.5C678.59,-93.5 712.65,-93.5 744.61,-93.5"/>
<polygon fill="#757575" stroke="#757575" points="744.9,-97 754.9,-93.5 744.9,-90 744.9,-97"/>
</g>
<!-- tools/analysis/index.js&#45;&gt;tools/analysis/copy.js -->
<g id="edge57" class="edge">
<title>tools/analysis/index.js&#45;&gt;tools/analysis/copy.js</title>
<path fill="none" stroke="#757575" d="M649.34,-104.49C687.21,-109.97 733.15,-116.63 772.14,-122.28"/>
<polygon fill="#757575" stroke="#757575" points="772.01,-125.8 782.41,-123.77 773.02,-118.87 772.01,-125.8"/>
</g>
<!-- utils/retryAndDelay.js&#45;&gt;Errors/errors.js -->
<g id="edge66" class="edge">
<title>utils/retryAndDelay.js&#45;&gt;Errors/errors.js</title>
<path fill="none" stroke="#757575" d="M932.31,-563.15C979.67,-556.52 1040.59,-547.98 1086.1,-541.6"/>
<polygon fill="#757575" stroke="#757575" points="1086.73,-545.04 1096.14,-540.19 1085.75,-538.11 1086.73,-545.04"/>
</g>
</g>
</svg>
