<?xml version="1.0" encoding="UTF-8" standalone="no"?>
<!DOCTYPE svg PUBLIC "-//W3C//DTD SVG 1.1//EN"
 "http://www.w3.org/Graphics/SVG/1.1/DTD/svg11.dtd">
<!-- Generated by graphviz version 2.47.3 (20210619.1520)
 -->
<!-- Title: G Pages: 1 -->
<svg width="1918pt" height="700pt"
 viewBox="0.00 0.00 1918.20 700.21" xmlns="http://www.w3.org/2000/svg" xmlns:xlink="http://www.w3.org/1999/xlink">
<g id="graph0" class="graph" transform="scale(1 1) rotate(0) translate(21.6 678.61)">
<title>G</title>
<polygon fill="#111111" stroke="transparent" points="-21.6,21.6 -21.6,-678.61 1896.6,-678.61 1896.6,21.6 -21.6,21.6"/>
<!-- JSpider.js -->
<g id="node1" class="node">
<title>JSpider.js</title>
<path fill="none" stroke="#c6c5fe" d="M72.33,-366C72.33,-366 7.67,-366 7.67,-366 3.83,-366 0,-362.17 0,-358.33 0,-358.33 0,-350.67 0,-350.67 0,-346.83 3.83,-343 7.67,-343 7.67,-343 72.33,-343 72.33,-343 76.17,-343 80,-346.83 80,-350.67 80,-350.67 80,-358.33 80,-358.33 80,-362.17 76.17,-366 72.33,-366"/>
<text text-anchor="middle" x="40" y="-350.8" font-family="Arial" font-size="14.00" fill="#c6c5fe">JSpider.js</text>
</g>
<!-- core/index.js -->
<g id="node2" class="node">
<title>core/index.js</title>
<path fill="none" stroke="#c6c5fe" d="M357.33,-447C357.33,-447 275.67,-447 275.67,-447 271.83,-447 268,-443.17 268,-439.33 268,-439.33 268,-431.67 268,-431.67 268,-427.83 271.83,-424 275.67,-424 275.67,-424 357.33,-424 357.33,-424 361.17,-424 365,-427.83 365,-431.67 365,-431.67 365,-439.33 365,-439.33 365,-443.17 361.17,-447 357.33,-447"/>
<text text-anchor="middle" x="316.5" y="-431.8" font-family="Arial" font-size="14.00" fill="#c6c5fe">core/index.js</text>
</g>
<!-- JSpider.js&#45;&gt;core/index.js -->
<g id="edge1" class="edge">
<title>JSpider.js&#45;&gt;core/index.js</title>
<path fill="none" stroke="#757575" d="M59.11,-366.07C73.89,-375.04 95.6,-387.14 116,-394.5 162.3,-411.21 217.23,-421.87 257.72,-428.12"/>
<polygon fill="#757575" stroke="#757575" points="257.28,-431.59 267.69,-429.61 258.32,-424.67 257.28,-431.59"/>
</g>
<!-- plugins/index.js -->
<g id="node3" class="node">
<title>plugins/index.js</title>
<path fill="none" stroke="#c6c5fe" d="M365.33,-346C365.33,-346 267.67,-346 267.67,-346 263.83,-346 260,-342.17 260,-338.33 260,-338.33 260,-330.67 260,-330.67 260,-326.83 263.83,-323 267.67,-323 267.67,-323 365.33,-323 365.33,-323 369.17,-323 373,-326.83 373,-330.67 373,-330.67 373,-338.33 373,-338.33 373,-342.17 369.17,-346 365.33,-346"/>
<text text-anchor="middle" x="316.5" y="-330.8" font-family="Arial" font-size="14.00" fill="#c6c5fe">plugins/index.js</text>
</g>
<!-- JSpider.js&#45;&gt;plugins/index.js -->
<g id="edge2" class="edge">
<title>JSpider.js&#45;&gt;plugins/index.js</title>
<path fill="none" stroke="#757575" d="M80.04,-351.66C124.26,-348.43 197.04,-343.13 250,-339.27"/>
<polygon fill="#757575" stroke="#757575" points="250.26,-342.76 259.98,-338.55 249.75,-335.78 250.26,-342.76"/>
</g>
<!-- simpleCrawl.js -->
<g id="node4" class="node">
<title>simpleCrawl.js</title>
<path fill="none" stroke="#c6c5fe" d="M216.33,-386C216.33,-386 123.67,-386 123.67,-386 119.83,-386 116,-382.17 116,-378.33 116,-378.33 116,-370.67 116,-370.67 116,-366.83 119.83,-363 123.67,-363 123.67,-363 216.33,-363 216.33,-363 220.17,-363 224,-366.83 224,-370.67 224,-370.67 224,-378.33 224,-378.33 224,-382.17 220.17,-386 216.33,-386"/>
<text text-anchor="middle" x="170" y="-370.8" font-family="Arial" font-size="14.00" fill="#c6c5fe">simpleCrawl.js</text>
</g>
<!-- JSpider.js&#45;&gt;simpleCrawl.js -->
<g id="edge3" class="edge">
<title>JSpider.js&#45;&gt;simpleCrawl.js</title>
<path fill="none" stroke="#757575" d="M80.1,-360.61C88.33,-361.89 97.2,-363.28 106.05,-364.66"/>
<polygon fill="#757575" stroke="#757575" points="105.58,-368.13 116,-366.22 106.66,-361.22 105.58,-368.13"/>
</g>
<!-- tools/index.js -->
<g id="node5" class="node">
<title>tools/index.js</title>
<path fill="none" stroke="#c6c5fe" d="M529.33,-162C529.33,-162 445.67,-162 445.67,-162 441.83,-162 438,-158.17 438,-154.33 438,-154.33 438,-146.67 438,-146.67 438,-142.83 441.83,-139 445.67,-139 445.67,-139 529.33,-139 529.33,-139 533.17,-139 537,-142.83 537,-146.67 537,-146.67 537,-154.33 537,-154.33 537,-158.17 533.17,-162 529.33,-162"/>
<text text-anchor="middle" x="487.5" y="-146.8" font-family="Arial" font-size="14.00" fill="#c6c5fe">tools/index.js</text>
</g>
<!-- JSpider.js&#45;&gt;tools/index.js -->
<g id="edge4" class="edge">
<title>JSpider.js&#45;&gt;tools/index.js</title>
<path fill="none" stroke="#757575" d="M66.23,-342.95C141.72,-308.38 365.93,-205.71 452.17,-166.22"/>
<polygon fill="#757575" stroke="#757575" points="453.64,-169.4 461.27,-162.05 450.72,-163.03 453.64,-169.4"/>
</g>
<!-- core/JSpider.js -->
<g id="node7" class="node">
<title>core/JSpider.js</title>
<path fill="none" stroke="#c6c5fe" d="M536.33,-508C536.33,-508 438.67,-508 438.67,-508 434.83,-508 431,-504.17 431,-500.33 431,-500.33 431,-492.67 431,-492.67 431,-488.83 434.83,-485 438.67,-485 438.67,-485 536.33,-485 536.33,-485 540.17,-485 544,-488.83 544,-492.67 544,-492.67 544,-500.33 544,-500.33 544,-504.17 540.17,-508 536.33,-508"/>
<text text-anchor="middle" x="487.5" y="-492.8" font-family="Arial" font-size="14.00" fill="#c6c5fe">core/JSpider.js</text>
</g>
<!-- core/index.js&#45;&gt;core/JSpider.js -->
<g id="edge18" class="edge">
<title>core/index.js&#45;&gt;core/JSpider.js</title>
<path fill="none" stroke="#757575" d="M348.36,-447.15C366.07,-453.79 388.75,-462.21 409,-469.5 420.09,-473.49 432.12,-477.73 443.3,-481.63"/>
<polygon fill="#757575" stroke="#757575" points="442.28,-484.98 452.88,-484.95 444.58,-478.37 442.28,-484.98"/>
</g>
<!-- core/PluginSystem.js -->
<g id="node10" class="node">
<title>core/PluginSystem.js</title>
<path fill="none" stroke="#c6c5fe" d="M798.83,-386C798.83,-386 664.17,-386 664.17,-386 660.33,-386 656.5,-382.17 656.5,-378.33 656.5,-378.33 656.5,-370.67 656.5,-370.67 656.5,-366.83 660.33,-363 664.17,-363 664.17,-363 798.83,-363 798.83,-363 802.67,-363 806.5,-366.83 806.5,-370.67 806.5,-370.67 806.5,-378.33 806.5,-378.33 806.5,-382.17 802.67,-386 798.83,-386"/>
<text text-anchor="middle" x="731.5" y="-370.8" font-family="Arial" font-size="14.00" fill="#c6c5fe">core/PluginSystem.js</text>
</g>
<!-- core/index.js&#45;&gt;core/PluginSystem.js -->
<g id="edge19" class="edge">
<title>core/index.js&#45;&gt;core/PluginSystem.js</title>
<path fill="none" stroke="#757575" d="M365.28,-428.44C433.94,-418.3 561.55,-399.45 646.26,-386.94"/>
<polygon fill="#757575" stroke="#757575" points="646.99,-390.37 656.37,-385.45 645.97,-383.45 646.99,-390.37"/>
</g>
<!-- core/Task/Task.js -->
<g id="node11" class="node">
<title>core/Task/Task.js</title>
<path fill="none" stroke="#c6c5fe" d="M1367.33,-563C1367.33,-563 1254.67,-563 1254.67,-563 1250.83,-563 1247,-559.17 1247,-555.33 1247,-555.33 1247,-547.67 1247,-547.67 1247,-543.83 1250.83,-540 1254.67,-540 1254.67,-540 1367.33,-540 1367.33,-540 1371.17,-540 1375,-543.83 1375,-547.67 1375,-547.67 1375,-555.33 1375,-555.33 1375,-559.17 1371.17,-563 1367.33,-563"/>
<text text-anchor="middle" x="1311" y="-547.8" font-family="Arial" font-size="14.00" fill="#c6c5fe">core/Task/Task.js</text>
</g>
<!-- core/index.js&#45;&gt;core/Task/Task.js -->
<g id="edge20" class="edge">
<title>core/index.js&#45;&gt;core/Task/Task.js</title>
<path fill="none" stroke="#757575" d="M328.01,-447.15C344.02,-464.34 376.17,-496.58 409,-516.5 487.54,-564.15 513.04,-567.58 602,-590.5 832.51,-649.88 903.47,-682.39 1136,-631.5 1191.22,-619.41 1249.84,-588.1 1282.99,-568.42"/>
<polygon fill="#757575" stroke="#757575" points="1284.88,-571.37 1291.64,-563.21 1281.27,-565.37 1284.88,-571.37"/>
</g>
<!-- core/Task/TaskGroup.js -->
<g id="node14" class="node">
<title>core/Task/TaskGroup.js</title>
<path fill="none" stroke="#c6c5fe" d="M807.83,-468C807.83,-468 655.17,-468 655.17,-468 651.33,-468 647.5,-464.17 647.5,-460.33 647.5,-460.33 647.5,-452.67 647.5,-452.67 647.5,-448.83 651.33,-445 655.17,-445 655.17,-445 807.83,-445 807.83,-445 811.67,-445 815.5,-448.83 815.5,-452.67 815.5,-452.67 815.5,-460.33 815.5,-460.33 815.5,-464.17 811.67,-468 807.83,-468"/>
<text text-anchor="middle" x="731.5" y="-452.8" font-family="Arial" font-size="14.00" fill="#c6c5fe">core/Task/TaskGroup.js</text>
</g>
<!-- core/index.js&#45;&gt;core/Task/TaskGroup.js -->
<g id="edge21" class="edge">
<title>core/index.js&#45;&gt;core/Task/TaskGroup.js</title>
<path fill="none" stroke="#757575" d="M365.28,-437.93C431.49,-441.3 552.52,-447.45 637.04,-451.75"/>
<polygon fill="#757575" stroke="#757575" points="636.99,-455.25 647.16,-452.26 637.35,-448.26 636.99,-455.25"/>
</g>
<!-- plugins/Download.js -->
<g id="node17" class="node">
<title>plugins/Download.js</title>
<path fill="none" stroke="#c6c5fe" d="M551.33,-305C551.33,-305 423.67,-305 423.67,-305 419.83,-305 416,-301.17 416,-297.33 416,-297.33 416,-289.67 416,-289.67 416,-285.83 419.83,-282 423.67,-282 423.67,-282 551.33,-282 551.33,-282 555.17,-282 559,-285.83 559,-289.67 559,-289.67 559,-297.33 559,-297.33 559,-301.17 555.17,-305 551.33,-305"/>
<text text-anchor="middle" x="487.5" y="-289.8" font-family="Arial" font-size="14.00" fill="#c6c5fe">plugins/Download.js</text>
</g>
<!-- plugins/index.js&#45;&gt;plugins/Download.js -->
<g id="edge33" class="edge">
<title>plugins/index.js&#45;&gt;plugins/Download.js</title>
<path fill="none" stroke="#757575" d="M365.03,-322.97C385,-318.12 408.41,-312.45 429.32,-307.37"/>
<polygon fill="#757575" stroke="#757575" points="430.15,-310.77 439.04,-305.01 428.5,-303.97 430.15,-310.77"/>
</g>
<!-- plugins/ExcelHelper.js -->
<g id="node19" class="node">
<title>plugins/ExcelHelper.js</title>
<path fill="none" stroke="#c6c5fe" d="M558.33,-264C558.33,-264 416.67,-264 416.67,-264 412.83,-264 409,-260.17 409,-256.33 409,-256.33 409,-248.67 409,-248.67 409,-244.83 412.83,-241 416.67,-241 416.67,-241 558.33,-241 558.33,-241 562.17,-241 566,-244.83 566,-248.67 566,-248.67 566,-256.33 566,-256.33 566,-260.17 562.17,-264 558.33,-264"/>
<text text-anchor="middle" x="487.5" y="-248.8" font-family="Arial" font-size="14.00" fill="#c6c5fe">plugins/ExcelHelper.js</text>
</g>
<!-- plugins/index.js&#45;&gt;plugins/ExcelHelper.js -->
<g id="edge34" class="edge">
<title>plugins/index.js&#45;&gt;plugins/ExcelHelper.js</title>
<path fill="none" stroke="#757575" d="M331.17,-323C348.31,-309.13 379.09,-286 409,-272.5 413.29,-270.57 417.79,-268.79 422.39,-267.17"/>
<polygon fill="#757575" stroke="#757575" points="423.49,-270.5 431.9,-264.06 421.31,-263.84 423.49,-270.5"/>
</g>
<!-- plugins/Request.js -->
<g id="node25" class="node">
<title>plugins/Request.js</title>
<path fill="none" stroke="#c6c5fe" d="M546.83,-387C546.83,-387 428.17,-387 428.17,-387 424.33,-387 420.5,-383.17 420.5,-379.33 420.5,-379.33 420.5,-371.67 420.5,-371.67 420.5,-367.83 424.33,-364 428.17,-364 428.17,-364 546.83,-364 546.83,-364 550.67,-364 554.5,-367.83 554.5,-371.67 554.5,-371.67 554.5,-379.33 554.5,-379.33 554.5,-383.17 550.67,-387 546.83,-387"/>
<text text-anchor="middle" x="487.5" y="-371.8" font-family="Arial" font-size="14.00" fill="#c6c5fe">plugins/Request.js</text>
</g>
<!-- plugins/index.js&#45;&gt;plugins/Request.js -->
<g id="edge35" class="edge">
<title>plugins/index.js&#45;&gt;plugins/Request.js</title>
<path fill="none" stroke="#757575" d="M365.03,-346.03C385,-350.88 408.41,-356.55 429.32,-361.63"/>
<polygon fill="#757575" stroke="#757575" points="428.5,-365.03 439.04,-363.99 430.15,-358.23 428.5,-365.03"/>
</g>
<!-- plugins/zipFile.js -->
<g id="node27" class="node">
<title>plugins/zipFile.js</title>
<path fill="none" stroke="#c6c5fe" d="M540.33,-346C540.33,-346 434.67,-346 434.67,-346 430.83,-346 427,-342.17 427,-338.33 427,-338.33 427,-330.67 427,-330.67 427,-326.83 430.83,-323 434.67,-323 434.67,-323 540.33,-323 540.33,-323 544.17,-323 548,-326.83 548,-330.67 548,-330.67 548,-338.33 548,-338.33 548,-342.17 544.17,-346 540.33,-346"/>
<text text-anchor="middle" x="487.5" y="-330.8" font-family="Arial" font-size="14.00" fill="#c6c5fe">plugins/zipFile.js</text>
</g>
<!-- plugins/index.js&#45;&gt;plugins/zipFile.js -->
<g id="edge36" class="edge">
<title>plugins/index.js&#45;&gt;plugins/zipFile.js</title>
<path fill="none" stroke="#757575" d="M373.31,-334.5C387.15,-334.5 402.17,-334.5 416.6,-334.5"/>
<polygon fill="#757575" stroke="#757575" points="416.98,-338 426.98,-334.5 416.98,-331 416.98,-338"/>
</g>
<!-- simpleCrawl.js&#45;&gt;core/index.js -->
<g id="edge42" class="edge">
<title>simpleCrawl.js&#45;&gt;core/index.js</title>
<path fill="none" stroke="#757575" d="M198.52,-386.12C221.22,-395.7 253.63,-409.38 278.58,-419.91"/>
<polygon fill="#757575" stroke="#757575" points="277.51,-423.26 288.08,-423.93 280.23,-416.81 277.51,-423.26"/>
</g>
<!-- simpleCrawl.js&#45;&gt;plugins/index.js -->
<g id="edge43" class="edge">
<title>simpleCrawl.js&#45;&gt;plugins/index.js</title>
<path fill="none" stroke="#757575" d="M212.8,-362.93C228.82,-358.49 247.29,-353.38 264.12,-348.72"/>
<polygon fill="#757575" stroke="#757575" points="265.09,-352.08 273.8,-346.04 263.23,-345.34 265.09,-352.08"/>
</g>
<!-- tools/loader/loader.js -->
<g id="node22" class="node">
<title>tools/loader/loader.js</title>
<path fill="none" stroke="#c6c5fe" d="M1377.83,-141C1377.83,-141 1244.17,-141 1244.17,-141 1240.33,-141 1236.5,-137.17 1236.5,-133.33 1236.5,-133.33 1236.5,-125.67 1236.5,-125.67 1236.5,-121.83 1240.33,-118 1244.17,-118 1244.17,-118 1377.83,-118 1377.83,-118 1381.67,-118 1385.5,-121.83 1385.5,-125.67 1385.5,-125.67 1385.5,-133.33 1385.5,-133.33 1385.5,-137.17 1381.67,-141 1377.83,-141"/>
<text text-anchor="middle" x="1311" y="-125.8" font-family="Arial" font-size="14.00" fill="#c6c5fe">tools/loader/loader.js</text>
</g>
<!-- tools/index.js&#45;&gt;tools/loader/loader.js -->
<g id="edge56" class="edge">
<title>tools/index.js&#45;&gt;tools/loader/loader.js</title>
<path fill="none" stroke="#757575" d="M513.07,-138.84C535.61,-128.81 570.23,-115.12 602,-109.5 835.71,-68.17 899.09,-94.26 1136,-108.5 1165.48,-110.27 1197.62,-113.72 1226.16,-117.32"/>
<polygon fill="#757575" stroke="#757575" points="1225.73,-120.79 1236.09,-118.59 1226.62,-113.85 1225.73,-120.79"/>
</g>
<!-- tools/Mock/Mock.js -->
<g id="node28" class="node">
<title>tools/Mock/Mock.js</title>
<path fill="none" stroke="#c6c5fe" d="M792.33,-61C792.33,-61 670.67,-61 670.67,-61 666.83,-61 663,-57.17 663,-53.33 663,-53.33 663,-45.67 663,-45.67 663,-41.83 666.83,-38 670.67,-38 670.67,-38 792.33,-38 792.33,-38 796.17,-38 800,-41.83 800,-45.67 800,-45.67 800,-53.33 800,-53.33 800,-57.17 796.17,-61 792.33,-61"/>
<text text-anchor="middle" x="731.5" y="-45.8" font-family="Arial" font-size="14.00" fill="#c6c5fe">tools/Mock/Mock.js</text>
</g>
<!-- tools/index.js&#45;&gt;tools/Mock/Mock.js -->
<g id="edge54" class="edge">
<title>tools/index.js&#45;&gt;tools/Mock/Mock.js</title>
<path fill="none" stroke="#757575" d="M502.18,-138.89C522.56,-122.22 562.71,-91.73 602,-75.5 617.91,-68.93 635.65,-63.97 652.73,-60.24"/>
<polygon fill="#757575" stroke="#757575" points="653.61,-63.63 662.69,-58.19 652.19,-56.78 653.61,-63.63"/>
</g>
<!-- tools/analysis/index.js -->
<g id="node37" class="node">
<title>tools/analysis/index.js</title>
<path fill="none" stroke="#c6c5fe" d="M800.33,-223C800.33,-223 662.67,-223 662.67,-223 658.83,-223 655,-219.17 655,-215.33 655,-215.33 655,-207.67 655,-207.67 655,-203.83 658.83,-200 662.67,-200 662.67,-200 800.33,-200 800.33,-200 804.17,-200 808,-203.83 808,-207.67 808,-207.67 808,-215.33 808,-215.33 808,-219.17 804.17,-223 800.33,-223"/>
<text text-anchor="middle" x="731.5" y="-207.8" font-family="Arial" font-size="14.00" fill="#c6c5fe">tools/analysis/index.js</text>
</g>
<!-- tools/index.js&#45;&gt;tools/analysis/index.js -->
<g id="edge55" class="edge">
<title>tools/index.js&#45;&gt;tools/analysis/index.js</title>
<path fill="none" stroke="#757575" d="M534.3,-162.05C574.14,-172.09 631.98,-186.67 674.55,-197.4"/>
<polygon fill="#757575" stroke="#757575" points="673.92,-200.85 684.47,-199.9 675.63,-194.06 673.92,-200.85"/>
</g>
<!-- core/Errors/errors.js -->
<g id="node6" class="node">
<title>core/Errors/errors.js</title>
<path fill="none" stroke="#cfffac" d="M1867.33,-504C1867.33,-504 1739.67,-504 1739.67,-504 1735.83,-504 1732,-500.17 1732,-496.33 1732,-496.33 1732,-488.67 1732,-488.67 1732,-484.83 1735.83,-481 1739.67,-481 1739.67,-481 1867.33,-481 1867.33,-481 1871.17,-481 1875,-484.83 1875,-488.67 1875,-488.67 1875,-496.33 1875,-496.33 1875,-500.17 1871.17,-504 1867.33,-504"/>
<text text-anchor="middle" x="1803.5" y="-488.8" font-family="Arial" font-size="14.00" fill="#cfffac">core/Errors/errors.js</text>
</g>
<!-- core/coreOperators/index.js -->
<g id="node8" class="node">
<title>core/coreOperators/index.js</title>
<path fill="none" stroke="#c6c5fe" d="M820.33,-582C820.33,-582 642.67,-582 642.67,-582 638.83,-582 635,-578.17 635,-574.33 635,-574.33 635,-566.67 635,-566.67 635,-562.83 638.83,-559 642.67,-559 642.67,-559 820.33,-559 820.33,-559 824.17,-559 828,-562.83 828,-566.67 828,-566.67 828,-574.33 828,-574.33 828,-578.17 824.17,-582 820.33,-582"/>
<text text-anchor="middle" x="731.5" y="-566.8" font-family="Arial" font-size="14.00" fill="#c6c5fe">core/coreOperators/index.js</text>
</g>
<!-- core/JSpider.js&#45;&gt;core/coreOperators/index.js -->
<g id="edge5" class="edge">
<title>core/JSpider.js&#45;&gt;core/coreOperators/index.js</title>
<path fill="none" stroke="#757575" d="M526.31,-508.06C568.54,-520.98 636.98,-541.9 682.84,-555.93"/>
<polygon fill="#757575" stroke="#757575" points="681.97,-559.32 692.55,-558.9 684.02,-552.63 681.97,-559.32"/>
</g>
<!-- core/createUUID.js -->
<g id="node9" class="node">
<title>core/createUUID.js</title>
<path fill="none" stroke="#cfffac" d="M1077.33,-464C1077.33,-464 955.67,-464 955.67,-464 951.83,-464 948,-460.17 948,-456.33 948,-456.33 948,-448.67 948,-448.67 948,-444.83 951.83,-441 955.67,-441 955.67,-441 1077.33,-441 1077.33,-441 1081.17,-441 1085,-444.83 1085,-448.67 1085,-448.67 1085,-456.33 1085,-456.33 1085,-460.17 1081.17,-464 1077.33,-464"/>
<text text-anchor="middle" x="1016.5" y="-448.8" font-family="Arial" font-size="14.00" fill="#cfffac">core/createUUID.js</text>
</g>
<!-- core/JSpider.js&#45;&gt;core/createUUID.js -->
<g id="edge6" class="edge">
<title>core/JSpider.js&#45;&gt;core/createUUID.js</title>
<path fill="none" stroke="#757575" d="M544.17,-495.25C617.11,-493.22 748.92,-488.18 861,-476.5 887.1,-473.78 915.52,-469.69 940.78,-465.66"/>
<polygon fill="#757575" stroke="#757575" points="941.35,-469.11 950.66,-464.06 940.23,-462.2 941.35,-469.11"/>
</g>
<!-- core/coreOperators/createTask.js -->
<g id="node15" class="node">
<title>core/coreOperators/createTask.js</title>
<path fill="none" stroke="#c6c5fe" d="M1123.83,-582C1123.83,-582 909.17,-582 909.17,-582 905.33,-582 901.5,-578.17 901.5,-574.33 901.5,-574.33 901.5,-566.67 901.5,-566.67 901.5,-562.83 905.33,-559 909.17,-559 909.17,-559 1123.83,-559 1123.83,-559 1127.67,-559 1131.5,-562.83 1131.5,-566.67 1131.5,-566.67 1131.5,-574.33 1131.5,-574.33 1131.5,-578.17 1127.67,-582 1123.83,-582"/>
<text text-anchor="middle" x="1016.5" y="-566.8" font-family="Arial" font-size="14.00" fill="#c6c5fe">core/coreOperators/createTask.js</text>
</g>
<!-- core/coreOperators/index.js&#45;&gt;core/coreOperators/createTask.js -->
<g id="edge16" class="edge">
<title>core/coreOperators/index.js&#45;&gt;core/coreOperators/createTask.js</title>
<path fill="none" stroke="#757575" d="M828.31,-570.5C848.43,-570.5 869.93,-570.5 890.93,-570.5"/>
<polygon fill="#757575" stroke="#757575" points="891.18,-574 901.18,-570.5 891.18,-567 891.18,-574"/>
</g>
<!-- core/coreOperators/skipSame.js -->
<g id="node16" class="node">
<title>core/coreOperators/skipSame.js</title>
<path fill="none" stroke="#cfffac" d="M1119.83,-623C1119.83,-623 913.17,-623 913.17,-623 909.33,-623 905.5,-619.17 905.5,-615.33 905.5,-615.33 905.5,-607.67 905.5,-607.67 905.5,-603.83 909.33,-600 913.17,-600 913.17,-600 1119.83,-600 1119.83,-600 1123.67,-600 1127.5,-603.83 1127.5,-607.67 1127.5,-607.67 1127.5,-615.33 1127.5,-615.33 1127.5,-619.17 1123.67,-623 1119.83,-623"/>
<text text-anchor="middle" x="1016.5" y="-607.8" font-family="Arial" font-size="14.00" fill="#cfffac">core/coreOperators/skipSame.js</text>
</g>
<!-- core/coreOperators/index.js&#45;&gt;core/coreOperators/skipSame.js -->
<g id="edge17" class="edge">
<title>core/coreOperators/index.js&#45;&gt;core/coreOperators/skipSame.js</title>
<path fill="none" stroke="#757575" d="M812.08,-582.03C847.5,-587.16 889.36,-593.23 925.88,-598.52"/>
<polygon fill="#757575" stroke="#757575" points="925.62,-602.02 936.02,-599.99 926.63,-595.09 925.62,-602.02"/>
</g>
<!-- core/PluginSystem.js&#45;&gt;core/Errors/errors.js -->
<g id="edge7" class="edge">
<title>core/PluginSystem.js&#45;&gt;core/Errors/errors.js</title>
<path fill="none" stroke="#757575" d="M806.54,-375.97C936.91,-379.11 1215.8,-388.27 1450,-412.5 1560.04,-423.88 1589.22,-421.58 1696,-450.5 1720.84,-457.23 1747.8,-467.89 1768.38,-476.8"/>
<polygon fill="#757575" stroke="#757575" points="1767.08,-480.05 1777.64,-480.87 1769.9,-473.64 1767.08,-480.05"/>
</g>
<!-- core/PluginSystem.js&#45;&gt;core/createUUID.js -->
<g id="edge8" class="edge">
<title>core/PluginSystem.js&#45;&gt;core/createUUID.js</title>
<path fill="none" stroke="#757575" d="M806.76,-383.41C824.67,-386.29 843.64,-389.94 861,-394.5 903.01,-405.53 949.44,-423.83 980.33,-436.93"/>
<polygon fill="#757575" stroke="#757575" points="979.22,-440.26 989.79,-440.98 981.97,-433.83 979.22,-440.26"/>
</g>
<!-- core/Task/Task.js&#45;&gt;core/Errors/errors.js -->
<g id="edge9" class="edge">
<title>core/Task/Task.js&#45;&gt;core/Errors/errors.js</title>
<path fill="none" stroke="#757575" d="M1375.23,-544.37C1451.36,-535.71 1583.1,-520.54 1696,-506.5 1704.31,-505.47 1712.99,-504.36 1721.64,-503.25"/>
<polygon fill="#757575" stroke="#757575" points="1722.3,-506.69 1731.77,-501.94 1721.4,-499.75 1722.3,-506.69"/>
</g>
<!-- core/Task/TaskComponents.js -->
<g id="node12" class="node">
<title>core/Task/TaskComponents.js</title>
<path fill="none" stroke="#c6c5fe" d="M1688.33,-582C1688.33,-582 1493.67,-582 1493.67,-582 1489.83,-582 1486,-578.17 1486,-574.33 1486,-574.33 1486,-566.67 1486,-566.67 1486,-562.83 1489.83,-559 1493.67,-559 1493.67,-559 1688.33,-559 1688.33,-559 1692.17,-559 1696,-562.83 1696,-566.67 1696,-566.67 1696,-574.33 1696,-574.33 1696,-578.17 1692.17,-582 1688.33,-582"/>
<text text-anchor="middle" x="1591" y="-566.8" font-family="Arial" font-size="14.00" fill="#c6c5fe">core/Task/TaskComponents.js</text>
</g>
<!-- core/Task/Task.js&#45;&gt;core/Task/TaskComponents.js -->
<g id="edge10" class="edge">
<title>core/Task/Task.js&#45;&gt;core/Task/TaskComponents.js</title>
<path fill="none" stroke="#757575" d="M1375.08,-555.81C1404.83,-557.84 1441.26,-560.33 1475.62,-562.68"/>
<polygon fill="#757575" stroke="#757575" points="1475.51,-566.18 1485.73,-563.37 1475.99,-559.2 1475.51,-566.18"/>
</g>
<!-- utils/type.js -->
<g id="node13" class="node">
<title>utils/type.js</title>
<path fill="none" stroke="#cfffac" d="M1626.33,-264C1626.33,-264 1555.67,-264 1555.67,-264 1551.83,-264 1548,-260.17 1548,-256.33 1548,-256.33 1548,-248.67 1548,-248.67 1548,-244.83 1551.83,-241 1555.67,-241 1555.67,-241 1626.33,-241 1626.33,-241 1630.17,-241 1634,-244.83 1634,-248.67 1634,-248.67 1634,-256.33 1634,-256.33 1634,-260.17 1630.17,-264 1626.33,-264"/>
<text text-anchor="middle" x="1591" y="-248.8" font-family="Arial" font-size="14.00" fill="#cfffac">utils/type.js</text>
</g>
<!-- core/Task/Task.js&#45;&gt;utils/type.js -->
<g id="edge11" class="edge">
<title>core/Task/Task.js&#45;&gt;utils/type.js</title>
<path fill="none" stroke="#757575" d="M1332.86,-539.82C1361.44,-523.15 1413.39,-490.44 1450,-453.5 1507.4,-395.58 1557.36,-311.66 1578.82,-273.18"/>
<polygon fill="#757575" stroke="#757575" points="1581.88,-274.87 1583.65,-264.42 1575.75,-271.49 1581.88,-274.87"/>
</g>
<!-- core/Task/TaskComponents.js&#45;&gt;core/Errors/errors.js -->
<g id="edge12" class="edge">
<title>core/Task/TaskComponents.js&#45;&gt;core/Errors/errors.js</title>
<path fill="none" stroke="#757575" d="M1647.16,-558.99C1663.13,-555.04 1680.44,-550.17 1696,-544.5 1722.82,-534.72 1751.85,-520.27 1772.82,-509.08"/>
<polygon fill="#757575" stroke="#757575" points="1774.72,-512.03 1781.85,-504.2 1771.39,-505.87 1774.72,-512.03"/>
</g>
<!-- core/Task/TaskGroup.js&#45;&gt;core/Errors/errors.js -->
<g id="edge13" class="edge">
<title>core/Task/TaskGroup.js&#45;&gt;core/Errors/errors.js</title>
<path fill="none" stroke="#757575" d="M815.67,-465.81C841.68,-468.39 870.51,-470.92 897,-472.5 1201.11,-490.62 1563.56,-492.77 1721.85,-492.74"/>
<polygon fill="#757575" stroke="#757575" points="1721.98,-496.24 1731.98,-492.74 1721.98,-489.24 1721.98,-496.24"/>
</g>
<!-- core/Task/TaskGroup.js&#45;&gt;core/Task/Task.js -->
<g id="edge14" class="edge">
<title>core/Task/TaskGroup.js&#45;&gt;core/Task/Task.js</title>
<path fill="none" stroke="#757575" d="M764.2,-468.07C796.99,-479.57 849.92,-496.87 897,-506.5 1014.52,-530.54 1153.65,-542.34 1236.72,-547.65"/>
<polygon fill="#757575" stroke="#757575" points="1236.61,-551.15 1246.81,-548.29 1237.05,-544.17 1236.61,-551.15"/>
</g>
<!-- core/coreOperators/createTask.js&#45;&gt;core/Task/Task.js -->
<g id="edge15" class="edge">
<title>core/coreOperators/createTask.js&#45;&gt;core/Task/Task.js</title>
<path fill="none" stroke="#757575" d="M1131.84,-563.07C1167.12,-560.78 1205,-558.32 1236.73,-556.26"/>
<polygon fill="#757575" stroke="#757575" points="1237.05,-559.75 1246.8,-555.61 1236.59,-552.76 1237.05,-559.75"/>
</g>
<!-- plugins/Download.js&#45;&gt;core/PluginSystem.js -->
<g id="edge22" class="edge">
<title>plugins/Download.js&#45;&gt;core/PluginSystem.js</title>
<path fill="none" stroke="#757575" d="M536.26,-305C546.15,-307.62 556.45,-310.51 566,-313.5 610.04,-327.31 659.59,-346.14 692.68,-359.22"/>
<polygon fill="#757575" stroke="#757575" points="691.4,-362.47 701.98,-362.91 693.98,-355.97 691.4,-362.47"/>
</g>
<!-- plugins/utils/toFile.js -->
<g id="node18" class="node">
<title>plugins/utils/toFile.js</title>
<path fill="none" stroke="#cfffac" d="M795.33,-265C795.33,-265 667.67,-265 667.67,-265 663.83,-265 660,-261.17 660,-257.33 660,-257.33 660,-249.67 660,-249.67 660,-245.83 663.83,-242 667.67,-242 667.67,-242 795.33,-242 795.33,-242 799.17,-242 803,-245.83 803,-249.67 803,-249.67 803,-257.33 803,-257.33 803,-261.17 799.17,-265 795.33,-265"/>
<text text-anchor="middle" x="731.5" y="-249.8" font-family="Arial" font-size="14.00" fill="#cfffac">plugins/utils/toFile.js</text>
</g>
<!-- plugins/Download.js&#45;&gt;plugins/utils/toFile.js -->
<g id="edge23" class="edge">
<title>plugins/Download.js&#45;&gt;plugins/utils/toFile.js</title>
<path fill="none" stroke="#757575" d="M552.69,-281.96C568.78,-279.13 586.01,-276.15 602,-273.5 617.35,-270.95 633.74,-268.33 649.51,-265.85"/>
<polygon fill="#757575" stroke="#757575" points="650.42,-269.25 659.76,-264.25 649.34,-262.34 650.42,-269.25"/>
</g>
<!-- plugins/ExcelHelper.js&#45;&gt;core/PluginSystem.js -->
<g id="edge24" class="edge">
<title>plugins/ExcelHelper.js&#45;&gt;core/PluginSystem.js</title>
<path fill="none" stroke="#757575" d="M548.84,-264.12C554.86,-266.43 560.69,-269.19 566,-272.5 586.86,-285.5 582.42,-299.63 602,-314.5 627.47,-333.84 660.18,-349.01 686.22,-359.25"/>
<polygon fill="#757575" stroke="#757575" points="685.26,-362.63 695.85,-362.93 687.76,-356.09 685.26,-362.63"/>
</g>
<!-- plugins/ExcelHelper/createExcelFile.js -->
<g id="node20" class="node">
<title>plugins/ExcelHelper/createExcelFile.js</title>
<path fill="none" stroke="#c6c5fe" d="M853.33,-142C853.33,-142 609.67,-142 609.67,-142 605.83,-142 602,-138.17 602,-134.33 602,-134.33 602,-126.67 602,-126.67 602,-122.83 605.83,-119 609.67,-119 609.67,-119 853.33,-119 853.33,-119 857.17,-119 861,-122.83 861,-126.67 861,-126.67 861,-134.33 861,-134.33 861,-138.17 857.17,-142 853.33,-142"/>
<text text-anchor="middle" x="731.5" y="-126.8" font-family="Arial" font-size="14.00" fill="#c6c5fe">plugins/ExcelHelper/createExcelFile.js</text>
</g>
<!-- plugins/ExcelHelper.js&#45;&gt;plugins/ExcelHelper/createExcelFile.js -->
<g id="edge25" class="edge">
<title>plugins/ExcelHelper.js&#45;&gt;plugins/ExcelHelper/createExcelFile.js</title>
<path fill="none" stroke="#757575" d="M498.78,-240.74C517.27,-220.38 558.31,-178.71 602,-157.5 612.73,-152.29 624.45,-148.08 636.3,-144.68"/>
<polygon fill="#757575" stroke="#757575" points="637.51,-147.98 646.26,-142.01 635.7,-141.22 637.51,-147.98"/>
</g>
<!-- plugins/ExcelHelper/xlsx.js -->
<g id="node21" class="node">
<title>plugins/ExcelHelper/xlsx.js</title>
<path fill="none" stroke="#c6c5fe" d="M1101.33,-141C1101.33,-141 931.67,-141 931.67,-141 927.83,-141 924,-137.17 924,-133.33 924,-133.33 924,-125.67 924,-125.67 924,-121.83 927.83,-118 931.67,-118 931.67,-118 1101.33,-118 1101.33,-118 1105.17,-118 1109,-121.83 1109,-125.67 1109,-125.67 1109,-133.33 1109,-133.33 1109,-137.17 1105.17,-141 1101.33,-141"/>
<text text-anchor="middle" x="1016.5" y="-125.8" font-family="Arial" font-size="14.00" fill="#c6c5fe">plugins/ExcelHelper/xlsx.js</text>
</g>
<!-- plugins/ExcelHelper.js&#45;&gt;plugins/ExcelHelper/xlsx.js -->
<g id="edge26" class="edge">
<title>plugins/ExcelHelper.js&#45;&gt;plugins/ExcelHelper/xlsx.js</title>
<path fill="none" stroke="#757575" d="M505.31,-240.82C526.73,-226.54 565.38,-202.77 602,-190.5 617.04,-185.46 804.54,-158.83 921.83,-142.47"/>
<polygon fill="#757575" stroke="#757575" points="922.48,-145.91 931.9,-141.07 921.51,-138.98 922.48,-145.91"/>
</g>
<!-- plugins/ExcelHelper/createExcelFile.js&#45;&gt;plugins/ExcelHelper/xlsx.js -->
<g id="edge27" class="edge">
<title>plugins/ExcelHelper/createExcelFile.js&#45;&gt;plugins/ExcelHelper/xlsx.js</title>
<path fill="none" stroke="#757575" d="M861.16,-130.05C878.7,-129.98 896.5,-129.92 913.47,-129.86"/>
<polygon fill="#757575" stroke="#757575" points="913.94,-133.36 923.92,-129.82 913.91,-126.36 913.94,-133.36"/>
</g>
<!-- plugins/ExcelHelper/xlsx.js&#45;&gt;tools/loader/loader.js -->
<g id="edge28" class="edge">
<title>plugins/ExcelHelper/xlsx.js&#45;&gt;tools/loader/loader.js</title>
<path fill="none" stroke="#757575" d="M1109.25,-129.5C1146.61,-129.5 1189.52,-129.5 1226.05,-129.5"/>
<polygon fill="#757575" stroke="#757575" points="1226.17,-133 1236.17,-129.5 1226.17,-126 1226.17,-133"/>
</g>
<!-- tools/loader/loader.js&#45;&gt;utils/type.js -->
<g id="edge60" class="edge">
<title>tools/loader/loader.js&#45;&gt;utils/type.js</title>
<path fill="none" stroke="#757575" d="M1338.15,-141.07C1388.24,-163.23 1497.75,-211.68 1554.43,-236.76"/>
<polygon fill="#757575" stroke="#757575" points="1553.15,-240.02 1563.71,-240.87 1555.98,-233.62 1553.15,-240.02"/>
</g>
<!-- tools/loader/jsDelivr.js -->
<g id="node38" class="node">
<title>tools/loader/jsDelivr.js</title>
<path fill="none" stroke="#cfffac" d="M1660.83,-141C1660.83,-141 1521.17,-141 1521.17,-141 1517.33,-141 1513.5,-137.17 1513.5,-133.33 1513.5,-133.33 1513.5,-125.67 1513.5,-125.67 1513.5,-121.83 1517.33,-118 1521.17,-118 1521.17,-118 1660.83,-118 1660.83,-118 1664.67,-118 1668.5,-121.83 1668.5,-125.67 1668.5,-125.67 1668.5,-133.33 1668.5,-133.33 1668.5,-137.17 1664.67,-141 1660.83,-141"/>
<text text-anchor="middle" x="1591" y="-125.8" font-family="Arial" font-size="14.00" fill="#cfffac">tools/loader/jsDelivr.js</text>
</g>
<!-- tools/loader/loader.js&#45;&gt;tools/loader/jsDelivr.js -->
<g id="edge57" class="edge">
<title>tools/loader/loader.js&#45;&gt;tools/loader/jsDelivr.js</title>
<path fill="none" stroke="#757575" d="M1385.77,-129.5C1421.79,-129.5 1465.37,-129.5 1503.01,-129.5"/>
<polygon fill="#757575" stroke="#757575" points="1503.46,-133 1513.46,-129.5 1503.46,-126 1503.46,-133"/>
</g>
<!-- tools/loader/loaderFunction.js -->
<g id="node39" class="node">
<title>tools/loader/loaderFunction.js</title>
<path fill="none" stroke="#cfffac" d="M1684.83,-100C1684.83,-100 1497.17,-100 1497.17,-100 1493.33,-100 1489.5,-96.17 1489.5,-92.33 1489.5,-92.33 1489.5,-84.67 1489.5,-84.67 1489.5,-80.83 1493.33,-77 1497.17,-77 1497.17,-77 1684.83,-77 1684.83,-77 1688.67,-77 1692.5,-80.83 1692.5,-84.67 1692.5,-84.67 1692.5,-92.33 1692.5,-92.33 1692.5,-96.17 1688.67,-100 1684.83,-100"/>
<text text-anchor="middle" x="1591" y="-84.8" font-family="Arial" font-size="14.00" fill="#cfffac">tools/loader/loaderFunction.js</text>
</g>
<!-- tools/loader/loader.js&#45;&gt;tools/loader/loaderFunction.js -->
<g id="edge58" class="edge">
<title>tools/loader/loader.js&#45;&gt;tools/loader/loaderFunction.js</title>
<path fill="none" stroke="#757575" d="M1385.77,-118.62C1421.35,-113.37 1464.31,-107.04 1501.63,-101.53"/>
<polygon fill="#757575" stroke="#757575" points="1502.61,-104.93 1511.99,-100 1501.59,-98 1502.61,-104.93"/>
</g>
<!-- tools/loader/scriptStore.js -->
<g id="node40" class="node">
<title>tools/loader/scriptStore.js</title>
<path fill="none" stroke="#cfffac" d="M1672.33,-182C1672.33,-182 1509.67,-182 1509.67,-182 1505.83,-182 1502,-178.17 1502,-174.33 1502,-174.33 1502,-166.67 1502,-166.67 1502,-162.83 1505.83,-159 1509.67,-159 1509.67,-159 1672.33,-159 1672.33,-159 1676.17,-159 1680,-162.83 1680,-166.67 1680,-166.67 1680,-174.33 1680,-174.33 1680,-178.17 1676.17,-182 1672.33,-182"/>
<text text-anchor="middle" x="1591" y="-166.8" font-family="Arial" font-size="14.00" fill="#cfffac">tools/loader/scriptStore.js</text>
</g>
<!-- tools/loader/loader.js&#45;&gt;tools/loader/scriptStore.js -->
<g id="edge59" class="edge">
<title>tools/loader/loader.js&#45;&gt;tools/loader/scriptStore.js</title>
<path fill="none" stroke="#757575" d="M1385.77,-140.38C1421.35,-145.63 1464.31,-151.96 1501.63,-157.47"/>
<polygon fill="#757575" stroke="#757575" points="1501.59,-161 1511.99,-159 1502.61,-154.07 1501.59,-161"/>
</g>
<!-- plugins/JSzip/JSzip.js -->
<g id="node23" class="node">
<title>plugins/JSzip/JSzip.js</title>
<path fill="none" stroke="#c6c5fe" d="M1085.83,-346C1085.83,-346 947.17,-346 947.17,-346 943.33,-346 939.5,-342.17 939.5,-338.33 939.5,-338.33 939.5,-330.67 939.5,-330.67 939.5,-326.83 943.33,-323 947.17,-323 947.17,-323 1085.83,-323 1085.83,-323 1089.67,-323 1093.5,-326.83 1093.5,-330.67 1093.5,-330.67 1093.5,-338.33 1093.5,-338.33 1093.5,-342.17 1089.67,-346 1085.83,-346"/>
<text text-anchor="middle" x="1016.5" y="-330.8" font-family="Arial" font-size="14.00" fill="#c6c5fe">plugins/JSzip/JSzip.js</text>
</g>
<!-- plugins/JSzip/JSzip.js&#45;&gt;tools/loader/loader.js -->
<g id="edge29" class="edge">
<title>plugins/JSzip/JSzip.js&#45;&gt;tools/loader/loader.js</title>
<path fill="none" stroke="#757575" d="M1093.59,-332.24C1108.82,-328.84 1123.85,-323.06 1136,-313.5 1167.29,-288.9 1147.16,-262.6 1172,-231.5 1201.74,-194.27 1248.19,-163.74 1278.86,-146.08"/>
<polygon fill="#757575" stroke="#757575" points="1280.84,-148.98 1287.83,-141.01 1277.41,-142.88 1280.84,-148.98"/>
</g>
<!-- plugins/JSzip/zipper.js -->
<g id="node24" class="node">
<title>plugins/JSzip/zipper.js</title>
<path fill="none" stroke="#c6c5fe" d="M802.83,-306C802.83,-306 660.17,-306 660.17,-306 656.33,-306 652.5,-302.17 652.5,-298.33 652.5,-298.33 652.5,-290.67 652.5,-290.67 652.5,-286.83 656.33,-283 660.17,-283 660.17,-283 802.83,-283 802.83,-283 806.67,-283 810.5,-286.83 810.5,-290.67 810.5,-290.67 810.5,-298.33 810.5,-298.33 810.5,-302.17 806.67,-306 802.83,-306"/>
<text text-anchor="middle" x="731.5" y="-290.8" font-family="Arial" font-size="14.00" fill="#c6c5fe">plugins/JSzip/zipper.js</text>
</g>
<!-- plugins/JSzip/zipper.js&#45;&gt;plugins/JSzip/JSzip.js -->
<g id="edge30" class="edge">
<title>plugins/JSzip/zipper.js&#45;&gt;plugins/JSzip/JSzip.js</title>
<path fill="none" stroke="#757575" d="M810.58,-305.54C847.38,-310.74 891.38,-316.96 929.17,-322.3"/>
<polygon fill="#757575" stroke="#757575" points="928.75,-325.77 939.14,-323.71 929.73,-318.84 928.75,-325.77"/>
</g>
<!-- plugins/Request.js&#45;&gt;core/PluginSystem.js -->
<g id="edge31" class="edge">
<title>plugins/Request.js&#45;&gt;core/PluginSystem.js</title>
<path fill="none" stroke="#757575" d="M554.63,-375.23C582.92,-375.11 616.28,-374.97 646.31,-374.85"/>
<polygon fill="#757575" stroke="#757575" points="646.37,-378.35 656.35,-374.81 646.34,-371.35 646.37,-378.35"/>
</g>
<!-- utils/concurrent.js -->
<g id="node26" class="node">
<title>utils/concurrent.js</title>
<path fill="none" stroke="#c6c5fe" d="M786.83,-427C786.83,-427 676.17,-427 676.17,-427 672.33,-427 668.5,-423.17 668.5,-419.33 668.5,-419.33 668.5,-411.67 668.5,-411.67 668.5,-407.83 672.33,-404 676.17,-404 676.17,-404 786.83,-404 786.83,-404 790.67,-404 794.5,-407.83 794.5,-411.67 794.5,-411.67 794.5,-419.33 794.5,-419.33 794.5,-423.17 790.67,-427 786.83,-427"/>
<text text-anchor="middle" x="731.5" y="-411.8" font-family="Arial" font-size="14.00" fill="#c6c5fe">utils/concurrent.js</text>
</g>
<!-- plugins/Request.js&#45;&gt;utils/concurrent.js -->
<g id="edge32" class="edge">
<title>plugins/Request.js&#45;&gt;utils/concurrent.js</title>
<path fill="none" stroke="#757575" d="M554.51,-386.59C570.08,-389.2 586.63,-391.96 602,-394.5 620.25,-397.52 639.97,-400.75 658.35,-403.76"/>
<polygon fill="#757575" stroke="#757575" points="657.97,-407.24 668.4,-405.4 659.1,-400.33 657.97,-407.24"/>
</g>
<!-- utils/retryAndDelay.js -->
<g id="node41" class="node">
<title>utils/retryAndDelay.js</title>
<path fill="none" stroke="#c6c5fe" d="M1377.83,-445C1377.83,-445 1244.17,-445 1244.17,-445 1240.33,-445 1236.5,-441.17 1236.5,-437.33 1236.5,-437.33 1236.5,-429.67 1236.5,-429.67 1236.5,-425.83 1240.33,-422 1244.17,-422 1244.17,-422 1377.83,-422 1377.83,-422 1381.67,-422 1385.5,-425.83 1385.5,-429.67 1385.5,-429.67 1385.5,-437.33 1385.5,-437.33 1385.5,-441.17 1381.67,-445 1377.83,-445"/>
<text text-anchor="middle" x="1311" y="-429.8" font-family="Arial" font-size="14.00" fill="#c6c5fe">utils/retryAndDelay.js</text>
</g>
<!-- utils/concurrent.js&#45;&gt;utils/retryAndDelay.js -->
<g id="edge61" class="edge">
<title>utils/concurrent.js&#45;&gt;utils/retryAndDelay.js</title>
<path fill="none" stroke="#757575" d="M794.58,-417.43C898.75,-420.68 1108.81,-427.23 1226.05,-430.88"/>
<polygon fill="#757575" stroke="#757575" points="1225.96,-434.38 1236.06,-431.2 1226.18,-427.39 1225.96,-434.38"/>
</g>
<!-- plugins/zipFile.js&#45;&gt;core/PluginSystem.js -->
<g id="edge37" class="edge">
<title>plugins/zipFile.js&#45;&gt;core/PluginSystem.js</title>
<path fill="none" stroke="#757575" d="M548.01,-344.34C578.96,-349.45 617.21,-355.77 650.69,-361.31"/>
<polygon fill="#757575" stroke="#757575" points="650.47,-364.82 660.91,-363 651.62,-357.91 650.47,-364.82"/>
</g>
<!-- plugins/zipFile.js&#45;&gt;core/Task/TaskGroup.js -->
<g id="edge38" class="edge">
<title>plugins/zipFile.js&#45;&gt;core/Task/TaskGroup.js</title>
<path fill="none" stroke="#757575" d="M548.38,-343.95C554.76,-346.65 560.8,-350.1 566,-354.5 596.07,-379.96 570.81,-411.43 602,-435.5 612.41,-443.53 624.72,-449 637.54,-452.65"/>
<polygon fill="#757575" stroke="#757575" points="636.87,-456.09 647.41,-455.1 638.55,-449.3 636.87,-456.09"/>
</g>
<!-- plugins/zipFile.js&#45;&gt;plugins/utils/toFile.js -->
<g id="edge41" class="edge">
<title>plugins/zipFile.js&#45;&gt;plugins/utils/toFile.js</title>
<path fill="none" stroke="#757575" d="M545.94,-322.98C552.96,-320.42 559.83,-317.3 566,-313.5 586.37,-300.97 580.97,-284.89 602,-273.5 616.47,-265.67 633.11,-260.67 649.52,-257.54"/>
<polygon fill="#757575" stroke="#757575" points="650.41,-260.94 659.69,-255.81 649.24,-254.03 650.41,-260.94"/>
</g>
<!-- plugins/zipFile.js&#45;&gt;plugins/JSzip/JSzip.js -->
<g id="edge39" class="edge">
<title>plugins/zipFile.js&#45;&gt;plugins/JSzip/JSzip.js</title>
<path fill="none" stroke="#757575" d="M548.18,-334.5C641.38,-334.5 821.9,-334.5 929.24,-334.5"/>
<polygon fill="#757575" stroke="#757575" points="929.4,-338 939.4,-334.5 929.4,-331 929.4,-338"/>
</g>
<!-- plugins/zipFile.js&#45;&gt;plugins/JSzip/zipper.js -->
<g id="edge40" class="edge">
<title>plugins/zipFile.js&#45;&gt;plugins/JSzip/zipper.js</title>
<path fill="none" stroke="#757575" d="M548.01,-324.66C578.96,-319.55 617.21,-313.23 650.69,-307.69"/>
<polygon fill="#757575" stroke="#757575" points="651.62,-311.09 660.91,-306 650.47,-304.18 651.62,-311.09"/>
</g>
<!-- tools/Mock/Mock.js&#45;&gt;tools/loader/loader.js -->
<g id="edge45" class="edge">
<title>tools/Mock/Mock.js&#45;&gt;tools/loader/loader.js</title>
<path fill="none" stroke="#757575" d="M800.21,-49C880.86,-49.52 1019.34,-53.95 1136,-75.5 1183.28,-84.23 1235.75,-101.63 1270.59,-114.33"/>
<polygon fill="#757575" stroke="#757575" points="1269.77,-117.76 1280.37,-117.94 1272.2,-111.19 1269.77,-117.76"/>
</g>
<!-- tools/Mock/Server/index.js -->
<g id="node29" class="node">
<title>tools/Mock/Server/index.js</title>
<path fill="none" stroke="#c6c5fe" d="M1099.83,-23C1099.83,-23 933.17,-23 933.17,-23 929.33,-23 925.5,-19.17 925.5,-15.33 925.5,-15.33 925.5,-7.67 925.5,-7.67 925.5,-3.83 929.33,0 933.17,0 933.17,0 1099.83,0 1099.83,0 1103.67,0 1107.5,-3.83 1107.5,-7.67 1107.5,-7.67 1107.5,-15.33 1107.5,-15.33 1107.5,-19.17 1103.67,-23 1099.83,-23"/>
<text text-anchor="middle" x="1016.5" y="-7.8" font-family="Arial" font-size="14.00" fill="#c6c5fe">tools/Mock/Server/index.js</text>
</g>
<!-- tools/Mock/Mock.js&#45;&gt;tools/Mock/Server/index.js -->
<g id="edge44" class="edge">
<title>tools/Mock/Mock.js&#45;&gt;tools/Mock/Server/index.js</title>
<path fill="none" stroke="#757575" d="M800.29,-40.4C835.94,-35.61 880.25,-29.66 919.38,-24.41"/>
<polygon fill="#757575" stroke="#757575" points="920.29,-27.82 929.74,-23.02 919.36,-20.88 920.29,-27.82"/>
</g>
<!-- tools/Mock/Server/excel.js -->
<g id="node30" class="node">
<title>tools/Mock/Server/excel.js</title>
<path fill="none" stroke="#cfffac" d="M1394.33,-23C1394.33,-23 1227.67,-23 1227.67,-23 1223.83,-23 1220,-19.17 1220,-15.33 1220,-15.33 1220,-7.67 1220,-7.67 1220,-3.83 1223.83,0 1227.67,0 1227.67,0 1394.33,0 1394.33,0 1398.17,0 1402,-3.83 1402,-7.67 1402,-7.67 1402,-15.33 1402,-15.33 1402,-19.17 1398.17,-23 1394.33,-23"/>
<text text-anchor="middle" x="1311" y="-7.8" font-family="Arial" font-size="14.00" fill="#cfffac">tools/Mock/Server/excel.js</text>
</g>
<!-- tools/Mock/Server/index.js&#45;&gt;tools/Mock/Server/excel.js -->
<g id="edge46" class="edge">
<title>tools/Mock/Server/index.js&#45;&gt;tools/Mock/Server/excel.js</title>
<path fill="none" stroke="#757575" d="M1107.65,-11.5C1139.97,-11.5 1176.61,-11.5 1209.74,-11.5"/>
<polygon fill="#757575" stroke="#757575" points="1209.9,-15 1219.9,-11.5 1209.9,-8 1209.9,-15"/>
</g>
<!-- tools/analysis/Search/GlobalVars.js -->
<g id="node31" class="node">
<title>tools/analysis/Search/GlobalVars.js</title>
<path fill="none" stroke="#c6c5fe" d="M1128.33,-305C1128.33,-305 904.67,-305 904.67,-305 900.83,-305 897,-301.17 897,-297.33 897,-297.33 897,-289.67 897,-289.67 897,-285.83 900.83,-282 904.67,-282 904.67,-282 1128.33,-282 1128.33,-282 1132.17,-282 1136,-285.83 1136,-289.67 1136,-289.67 1136,-297.33 1136,-297.33 1136,-301.17 1132.17,-305 1128.33,-305"/>
<text text-anchor="middle" x="1016.5" y="-289.8" font-family="Arial" font-size="14.00" fill="#c6c5fe">tools/analysis/Search/GlobalVars.js</text>
</g>
<!-- tools/analysis/Search/window&#45;default.json -->
<g id="node32" class="node">
<title>tools/analysis/Search/window&#45;default.json</title>
<path fill="none" stroke="#cfffac" d="M1442.33,-305C1442.33,-305 1179.67,-305 1179.67,-305 1175.83,-305 1172,-301.17 1172,-297.33 1172,-297.33 1172,-289.67 1172,-289.67 1172,-285.83 1175.83,-282 1179.67,-282 1179.67,-282 1442.33,-282 1442.33,-282 1446.17,-282 1450,-285.83 1450,-289.67 1450,-289.67 1450,-297.33 1450,-297.33 1450,-301.17 1446.17,-305 1442.33,-305"/>
<text text-anchor="middle" x="1311" y="-289.8" font-family="Arial" font-size="14.00" fill="#cfffac">tools/analysis/Search/window&#45;default.json</text>
</g>
<!-- tools/analysis/Search/GlobalVars.js&#45;&gt;tools/analysis/Search/window&#45;default.json -->
<g id="edge47" class="edge">
<title>tools/analysis/Search/GlobalVars.js&#45;&gt;tools/analysis/Search/window&#45;default.json</title>
<path fill="none" stroke="#757575" d="M1136.05,-293.5C1144.47,-293.5 1153.02,-293.5 1161.58,-293.5"/>
<polygon fill="#757575" stroke="#757575" points="1161.63,-297 1171.63,-293.5 1161.63,-290 1161.63,-297"/>
</g>
<!-- tools/analysis/Search/Search.js -->
<g id="node33" class="node">
<title>tools/analysis/Search/Search.js</title>
<path fill="none" stroke="#c6c5fe" d="M1115.33,-264C1115.33,-264 917.67,-264 917.67,-264 913.83,-264 910,-260.17 910,-256.33 910,-256.33 910,-248.67 910,-248.67 910,-244.83 913.83,-241 917.67,-241 917.67,-241 1115.33,-241 1115.33,-241 1119.17,-241 1123,-244.83 1123,-248.67 1123,-248.67 1123,-256.33 1123,-256.33 1123,-260.17 1119.17,-264 1115.33,-264"/>
<text text-anchor="middle" x="1016.5" y="-248.8" font-family="Arial" font-size="14.00" fill="#c6c5fe">tools/analysis/Search/Search.js</text>
</g>
<!-- tools/analysis/Search/searchObj.js -->
<g id="node34" class="node">
<title>tools/analysis/Search/searchObj.js</title>
<path fill="none" stroke="#c6c5fe" d="M1419.83,-264C1419.83,-264 1202.17,-264 1202.17,-264 1198.33,-264 1194.5,-260.17 1194.5,-256.33 1194.5,-256.33 1194.5,-248.67 1194.5,-248.67 1194.5,-244.83 1198.33,-241 1202.17,-241 1202.17,-241 1419.83,-241 1419.83,-241 1423.67,-241 1427.5,-244.83 1427.5,-248.67 1427.5,-248.67 1427.5,-256.33 1427.5,-256.33 1427.5,-260.17 1423.67,-264 1419.83,-264"/>
<text text-anchor="middle" x="1311" y="-248.8" font-family="Arial" font-size="14.00" fill="#c6c5fe">tools/analysis/Search/searchObj.js</text>
</g>
<!-- tools/analysis/Search/Search.js&#45;&gt;tools/analysis/Search/searchObj.js -->
<g id="edge48" class="edge">
<title>tools/analysis/Search/Search.js&#45;&gt;tools/analysis/Search/searchObj.js</title>
<path fill="none" stroke="#757575" d="M1123.1,-252.5C1142.84,-252.5 1163.65,-252.5 1183.93,-252.5"/>
<polygon fill="#757575" stroke="#757575" points="1184.16,-256 1194.16,-252.5 1184.16,-249 1184.16,-256"/>
</g>
<!-- tools/analysis/Search/searchObj.js&#45;&gt;utils/type.js -->
<g id="edge49" class="edge">
<title>tools/analysis/Search/searchObj.js&#45;&gt;utils/type.js</title>
<path fill="none" stroke="#757575" d="M1427.88,-252.5C1466.03,-252.5 1506.57,-252.5 1537.57,-252.5"/>
<polygon fill="#757575" stroke="#757575" points="1537.7,-256 1547.7,-252.5 1537.7,-249 1537.7,-256"/>
</g>
<!-- tools/analysis/antiDebugger.js -->
<g id="node35" class="node">
<title>tools/analysis/antiDebugger.js</title>
<path fill="none" stroke="#cfffac" d="M1111.33,-182C1111.33,-182 921.67,-182 921.67,-182 917.83,-182 914,-178.17 914,-174.33 914,-174.33 914,-166.67 914,-166.67 914,-162.83 917.83,-159 921.67,-159 921.67,-159 1111.33,-159 1111.33,-159 1115.17,-159 1119,-162.83 1119,-166.67 1119,-166.67 1119,-174.33 1119,-174.33 1119,-178.17 1115.17,-182 1111.33,-182"/>
<text text-anchor="middle" x="1016.5" y="-166.8" font-family="Arial" font-size="14.00" fill="#cfffac">tools/analysis/antiDebugger.js</text>
</g>
<!-- tools/analysis/copy.js -->
<g id="node36" class="node">
<title>tools/analysis/copy.js</title>
<path fill="none" stroke="#cfffac" d="M1083.83,-223C1083.83,-223 949.17,-223 949.17,-223 945.33,-223 941.5,-219.17 941.5,-215.33 941.5,-215.33 941.5,-207.67 941.5,-207.67 941.5,-203.83 945.33,-200 949.17,-200 949.17,-200 1083.83,-200 1083.83,-200 1087.67,-200 1091.5,-203.83 1091.5,-207.67 1091.5,-207.67 1091.5,-215.33 1091.5,-215.33 1091.5,-219.17 1087.67,-223 1083.83,-223"/>
<text text-anchor="middle" x="1016.5" y="-207.8" font-family="Arial" font-size="14.00" fill="#cfffac">tools/analysis/copy.js</text>
</g>
<!-- tools/analysis/index.js&#45;&gt;tools/analysis/Search/GlobalVars.js -->
<g id="edge50" class="edge">
<title>tools/analysis/index.js&#45;&gt;tools/analysis/Search/GlobalVars.js</title>
<path fill="none" stroke="#757575" d="M808.02,-215.22C826.17,-218.4 844.93,-223.72 861,-232.5 881.99,-243.97 876.09,-260.89 897,-272.5 900.91,-274.67 904.99,-276.62 909.19,-278.38"/>
<polygon fill="#757575" stroke="#757575" points="907.96,-281.66 918.55,-281.93 910.44,-275.11 907.96,-281.66"/>
</g>
<!-- tools/analysis/index.js&#45;&gt;tools/analysis/Search/Search.js -->
<g id="edge51" class="edge">
<title>tools/analysis/index.js&#45;&gt;tools/analysis/Search/Search.js</title>
<path fill="none" stroke="#757575" d="M808.34,-222.49C844.56,-227.73 888.16,-234.05 925.99,-239.53"/>
<polygon fill="#757575" stroke="#757575" points="925.59,-243.01 935.99,-240.98 926.59,-236.08 925.59,-243.01"/>
</g>
<!-- tools/analysis/index.js&#45;&gt;tools/analysis/antiDebugger.js -->
<g id="edge52" class="edge">
<title>tools/analysis/index.js&#45;&gt;tools/analysis/antiDebugger.js</title>
<path fill="none" stroke="#757575" d="M808.34,-200.51C844.56,-195.27 888.16,-188.95 925.99,-183.47"/>
<polygon fill="#757575" stroke="#757575" points="926.59,-186.92 935.99,-182.02 925.59,-179.99 926.59,-186.92"/>
</g>
<!-- tools/analysis/index.js&#45;&gt;tools/analysis/copy.js -->
<g id="edge53" class="edge">
<title>tools/analysis/index.js&#45;&gt;tools/analysis/copy.js</title>
<path fill="none" stroke="#757575" d="M808.34,-211.5C846.21,-211.5 892.15,-211.5 931.14,-211.5"/>
<polygon fill="#757575" stroke="#757575" points="931.41,-215 941.41,-211.5 931.41,-208 931.41,-215"/>
</g>
<!-- utils/retryAndDelay.js&#45;&gt;core/Errors/errors.js -->
<g id="edge62" class="edge">
<title>utils/retryAndDelay.js&#45;&gt;core/Errors/errors.js</title>
<path fill="none" stroke="#757575" d="M1385.65,-441.82C1462.98,-450.63 1588.09,-465.09 1696,-478.5 1704.31,-479.53 1712.99,-480.64 1721.64,-481.75"/>
<polygon fill="#757575" stroke="#757575" points="1721.4,-485.25 1731.77,-483.06 1722.3,-478.31 1721.4,-485.25"/>
</g>
</g>
</svg>
