<?xml version="1.0" encoding="UTF-8" standalone="no"?>
<!DOCTYPE svg PUBLIC "-//W3C//DTD SVG 1.1//EN"
 "http://www.w3.org/Graphics/SVG/1.1/DTD/svg11.dtd">
<!-- Generated by graphviz version 2.47.3 (20210619.1520)
 -->
<!-- Title: G Pages: 1 -->
<svg width="2089pt" height="869pt"
 viewBox="0.00 0.00 2089.20 869.20" xmlns="http://www.w3.org/2000/svg" xmlns:xlink="http://www.w3.org/1999/xlink">
<g id="graph0" class="graph" transform="scale(1 1) rotate(0) translate(21.6 847.6)">
<title>G</title>
<polygon fill="#111111" stroke="transparent" points="-21.6,21.6 -21.6,-847.6 2067.6,-847.6 2067.6,21.6 -21.6,21.6"/>
<!-- FakeServer/src/parseURL.js -->
<g id="node1" class="node">
<title>FakeServer/src/parseURL.js</title>
<path fill="none" stroke="#cfffac" d="M699.83,-764C699.83,-764 519.17,-764 519.17,-764 515.33,-764 511.5,-760.17 511.5,-756.33 511.5,-756.33 511.5,-748.67 511.5,-748.67 511.5,-744.83 515.33,-741 519.17,-741 519.17,-741 699.83,-741 699.83,-741 703.67,-741 707.5,-744.83 707.5,-748.67 707.5,-748.67 707.5,-756.33 707.5,-756.33 707.5,-760.17 703.67,-764 699.83,-764"/>
<text text-anchor="middle" x="609.5" y="-748.8" font-family="Arial" font-size="14.00" fill="#cfffac">FakeServer/src/parseURL.js</text>
</g>
<!-- index.js -->
<g id="node2" class="node">
<title>index.js</title>
<path fill="none" stroke="#c6c5fe" d="M57.33,-305C57.33,-305 7.67,-305 7.67,-305 3.83,-305 0,-301.17 0,-297.33 0,-297.33 0,-289.67 0,-289.67 0,-285.83 3.83,-282 7.67,-282 7.67,-282 57.33,-282 57.33,-282 61.17,-282 65,-285.83 65,-289.67 65,-289.67 65,-297.33 65,-297.33 65,-301.17 61.17,-305 57.33,-305"/>
<text text-anchor="middle" x="32.5" y="-289.8" font-family="Arial" font-size="14.00" fill="#c6c5fe">index.js</text>
</g>
<!-- plugins/index.js -->
<g id="node3" class="node">
<title>plugins/index.js</title>
<path fill="none" stroke="#c6c5fe" d="M216.83,-345C216.83,-345 119.17,-345 119.17,-345 115.33,-345 111.5,-341.17 111.5,-337.33 111.5,-337.33 111.5,-329.67 111.5,-329.67 111.5,-325.83 115.33,-322 119.17,-322 119.17,-322 216.83,-322 216.83,-322 220.67,-322 224.5,-325.83 224.5,-329.67 224.5,-329.67 224.5,-337.33 224.5,-337.33 224.5,-341.17 220.67,-345 216.83,-345"/>
<text text-anchor="middle" x="168" y="-329.8" font-family="Arial" font-size="14.00" fill="#c6c5fe">plugins/index.js</text>
</g>
<!-- index.js&#45;&gt;plugins/index.js -->
<g id="edge1" class="edge">
<title>index.js&#45;&gt;plugins/index.js</title>
<path fill="none" stroke="#757575" d="M65.14,-302.98C81.14,-307.77 100.91,-313.7 118.76,-319.05"/>
<polygon fill="#757575" stroke="#757575" points="117.86,-322.43 128.45,-321.95 119.87,-315.72 117.86,-322.43"/>
</g>
<!-- src/Pipeline/PluginSystem.js -->
<g id="node4" class="node">
<title>src/Pipeline/PluginSystem.js</title>
<path fill="none" stroke="#c6c5fe" d="M699.83,-305C699.83,-305 519.17,-305 519.17,-305 515.33,-305 511.5,-301.17 511.5,-297.33 511.5,-297.33 511.5,-289.67 511.5,-289.67 511.5,-285.83 515.33,-282 519.17,-282 519.17,-282 699.83,-282 699.83,-282 703.67,-282 707.5,-285.83 707.5,-289.67 707.5,-289.67 707.5,-297.33 707.5,-297.33 707.5,-301.17 703.67,-305 699.83,-305"/>
<text text-anchor="middle" x="609.5" y="-289.8" font-family="Arial" font-size="14.00" fill="#c6c5fe">src/Pipeline/PluginSystem.js</text>
</g>
<!-- index.js&#45;&gt;src/Pipeline/PluginSystem.js -->
<g id="edge2" class="edge">
<title>index.js&#45;&gt;src/Pipeline/PluginSystem.js</title>
<path fill="none" stroke="#757575" d="M65.23,-293.5C146.92,-293.5 367.37,-293.5 501.01,-293.5"/>
<polygon fill="#757575" stroke="#757575" points="501.27,-297 511.27,-293.5 501.27,-290 501.27,-297"/>
</g>
<!-- src/Spider/index.js -->
<g id="node5" class="node">
<title>src/Spider/index.js</title>
<path fill="none" stroke="#c6c5fe" d="M227.33,-164C227.33,-164 108.67,-164 108.67,-164 104.83,-164 101,-160.17 101,-156.33 101,-156.33 101,-148.67 101,-148.67 101,-144.83 104.83,-141 108.67,-141 108.67,-141 227.33,-141 227.33,-141 231.17,-141 235,-144.83 235,-148.67 235,-148.67 235,-156.33 235,-156.33 235,-160.17 231.17,-164 227.33,-164"/>
<text text-anchor="middle" x="168" y="-148.8" font-family="Arial" font-size="14.00" fill="#c6c5fe">src/Spider/index.js</text>
</g>
<!-- index.js&#45;&gt;src/Spider/index.js -->
<g id="edge3" class="edge">
<title>index.js&#45;&gt;src/Spider/index.js</title>
<path fill="none" stroke="#757575" d="M40.06,-281.71C51,-262.73 74.41,-224.85 101,-198.5 112.02,-187.58 125.89,-177.48 138.08,-169.54"/>
<polygon fill="#757575" stroke="#757575" points="140,-172.47 146.59,-164.16 136.26,-166.55 140,-172.47"/>
</g>
<!-- src/TaskSystem/index.js -->
<g id="node6" class="node">
<title>src/TaskSystem/index.js</title>
<path fill="none" stroke="#c6c5fe" d="M971.83,-305C971.83,-305 817.17,-305 817.17,-305 813.33,-305 809.5,-301.17 809.5,-297.33 809.5,-297.33 809.5,-289.67 809.5,-289.67 809.5,-285.83 813.33,-282 817.17,-282 817.17,-282 971.83,-282 971.83,-282 975.67,-282 979.5,-285.83 979.5,-289.67 979.5,-289.67 979.5,-297.33 979.5,-297.33 979.5,-301.17 975.67,-305 971.83,-305"/>
<text text-anchor="middle" x="894.5" y="-289.8" font-family="Arial" font-size="14.00" fill="#c6c5fe">src/TaskSystem/index.js</text>
</g>
<!-- index.js&#45;&gt;src/TaskSystem/index.js -->
<g id="edge4" class="edge">
<title>index.js&#45;&gt;src/TaskSystem/index.js</title>
<path fill="none" stroke="#757575" d="M65.28,-282.66C110.38,-267.89 195.84,-242.18 271,-232.5 305.5,-228.06 732,-228.33 739,-231.5 761.09,-241.5 753.87,-260.6 775,-272.5 782.67,-276.82 791.03,-280.29 799.64,-283.06"/>
<polygon fill="#757575" stroke="#757575" points="798.86,-286.48 809.44,-285.92 800.82,-279.76 798.86,-286.48"/>
</g>
<!-- tools/index.js -->
<g id="node7" class="node">
<title>tools/index.js</title>
<path fill="none" stroke="#c6c5fe" d="M399.33,-643C399.33,-643 315.67,-643 315.67,-643 311.83,-643 308,-639.17 308,-635.33 308,-635.33 308,-627.67 308,-627.67 308,-623.83 311.83,-620 315.67,-620 315.67,-620 399.33,-620 399.33,-620 403.17,-620 407,-623.83 407,-627.67 407,-627.67 407,-635.33 407,-635.33 407,-639.17 403.17,-643 399.33,-643"/>
<text text-anchor="middle" x="357.5" y="-627.8" font-family="Arial" font-size="14.00" fill="#c6c5fe">tools/index.js</text>
</g>
<!-- index.js&#45;&gt;tools/index.js -->
<g id="edge5" class="edge">
<title>index.js&#45;&gt;tools/index.js</title>
<path fill="none" stroke="#757575" d="M44.62,-305.13C92.18,-354.9 278.79,-550.18 338.22,-612.37"/>
<polygon fill="#757575" stroke="#757575" points="335.99,-615.1 345.43,-619.91 341.05,-610.27 335.99,-615.1"/>
</g>
<!-- plugins/Download.js -->
<g id="node8" class="node">
<title>plugins/Download.js</title>
<path fill="none" stroke="#c6c5fe" d="M421.33,-345C421.33,-345 293.67,-345 293.67,-345 289.83,-345 286,-341.17 286,-337.33 286,-337.33 286,-329.67 286,-329.67 286,-325.83 289.83,-322 293.67,-322 293.67,-322 421.33,-322 421.33,-322 425.17,-322 429,-325.83 429,-329.67 429,-329.67 429,-337.33 429,-337.33 429,-341.17 425.17,-345 421.33,-345"/>
<text text-anchor="middle" x="357.5" y="-329.8" font-family="Arial" font-size="14.00" fill="#c6c5fe">plugins/Download.js</text>
</g>
<!-- plugins/index.js&#45;&gt;plugins/Download.js -->
<g id="edge17" class="edge">
<title>plugins/index.js&#45;&gt;plugins/Download.js</title>
<path fill="none" stroke="#757575" d="M224.75,-333.5C240.81,-333.5 258.67,-333.5 275.91,-333.5"/>
<polygon fill="#757575" stroke="#757575" points="275.98,-337 285.98,-333.5 275.98,-330 275.98,-337"/>
</g>
<!-- plugins/ExcelHelper.js -->
<g id="node10" class="node">
<title>plugins/ExcelHelper.js</title>
<path fill="none" stroke="#c6c5fe" d="M428.33,-467C428.33,-467 286.67,-467 286.67,-467 282.83,-467 279,-463.17 279,-459.33 279,-459.33 279,-451.67 279,-451.67 279,-447.83 282.83,-444 286.67,-444 286.67,-444 428.33,-444 428.33,-444 432.17,-444 436,-447.83 436,-451.67 436,-451.67 436,-459.33 436,-459.33 436,-463.17 432.17,-467 428.33,-467"/>
<text text-anchor="middle" x="357.5" y="-451.8" font-family="Arial" font-size="14.00" fill="#c6c5fe">plugins/ExcelHelper.js</text>
</g>
<!-- plugins/index.js&#45;&gt;plugins/ExcelHelper.js -->
<g id="edge18" class="edge">
<title>plugins/index.js&#45;&gt;plugins/ExcelHelper.js</title>
<path fill="none" stroke="#757575" d="M186.98,-345.2C220.16,-366.79 291.16,-412.98 329.91,-438.2"/>
<polygon fill="#757575" stroke="#757575" points="328.29,-441.32 338.58,-443.84 332.1,-435.45 328.29,-441.32"/>
</g>
<!-- plugins/Request.js -->
<g id="node16" class="node">
<title>plugins/Request.js</title>
<path fill="none" stroke="#c6c5fe" d="M416.83,-265C416.83,-265 298.17,-265 298.17,-265 294.33,-265 290.5,-261.17 290.5,-257.33 290.5,-257.33 290.5,-249.67 290.5,-249.67 290.5,-245.83 294.33,-242 298.17,-242 298.17,-242 416.83,-242 416.83,-242 420.67,-242 424.5,-245.83 424.5,-249.67 424.5,-249.67 424.5,-257.33 424.5,-257.33 424.5,-261.17 420.67,-265 416.83,-265"/>
<text text-anchor="middle" x="357.5" y="-249.8" font-family="Arial" font-size="14.00" fill="#c6c5fe">plugins/Request.js</text>
</g>
<!-- plugins/index.js&#45;&gt;plugins/Request.js -->
<g id="edge19" class="edge">
<title>plugins/index.js&#45;&gt;plugins/Request.js</title>
<path fill="none" stroke="#757575" d="M196.26,-321.87C228.99,-307.9 283.98,-284.44 320.26,-268.96"/>
<polygon fill="#757575" stroke="#757575" points="321.68,-272.16 329.51,-265.02 318.94,-265.72 321.68,-272.16"/>
</g>
<!-- plugins/zipFile.js -->
<g id="node18" class="node">
<title>plugins/zipFile.js</title>
<path fill="none" stroke="#c6c5fe" d="M410.33,-386C410.33,-386 304.67,-386 304.67,-386 300.83,-386 297,-382.17 297,-378.33 297,-378.33 297,-370.67 297,-370.67 297,-366.83 300.83,-363 304.67,-363 304.67,-363 410.33,-363 410.33,-363 414.17,-363 418,-366.83 418,-370.67 418,-370.67 418,-378.33 418,-378.33 418,-382.17 414.17,-386 410.33,-386"/>
<text text-anchor="middle" x="357.5" y="-370.8" font-family="Arial" font-size="14.00" fill="#c6c5fe">plugins/zipFile.js</text>
</g>
<!-- plugins/index.js&#45;&gt;plugins/zipFile.js -->
<g id="edge20" class="edge">
<title>plugins/index.js&#45;&gt;plugins/zipFile.js</title>
<path fill="none" stroke="#757575" d="M221.73,-345.03C244.19,-349.94 270.57,-355.71 294,-360.83"/>
<polygon fill="#757575" stroke="#757575" points="293.33,-364.27 303.84,-362.99 294.82,-357.43 293.33,-364.27"/>
</g>
<!-- src/Errors/errors.js -->
<g id="node27" class="node">
<title>src/Errors/errors.js</title>
<path fill="none" stroke="#cfffac" d="M1248.33,-385C1248.33,-385 1129.67,-385 1129.67,-385 1125.83,-385 1122,-381.17 1122,-377.33 1122,-377.33 1122,-369.67 1122,-369.67 1122,-365.83 1125.83,-362 1129.67,-362 1129.67,-362 1248.33,-362 1248.33,-362 1252.17,-362 1256,-365.83 1256,-369.67 1256,-369.67 1256,-377.33 1256,-377.33 1256,-381.17 1252.17,-385 1248.33,-385"/>
<text text-anchor="middle" x="1189" y="-369.8" font-family="Arial" font-size="14.00" fill="#cfffac">src/Errors/errors.js</text>
</g>
<!-- src/Pipeline/PluginSystem.js&#45;&gt;src/Errors/errors.js -->
<g id="edge36" class="edge">
<title>src/Pipeline/PluginSystem.js&#45;&gt;src/Errors/errors.js</title>
<path fill="none" stroke="#757575" d="M707.66,-301.13C718.61,-304.15 729.3,-308.17 739,-313.5 760.25,-325.18 753.14,-343.99 775,-354.5 884.83,-407.3 1030.63,-398.42 1116.39,-386.45"/>
<polygon fill="#757575" stroke="#757575" points="1116.89,-389.92 1126.28,-385.02 1115.89,-382.99 1116.89,-389.92"/>
</g>
<!-- src/utils/createUUID.js -->
<g id="node30" class="node">
<title>src/utils/createUUID.js</title>
<path fill="none" stroke="#cfffac" d="M965.33,-264C965.33,-264 823.67,-264 823.67,-264 819.83,-264 816,-260.17 816,-256.33 816,-256.33 816,-248.67 816,-248.67 816,-244.83 819.83,-241 823.67,-241 823.67,-241 965.33,-241 965.33,-241 969.17,-241 973,-244.83 973,-248.67 973,-248.67 973,-256.33 973,-256.33 973,-260.17 969.17,-264 965.33,-264"/>
<text text-anchor="middle" x="894.5" y="-248.8" font-family="Arial" font-size="14.00" fill="#cfffac">src/utils/createUUID.js</text>
</g>
<!-- src/Pipeline/PluginSystem.js&#45;&gt;src/utils/createUUID.js -->
<g id="edge37" class="edge">
<title>src/Pipeline/PluginSystem.js&#45;&gt;src/utils/createUUID.js</title>
<path fill="none" stroke="#757575" d="M690.08,-281.97C726.1,-276.75 768.78,-270.57 805.72,-265.22"/>
<polygon fill="#757575" stroke="#757575" points="806.58,-268.63 815.98,-263.73 805.58,-261.7 806.58,-268.63"/>
</g>
<!-- src/ControlPanel/index.js -->
<g id="node26" class="node">
<title>src/ControlPanel/index.js</title>
<path fill="none" stroke="#c6c5fe" d="M436.33,-143C436.33,-143 278.67,-143 278.67,-143 274.83,-143 271,-139.17 271,-135.33 271,-135.33 271,-127.67 271,-127.67 271,-123.83 274.83,-120 278.67,-120 278.67,-120 436.33,-120 436.33,-120 440.17,-120 444,-123.83 444,-127.67 444,-127.67 444,-135.33 444,-135.33 444,-139.17 440.17,-143 436.33,-143"/>
<text text-anchor="middle" x="357.5" y="-127.8" font-family="Arial" font-size="14.00" fill="#c6c5fe">src/ControlPanel/index.js</text>
</g>
<!-- src/Spider/index.js&#45;&gt;src/ControlPanel/index.js -->
<g id="edge40" class="edge">
<title>src/Spider/index.js&#45;&gt;src/ControlPanel/index.js</title>
<path fill="none" stroke="#757575" d="M235.11,-145.1C243.44,-144.16 252.1,-143.19 260.78,-142.22"/>
<polygon fill="#757575" stroke="#757575" points="261.41,-145.67 270.96,-141.08 260.63,-138.72 261.41,-145.67"/>
</g>
<!-- src/Mirror/Mirror.js -->
<g id="node28" class="node">
<title>src/Mirror/Mirror.js</title>
<path fill="none" stroke="#c6c5fe" d="M1246.33,-23C1246.33,-23 1131.67,-23 1131.67,-23 1127.83,-23 1124,-19.17 1124,-15.33 1124,-15.33 1124,-7.67 1124,-7.67 1124,-3.83 1127.83,0 1131.67,0 1131.67,0 1246.33,0 1246.33,0 1250.17,0 1254,-3.83 1254,-7.67 1254,-7.67 1254,-15.33 1254,-15.33 1254,-19.17 1250.17,-23 1246.33,-23"/>
<text text-anchor="middle" x="1189" y="-7.8" font-family="Arial" font-size="14.00" fill="#c6c5fe">src/Mirror/Mirror.js</text>
</g>
<!-- src/Spider/index.js&#45;&gt;src/Mirror/Mirror.js -->
<g id="edge41" class="edge">
<title>src/Spider/index.js&#45;&gt;src/Mirror/Mirror.js</title>
<path fill="none" stroke="#757575" d="M192.76,-140.89C213.09,-131.4 243.36,-118.33 271,-110.5 575.16,-24.37 955.53,-12.21 1113.7,-11.15"/>
<polygon fill="#757575" stroke="#757575" points="1113.81,-14.65 1123.79,-11.1 1113.77,-7.65 1113.81,-14.65"/>
</g>
<!-- src/Pipeline/index.js -->
<g id="node31" class="node">
<title>src/Pipeline/index.js</title>
<path fill="none" stroke="#c6c5fe" d="M673.33,-184C673.33,-184 545.67,-184 545.67,-184 541.83,-184 538,-180.17 538,-176.33 538,-176.33 538,-168.67 538,-168.67 538,-164.83 541.83,-161 545.67,-161 545.67,-161 673.33,-161 673.33,-161 677.17,-161 681,-164.83 681,-168.67 681,-168.67 681,-176.33 681,-176.33 681,-180.17 677.17,-184 673.33,-184"/>
<text text-anchor="middle" x="609.5" y="-168.8" font-family="Arial" font-size="14.00" fill="#c6c5fe">src/Pipeline/index.js</text>
</g>
<!-- src/Spider/index.js&#45;&gt;src/Pipeline/index.js -->
<g id="edge42" class="edge">
<title>src/Spider/index.js&#45;&gt;src/Pipeline/index.js</title>
<path fill="none" stroke="#757575" d="M235.27,-155.52C313.51,-159.08 443.57,-164.99 527.66,-168.82"/>
<polygon fill="#757575" stroke="#757575" points="527.53,-172.32 537.67,-169.28 527.84,-165.33 527.53,-172.32"/>
</g>
<!-- src/TaskSystem/TaskGroup.js -->
<g id="node19" class="node">
<title>src/TaskSystem/TaskGroup.js</title>
<path fill="none" stroke="#c6c5fe" d="M1284.83,-274C1284.83,-274 1093.17,-274 1093.17,-274 1089.33,-274 1085.5,-270.17 1085.5,-266.33 1085.5,-266.33 1085.5,-258.67 1085.5,-258.67 1085.5,-254.83 1089.33,-251 1093.17,-251 1093.17,-251 1284.83,-251 1284.83,-251 1288.67,-251 1292.5,-254.83 1292.5,-258.67 1292.5,-258.67 1292.5,-266.33 1292.5,-266.33 1292.5,-270.17 1288.67,-274 1284.83,-274"/>
<text text-anchor="middle" x="1189" y="-258.8" font-family="Arial" font-size="14.00" fill="#c6c5fe">src/TaskSystem/TaskGroup.js</text>
</g>
<!-- src/TaskSystem/index.js&#45;&gt;src/TaskSystem/TaskGroup.js -->
<g id="edge49" class="edge">
<title>src/TaskSystem/index.js&#45;&gt;src/TaskSystem/TaskGroup.js</title>
<path fill="none" stroke="#757575" d="M979.71,-284.58C1009.48,-281.42 1043.47,-277.82 1075.22,-274.45"/>
<polygon fill="#757575" stroke="#757575" points="1075.87,-277.9 1085.45,-273.37 1075.14,-270.94 1075.87,-277.9"/>
</g>
<!-- src/TaskSystem/Task.js -->
<g id="node29" class="node">
<title>src/TaskSystem/Task.js</title>
<path fill="none" stroke="#c6c5fe" d="M1541.33,-203C1541.33,-203 1389.67,-203 1389.67,-203 1385.83,-203 1382,-199.17 1382,-195.33 1382,-195.33 1382,-187.67 1382,-187.67 1382,-183.83 1385.83,-180 1389.67,-180 1389.67,-180 1541.33,-180 1541.33,-180 1545.17,-180 1549,-183.83 1549,-187.67 1549,-187.67 1549,-195.33 1549,-195.33 1549,-199.17 1545.17,-203 1541.33,-203"/>
<text text-anchor="middle" x="1465.5" y="-187.8" font-family="Arial" font-size="14.00" fill="#c6c5fe">src/TaskSystem/Task.js</text>
</g>
<!-- src/TaskSystem/index.js&#45;&gt;src/TaskSystem/Task.js -->
<g id="edge48" class="edge">
<title>src/TaskSystem/index.js&#45;&gt;src/TaskSystem/Task.js</title>
<path fill="none" stroke="#757575" d="M979.8,-284.34C991.61,-281.41 1003.34,-277.56 1014,-272.5 1033.08,-263.45 1030.68,-250.02 1050,-241.5 1153.5,-195.84 1284.86,-187.27 1371.64,-187.54"/>
<polygon fill="#757575" stroke="#757575" points="1371.71,-191.04 1381.74,-187.61 1371.76,-184.04 1371.71,-191.04"/>
</g>
<!-- tools/index.js&#45;&gt;FakeServer/src/parseURL.js -->
<g id="edge62" class="edge">
<title>tools/index.js&#45;&gt;FakeServer/src/parseURL.js</title>
<path fill="none" stroke="#757575" d="M368.53,-643.07C387.77,-664.43 432.22,-709.86 480,-731.5 486.87,-734.61 494.14,-737.27 501.57,-739.54"/>
<polygon fill="#757575" stroke="#757575" points="500.86,-742.97 511.43,-742.3 502.75,-736.23 500.86,-742.97"/>
</g>
<!-- tools/loader/loader.js -->
<g id="node13" class="node">
<title>tools/loader/loader.js</title>
<path fill="none" stroke="#c6c5fe" d="M1255.83,-584C1255.83,-584 1122.17,-584 1122.17,-584 1118.33,-584 1114.5,-580.17 1114.5,-576.33 1114.5,-576.33 1114.5,-568.67 1114.5,-568.67 1114.5,-564.83 1118.33,-561 1122.17,-561 1122.17,-561 1255.83,-561 1255.83,-561 1259.67,-561 1263.5,-564.83 1263.5,-568.67 1263.5,-568.67 1263.5,-576.33 1263.5,-576.33 1263.5,-580.17 1259.67,-584 1255.83,-584"/>
<text text-anchor="middle" x="1189" y="-568.8" font-family="Arial" font-size="14.00" fill="#c6c5fe">tools/loader/loader.js</text>
</g>
<!-- tools/index.js&#45;&gt;tools/loader/loader.js -->
<g id="edge65" class="edge">
<title>tools/index.js&#45;&gt;tools/loader/loader.js</title>
<path fill="none" stroke="#757575" d="M407.11,-621.99C429.27,-617.94 455.89,-613.48 480,-610.5 704.44,-582.8 971.36,-575.29 1104.21,-573.25"/>
<polygon fill="#757575" stroke="#757575" points="1104.37,-576.75 1114.32,-573.1 1104.27,-569.75 1104.37,-576.75"/>
</g>
<!-- tools/Mock/Mock.js -->
<g id="node37" class="node">
<title>tools/Mock/Mock.js</title>
<path fill="none" stroke="#c6c5fe" d="M670.33,-643C670.33,-643 548.67,-643 548.67,-643 544.83,-643 541,-639.17 541,-635.33 541,-635.33 541,-627.67 541,-627.67 541,-623.83 544.83,-620 548.67,-620 548.67,-620 670.33,-620 670.33,-620 674.17,-620 678,-623.83 678,-627.67 678,-627.67 678,-635.33 678,-635.33 678,-639.17 674.17,-643 670.33,-643"/>
<text text-anchor="middle" x="609.5" y="-627.8" font-family="Arial" font-size="14.00" fill="#c6c5fe">tools/Mock/Mock.js</text>
</g>
<!-- tools/index.js&#45;&gt;tools/Mock/Mock.js -->
<g id="edge63" class="edge">
<title>tools/index.js&#45;&gt;tools/Mock/Mock.js</title>
<path fill="none" stroke="#757575" d="M407.3,-631.5C442.4,-631.5 490.48,-631.5 530.83,-631.5"/>
<polygon fill="#757575" stroke="#757575" points="530.91,-635 540.91,-631.5 530.91,-628 530.91,-635"/>
</g>
<!-- tools/analysis/index.js -->
<g id="node46" class="node">
<title>tools/analysis/index.js</title>
<path fill="none" stroke="#c6c5fe" d="M678.33,-723C678.33,-723 540.67,-723 540.67,-723 536.83,-723 533,-719.17 533,-715.33 533,-715.33 533,-707.67 533,-707.67 533,-703.83 536.83,-700 540.67,-700 540.67,-700 678.33,-700 678.33,-700 682.17,-700 686,-703.83 686,-707.67 686,-707.67 686,-715.33 686,-715.33 686,-719.17 682.17,-723 678.33,-723"/>
<text text-anchor="middle" x="609.5" y="-707.8" font-family="Arial" font-size="14.00" fill="#c6c5fe">tools/analysis/index.js</text>
</g>
<!-- tools/index.js&#45;&gt;tools/analysis/index.js -->
<g id="edge64" class="edge">
<title>tools/index.js&#45;&gt;tools/analysis/index.js</title>
<path fill="none" stroke="#757575" d="M394.59,-643.05C438.99,-657.26 514.43,-681.4 562.83,-696.88"/>
<polygon fill="#757575" stroke="#757575" points="561.83,-700.24 572.43,-699.96 563.97,-693.57 561.83,-700.24"/>
</g>
<!-- plugins/Download.js&#45;&gt;src/Pipeline/PluginSystem.js -->
<g id="edge7" class="edge">
<title>plugins/Download.js&#45;&gt;src/Pipeline/PluginSystem.js</title>
<path fill="none" stroke="#757575" d="M427.87,-321.97C444.92,-319.17 463.11,-316.2 480,-313.5 494.13,-311.24 509.14,-308.87 523.72,-306.59"/>
<polygon fill="#757575" stroke="#757575" points="524.4,-310.02 533.74,-305.02 523.32,-303.11 524.4,-310.02"/>
</g>
<!-- plugins/utils/toFile.js -->
<g id="node9" class="node">
<title>plugins/utils/toFile.js</title>
<path fill="none" stroke="#cfffac" d="M673.33,-346C673.33,-346 545.67,-346 545.67,-346 541.83,-346 538,-342.17 538,-338.33 538,-338.33 538,-330.67 538,-330.67 538,-326.83 541.83,-323 545.67,-323 545.67,-323 673.33,-323 673.33,-323 677.17,-323 681,-326.83 681,-330.67 681,-330.67 681,-338.33 681,-338.33 681,-342.17 677.17,-346 673.33,-346"/>
<text text-anchor="middle" x="609.5" y="-330.8" font-family="Arial" font-size="14.00" fill="#cfffac">plugins/utils/toFile.js</text>
</g>
<!-- plugins/Download.js&#45;&gt;plugins/utils/toFile.js -->
<g id="edge6" class="edge">
<title>plugins/Download.js&#45;&gt;plugins/utils/toFile.js</title>
<path fill="none" stroke="#757575" d="M429.14,-333.78C459.76,-333.91 495.78,-334.05 527.48,-334.18"/>
<polygon fill="#757575" stroke="#757575" points="527.59,-337.68 537.6,-334.22 527.62,-330.68 527.59,-337.68"/>
</g>
<!-- plugins/ExcelHelper.js&#45;&gt;src/Pipeline/PluginSystem.js -->
<g id="edge10" class="edge">
<title>plugins/ExcelHelper.js&#45;&gt;src/Pipeline/PluginSystem.js</title>
<path fill="none" stroke="#757575" d="M381.06,-443.9C399.97,-433.22 426.59,-415.83 444,-394.5 468.91,-363.98 448.72,-337.45 480,-313.5 486.56,-308.47 493.88,-304.48 501.59,-301.32"/>
<polygon fill="#757575" stroke="#757575" points="502.96,-304.55 511.18,-297.86 500.59,-297.96 502.96,-304.55"/>
</g>
<!-- plugins/ExcelHelper/createExcelFile.js -->
<g id="node11" class="node">
<title>plugins/ExcelHelper/createExcelFile.js</title>
<path fill="none" stroke="#c6c5fe" d="M731.33,-506C731.33,-506 487.67,-506 487.67,-506 483.83,-506 480,-502.17 480,-498.33 480,-498.33 480,-490.67 480,-490.67 480,-486.83 483.83,-483 487.67,-483 487.67,-483 731.33,-483 731.33,-483 735.17,-483 739,-486.83 739,-490.67 739,-490.67 739,-498.33 739,-498.33 739,-502.17 735.17,-506 731.33,-506"/>
<text text-anchor="middle" x="609.5" y="-490.8" font-family="Arial" font-size="14.00" fill="#c6c5fe">plugins/ExcelHelper/createExcelFile.js</text>
</g>
<!-- plugins/ExcelHelper.js&#45;&gt;plugins/ExcelHelper/createExcelFile.js -->
<g id="edge8" class="edge">
<title>plugins/ExcelHelper.js&#45;&gt;plugins/ExcelHelper/createExcelFile.js</title>
<path fill="none" stroke="#757575" d="M432.49,-467.04C461.47,-471.56 494.86,-476.77 524.72,-481.43"/>
<polygon fill="#757575" stroke="#757575" points="524.28,-484.9 534.7,-482.99 525.36,-477.99 524.28,-484.9"/>
</g>
<!-- plugins/ExcelHelper/xlsx.js -->
<g id="node12" class="node">
<title>plugins/ExcelHelper/xlsx.js</title>
<path fill="none" stroke="#c6c5fe" d="M979.33,-544C979.33,-544 809.67,-544 809.67,-544 805.83,-544 802,-540.17 802,-536.33 802,-536.33 802,-528.67 802,-528.67 802,-524.83 805.83,-521 809.67,-521 809.67,-521 979.33,-521 979.33,-521 983.17,-521 987,-524.83 987,-528.67 987,-528.67 987,-536.33 987,-536.33 987,-540.17 983.17,-544 979.33,-544"/>
<text text-anchor="middle" x="894.5" y="-528.8" font-family="Arial" font-size="14.00" fill="#c6c5fe">plugins/ExcelHelper/xlsx.js</text>
</g>
<!-- plugins/ExcelHelper.js&#45;&gt;plugins/ExcelHelper/xlsx.js -->
<g id="edge9" class="edge">
<title>plugins/ExcelHelper.js&#45;&gt;plugins/ExcelHelper/xlsx.js</title>
<path fill="none" stroke="#757575" d="M376.53,-467.19C399.49,-481.38 440.9,-504.61 480,-514.5 583.76,-540.75 706.75,-542.55 791.48,-539.46"/>
<polygon fill="#757575" stroke="#757575" points="791.76,-542.95 801.62,-539.06 791.49,-535.96 791.76,-542.95"/>
</g>
<!-- plugins/ExcelHelper/createExcelFile.js&#45;&gt;plugins/ExcelHelper/xlsx.js -->
<g id="edge11" class="edge">
<title>plugins/ExcelHelper/createExcelFile.js&#45;&gt;plugins/ExcelHelper/xlsx.js</title>
<path fill="none" stroke="#757575" d="M696.18,-506C728.17,-510.3 764.7,-515.2 797.56,-519.62"/>
<polygon fill="#757575" stroke="#757575" points="797.25,-523.11 807.63,-520.97 798.18,-516.17 797.25,-523.11"/>
</g>
<!-- plugins/ExcelHelper/xlsx.js&#45;&gt;tools/loader/loader.js -->
<g id="edge12" class="edge">
<title>plugins/ExcelHelper/xlsx.js&#45;&gt;tools/loader/loader.js</title>
<path fill="none" stroke="#757575" d="M979.71,-544.02C1018.75,-549.35 1065.03,-555.68 1104.04,-561.02"/>
<polygon fill="#757575" stroke="#757575" points="1103.93,-564.54 1114.32,-562.42 1104.88,-557.6 1103.93,-564.54"/>
</g>
<!-- src/utils/type.js -->
<g id="node36" class="node">
<title>src/utils/type.js</title>
<path fill="none" stroke="#cfffac" d="M1512.83,-725C1512.83,-725 1418.17,-725 1418.17,-725 1414.33,-725 1410.5,-721.17 1410.5,-717.33 1410.5,-717.33 1410.5,-709.67 1410.5,-709.67 1410.5,-705.83 1414.33,-702 1418.17,-702 1418.17,-702 1512.83,-702 1512.83,-702 1516.67,-702 1520.5,-705.83 1520.5,-709.67 1520.5,-709.67 1520.5,-717.33 1520.5,-717.33 1520.5,-721.17 1516.67,-725 1512.83,-725"/>
<text text-anchor="middle" x="1465.5" y="-709.8" font-family="Arial" font-size="14.00" fill="#cfffac">src/utils/type.js</text>
</g>
<!-- tools/loader/loader.js&#45;&gt;src/utils/type.js -->
<g id="edge66" class="edge">
<title>tools/loader/loader.js&#45;&gt;src/utils/type.js</title>
<path fill="none" stroke="#757575" d="M1221.88,-584C1250.28,-594.64 1292.67,-611.48 1328,-629.5 1368.31,-650.06 1412.49,-678.39 1439.35,-696.33"/>
<polygon fill="#757575" stroke="#757575" points="1437.52,-699.31 1447.77,-701.99 1441.42,-693.5 1437.52,-699.31"/>
</g>
<!-- tools/loader/jsDelivr.js -->
<g id="node47" class="node">
<title>tools/loader/jsDelivr.js</title>
<path fill="none" stroke="#cfffac" d="M1535.33,-625C1535.33,-625 1395.67,-625 1395.67,-625 1391.83,-625 1388,-621.17 1388,-617.33 1388,-617.33 1388,-609.67 1388,-609.67 1388,-605.83 1391.83,-602 1395.67,-602 1395.67,-602 1535.33,-602 1535.33,-602 1539.17,-602 1543,-605.83 1543,-609.67 1543,-609.67 1543,-617.33 1543,-617.33 1543,-621.17 1539.17,-625 1535.33,-625"/>
<text text-anchor="middle" x="1465.5" y="-609.8" font-family="Arial" font-size="14.00" fill="#cfffac">tools/loader/jsDelivr.js</text>
</g>
<!-- tools/loader/loader.js&#45;&gt;tools/loader/jsDelivr.js -->
<g id="edge67" class="edge">
<title>tools/loader/loader.js&#45;&gt;tools/loader/jsDelivr.js</title>
<path fill="none" stroke="#757575" d="M1263.56,-583.49C1298.69,-588.73 1340.97,-595.05 1377.67,-600.53"/>
<polygon fill="#757575" stroke="#757575" points="1377.45,-604.04 1387.86,-602.05 1378.49,-597.11 1377.45,-604.04"/>
</g>
<!-- tools/loader/loaderFunction.js -->
<g id="node48" class="node">
<title>tools/loader/loaderFunction.js</title>
<path fill="none" stroke="#cfffac" d="M1559.33,-584C1559.33,-584 1371.67,-584 1371.67,-584 1367.83,-584 1364,-580.17 1364,-576.33 1364,-576.33 1364,-568.67 1364,-568.67 1364,-564.83 1367.83,-561 1371.67,-561 1371.67,-561 1559.33,-561 1559.33,-561 1563.17,-561 1567,-564.83 1567,-568.67 1567,-568.67 1567,-576.33 1567,-576.33 1567,-580.17 1563.17,-584 1559.33,-584"/>
<text text-anchor="middle" x="1465.5" y="-568.8" font-family="Arial" font-size="14.00" fill="#cfffac">tools/loader/loaderFunction.js</text>
</g>
<!-- tools/loader/loader.js&#45;&gt;tools/loader/loaderFunction.js -->
<g id="edge68" class="edge">
<title>tools/loader/loader.js&#45;&gt;tools/loader/loaderFunction.js</title>
<path fill="none" stroke="#757575" d="M1263.56,-572.5C1291.24,-572.5 1323.36,-572.5 1353.69,-572.5"/>
<polygon fill="#757575" stroke="#757575" points="1353.9,-576 1363.9,-572.5 1353.9,-569 1353.9,-576"/>
</g>
<!-- tools/loader/scriptStore.js -->
<g id="node49" class="node">
<title>tools/loader/scriptStore.js</title>
<path fill="none" stroke="#cfffac" d="M1546.83,-543C1546.83,-543 1384.17,-543 1384.17,-543 1380.33,-543 1376.5,-539.17 1376.5,-535.33 1376.5,-535.33 1376.5,-527.67 1376.5,-527.67 1376.5,-523.83 1380.33,-520 1384.17,-520 1384.17,-520 1546.83,-520 1546.83,-520 1550.67,-520 1554.5,-523.83 1554.5,-527.67 1554.5,-527.67 1554.5,-535.33 1554.5,-535.33 1554.5,-539.17 1550.67,-543 1546.83,-543"/>
<text text-anchor="middle" x="1465.5" y="-527.8" font-family="Arial" font-size="14.00" fill="#cfffac">tools/loader/scriptStore.js</text>
</g>
<!-- tools/loader/loader.js&#45;&gt;tools/loader/scriptStore.js -->
<g id="edge69" class="edge">
<title>tools/loader/loader.js&#45;&gt;tools/loader/scriptStore.js</title>
<path fill="none" stroke="#757575" d="M1263.56,-561.51C1298.54,-556.29 1340.62,-550 1377.21,-544.54"/>
<polygon fill="#757575" stroke="#757575" points="1378,-547.96 1387.38,-543.02 1376.97,-541.03 1378,-547.96"/>
</g>
<!-- plugins/JSzip/JSzip.js -->
<g id="node14" class="node">
<title>plugins/JSzip/JSzip.js</title>
<path fill="none" stroke="#c6c5fe" d="M963.83,-466C963.83,-466 825.17,-466 825.17,-466 821.33,-466 817.5,-462.17 817.5,-458.33 817.5,-458.33 817.5,-450.67 817.5,-450.67 817.5,-446.83 821.33,-443 825.17,-443 825.17,-443 963.83,-443 963.83,-443 967.67,-443 971.5,-446.83 971.5,-450.67 971.5,-450.67 971.5,-458.33 971.5,-458.33 971.5,-462.17 967.67,-466 963.83,-466"/>
<text text-anchor="middle" x="894.5" y="-450.8" font-family="Arial" font-size="14.00" fill="#c6c5fe">plugins/JSzip/JSzip.js</text>
</g>
<!-- plugins/JSzip/JSzip.js&#45;&gt;tools/loader/loader.js -->
<g id="edge13" class="edge">
<title>plugins/JSzip/JSzip.js&#45;&gt;tools/loader/loader.js</title>
<path fill="none" stroke="#757575" d="M924.08,-466.03C977.05,-487.4 1090.48,-533.16 1149.9,-557.13"/>
<polygon fill="#757575" stroke="#757575" points="1148.72,-560.43 1159.31,-560.92 1151.34,-553.94 1148.72,-560.43"/>
</g>
<!-- plugins/JSzip/zipper.js -->
<g id="node15" class="node">
<title>plugins/JSzip/zipper.js</title>
<path fill="none" stroke="#c6c5fe" d="M680.83,-426C680.83,-426 538.17,-426 538.17,-426 534.33,-426 530.5,-422.17 530.5,-418.33 530.5,-418.33 530.5,-410.67 530.5,-410.67 530.5,-406.83 534.33,-403 538.17,-403 538.17,-403 680.83,-403 680.83,-403 684.67,-403 688.5,-406.83 688.5,-410.67 688.5,-410.67 688.5,-418.33 688.5,-418.33 688.5,-422.17 684.67,-426 680.83,-426"/>
<text text-anchor="middle" x="609.5" y="-410.8" font-family="Arial" font-size="14.00" fill="#c6c5fe">plugins/JSzip/zipper.js</text>
</g>
<!-- plugins/JSzip/zipper.js&#45;&gt;plugins/JSzip/JSzip.js -->
<g id="edge14" class="edge">
<title>plugins/JSzip/zipper.js&#45;&gt;plugins/JSzip/JSzip.js</title>
<path fill="none" stroke="#757575" d="M688.58,-425.54C725.38,-430.74 769.38,-436.96 807.17,-442.3"/>
<polygon fill="#757575" stroke="#757575" points="806.75,-445.77 817.14,-443.71 807.73,-438.84 806.75,-445.77"/>
</g>
<!-- plugins/Request.js&#45;&gt;src/Pipeline/PluginSystem.js -->
<g id="edge15" class="edge">
<title>plugins/Request.js&#45;&gt;src/Pipeline/PluginSystem.js</title>
<path fill="none" stroke="#757575" d="M424.51,-264.06C455.71,-269.05 493.28,-275.06 526.31,-280.35"/>
<polygon fill="#757575" stroke="#757575" points="525.97,-283.84 536.4,-281.96 527.08,-276.93 525.97,-283.84"/>
</g>
<!-- src/utils/concurrent.js -->
<g id="node17" class="node">
<title>src/utils/concurrent.js</title>
<path fill="none" stroke="#c6c5fe" d="M676.33,-264C676.33,-264 542.67,-264 542.67,-264 538.83,-264 535,-260.17 535,-256.33 535,-256.33 535,-248.67 535,-248.67 535,-244.83 538.83,-241 542.67,-241 542.67,-241 676.33,-241 676.33,-241 680.17,-241 684,-244.83 684,-248.67 684,-248.67 684,-256.33 684,-256.33 684,-260.17 680.17,-264 676.33,-264"/>
<text text-anchor="middle" x="609.5" y="-248.8" font-family="Arial" font-size="14.00" fill="#c6c5fe">src/utils/concurrent.js</text>
</g>
<!-- plugins/Request.js&#45;&gt;src/utils/concurrent.js -->
<g id="edge16" class="edge">
<title>plugins/Request.js&#45;&gt;src/utils/concurrent.js</title>
<path fill="none" stroke="#757575" d="M424.51,-253.24C455.06,-253.11 491.7,-252.97 524.22,-252.84"/>
<polygon fill="#757575" stroke="#757575" points="524.63,-256.34 534.62,-252.8 524.6,-249.34 524.63,-256.34"/>
</g>
<!-- src/utils/retryAndDelay.js -->
<g id="node35" class="node">
<title>src/utils/retryAndDelay.js</title>
<path fill="none" stroke="#c6c5fe" d="M972.83,-346C972.83,-346 816.17,-346 816.17,-346 812.33,-346 808.5,-342.17 808.5,-338.33 808.5,-338.33 808.5,-330.67 808.5,-330.67 808.5,-326.83 812.33,-323 816.17,-323 816.17,-323 972.83,-323 972.83,-323 976.67,-323 980.5,-326.83 980.5,-330.67 980.5,-330.67 980.5,-338.33 980.5,-338.33 980.5,-342.17 976.67,-346 972.83,-346"/>
<text text-anchor="middle" x="894.5" y="-330.8" font-family="Arial" font-size="14.00" fill="#c6c5fe">src/utils/retryAndDelay.js</text>
</g>
<!-- src/utils/concurrent.js&#45;&gt;src/utils/retryAndDelay.js -->
<g id="edge50" class="edge">
<title>src/utils/concurrent.js&#45;&gt;src/utils/retryAndDelay.js</title>
<path fill="none" stroke="#757575" d="M684.06,-255.09C702.83,-258.08 722.38,-263.37 739,-272.5 760.25,-284.18 753.87,-301.6 775,-313.5 782.33,-317.63 790.28,-320.97 798.48,-323.69"/>
<polygon fill="#757575" stroke="#757575" points="797.62,-327.08 808.2,-326.59 799.62,-320.37 797.62,-327.08"/>
</g>
<!-- plugins/zipFile.js&#45;&gt;src/Pipeline/PluginSystem.js -->
<g id="edge24" class="edge">
<title>plugins/zipFile.js&#45;&gt;src/Pipeline/PluginSystem.js</title>
<path fill="none" stroke="#757575" d="M418.27,-364.7C427.25,-361.87 436.13,-358.21 444,-353.5 464.52,-341.22 458.97,-324.89 480,-313.5 486.84,-309.8 494.17,-306.73 501.73,-304.19"/>
<polygon fill="#757575" stroke="#757575" points="502.85,-307.51 511.4,-301.25 500.82,-300.81 502.85,-307.51"/>
</g>
<!-- plugins/zipFile.js&#45;&gt;plugins/utils/toFile.js -->
<g id="edge23" class="edge">
<title>plugins/zipFile.js&#45;&gt;plugins/utils/toFile.js</title>
<path fill="none" stroke="#757575" d="M418.06,-364.97C450.93,-359.71 492.21,-353.11 527.93,-347.39"/>
<polygon fill="#757575" stroke="#757575" points="528.52,-350.84 537.84,-345.81 527.42,-343.93 528.52,-350.84"/>
</g>
<!-- plugins/zipFile.js&#45;&gt;plugins/JSzip/JSzip.js -->
<g id="edge21" class="edge">
<title>plugins/zipFile.js&#45;&gt;plugins/JSzip/JSzip.js</title>
<path fill="none" stroke="#757575" d="M376.11,-386.11C398.97,-400.48 440.6,-424.29 480,-434.5 590.31,-463.08 722.6,-463.93 807.32,-460.44"/>
<polygon fill="#757575" stroke="#757575" points="807.58,-463.93 817.42,-459.99 807.27,-456.94 807.58,-463.93"/>
</g>
<!-- plugins/zipFile.js&#45;&gt;plugins/JSzip/zipper.js -->
<g id="edge22" class="edge">
<title>plugins/zipFile.js&#45;&gt;plugins/JSzip/zipper.js</title>
<path fill="none" stroke="#757575" d="M418.06,-384.03C450.4,-389.2 490.87,-395.68 526.18,-401.33"/>
<polygon fill="#757575" stroke="#757575" points="526.05,-404.85 536.47,-402.98 527.15,-397.94 526.05,-404.85"/>
</g>
<!-- plugins/zipFile.js&#45;&gt;src/TaskSystem/TaskGroup.js -->
<g id="edge25" class="edge">
<title>plugins/zipFile.js&#45;&gt;src/TaskSystem/TaskGroup.js</title>
<path fill="none" stroke="#757575" d="M418.08,-376.11C557.69,-379.33 902.62,-383.94 1014,-354.5 1071.68,-339.25 1131.61,-302.01 1163.9,-279.87"/>
<polygon fill="#757575" stroke="#757575" points="1166.04,-282.64 1172.25,-274.06 1162.04,-276.9 1166.04,-282.64"/>
</g>
<!-- src/TaskSystem/TaskGroup.js&#45;&gt;src/TaskSystem/Task.js -->
<g id="edge45" class="edge">
<title>src/TaskSystem/TaskGroup.js&#45;&gt;src/TaskSystem/Task.js</title>
<path fill="none" stroke="#757575" d="M1234.71,-250.93C1282.57,-238.56 1358.52,-218.91 1409.88,-205.63"/>
<polygon fill="#757575" stroke="#757575" points="1411,-208.95 1419.81,-203.06 1409.25,-202.18 1411,-208.95"/>
</g>
<!-- src/ControlPanel/ControlPanel.js -->
<g id="node20" class="node">
<title>src/ControlPanel/ControlPanel.js</title>
<path fill="none" stroke="#c6c5fe" d="M712.33,-142C712.33,-142 506.67,-142 506.67,-142 502.83,-142 499,-138.17 499,-134.33 499,-134.33 499,-126.67 499,-126.67 499,-122.83 502.83,-119 506.67,-119 506.67,-119 712.33,-119 712.33,-119 716.17,-119 720,-122.83 720,-126.67 720,-126.67 720,-134.33 720,-134.33 720,-138.17 716.17,-142 712.33,-142"/>
<text text-anchor="middle" x="609.5" y="-126.8" font-family="Arial" font-size="14.00" fill="#c6c5fe">src/ControlPanel/ControlPanel.js</text>
</g>
<!-- src/ControlPanel/StaticEvent.js -->
<g id="node21" class="node">
<title>src/ControlPanel/StaticEvent.js</title>
<path fill="none" stroke="#c6c5fe" d="M992.33,-141C992.33,-141 796.67,-141 796.67,-141 792.83,-141 789,-137.17 789,-133.33 789,-133.33 789,-125.67 789,-125.67 789,-121.83 792.83,-118 796.67,-118 796.67,-118 992.33,-118 992.33,-118 996.17,-118 1000,-121.83 1000,-125.67 1000,-125.67 1000,-133.33 1000,-133.33 1000,-137.17 996.17,-141 992.33,-141"/>
<text text-anchor="middle" x="894.5" y="-125.8" font-family="Arial" font-size="14.00" fill="#c6c5fe">src/ControlPanel/StaticEvent.js</text>
</g>
<!-- src/ControlPanel/ControlPanel.js&#45;&gt;src/ControlPanel/StaticEvent.js -->
<g id="edge26" class="edge">
<title>src/ControlPanel/ControlPanel.js&#45;&gt;src/ControlPanel/StaticEvent.js</title>
<path fill="none" stroke="#757575" d="M720.32,-130.11C739.5,-130.04 759.51,-129.97 778.82,-129.91"/>
<polygon fill="#757575" stroke="#757575" points="778.86,-133.41 788.85,-129.87 778.84,-126.41 778.86,-133.41"/>
</g>
<!-- src/Mirror/TaskManager.js -->
<g id="node22" class="node">
<title>src/Mirror/TaskManager.js</title>
<path fill="none" stroke="#c6c5fe" d="M976.33,-61C976.33,-61 812.67,-61 812.67,-61 808.83,-61 805,-57.17 805,-53.33 805,-53.33 805,-45.67 805,-45.67 805,-41.83 808.83,-38 812.67,-38 812.67,-38 976.33,-38 976.33,-38 980.17,-38 984,-41.83 984,-45.67 984,-45.67 984,-53.33 984,-53.33 984,-57.17 980.17,-61 976.33,-61"/>
<text text-anchor="middle" x="894.5" y="-45.8" font-family="Arial" font-size="14.00" fill="#c6c5fe">src/Mirror/TaskManager.js</text>
</g>
<!-- src/ControlPanel/ControlPanel.js&#45;&gt;src/Mirror/TaskManager.js -->
<g id="edge27" class="edge">
<title>src/ControlPanel/ControlPanel.js&#45;&gt;src/Mirror/TaskManager.js</title>
<path fill="none" stroke="#757575" d="M641.73,-118.95C674.59,-107.06 727.98,-88.48 775,-75.5 791.06,-71.07 808.5,-66.89 824.95,-63.24"/>
<polygon fill="#757575" stroke="#757575" points="826.01,-66.59 835.03,-61.03 824.52,-59.75 826.01,-66.59"/>
</g>
<!-- src/utils/EventHub.js -->
<g id="node23" class="node">
<title>src/utils/EventHub.js</title>
<path fill="none" stroke="#cfffac" d="M1767.33,-101C1767.33,-101 1638.67,-101 1638.67,-101 1634.83,-101 1631,-97.17 1631,-93.33 1631,-93.33 1631,-85.67 1631,-85.67 1631,-81.83 1634.83,-78 1638.67,-78 1638.67,-78 1767.33,-78 1767.33,-78 1771.17,-78 1775,-81.83 1775,-85.67 1775,-85.67 1775,-93.33 1775,-93.33 1775,-97.17 1771.17,-101 1767.33,-101"/>
<text text-anchor="middle" x="1703" y="-85.8" font-family="Arial" font-size="14.00" fill="#cfffac">src/utils/EventHub.js</text>
</g>
<!-- src/ControlPanel/ControlPanel.js&#45;&gt;src/utils/EventHub.js -->
<g id="edge28" class="edge">
<title>src/ControlPanel/ControlPanel.js&#45;&gt;src/utils/EventHub.js</title>
<path fill="none" stroke="#757575" d="M683.2,-118.99C711.74,-114.94 744.84,-110.82 775,-108.5 1086.74,-84.54 1459.08,-86 1620.6,-88.1"/>
<polygon fill="#757575" stroke="#757575" points="1620.88,-91.6 1630.93,-88.24 1620.97,-84.6 1620.88,-91.6"/>
</g>
<!-- src/utils/functionQueue.js -->
<g id="node24" class="node">
<title>src/utils/functionQueue.js</title>
<path fill="none" stroke="#cfffac" d="M974.33,-223C974.33,-223 814.67,-223 814.67,-223 810.83,-223 807,-219.17 807,-215.33 807,-215.33 807,-207.67 807,-207.67 807,-203.83 810.83,-200 814.67,-200 814.67,-200 974.33,-200 974.33,-200 978.17,-200 982,-203.83 982,-207.67 982,-207.67 982,-215.33 982,-215.33 982,-219.17 978.17,-223 974.33,-223"/>
<text text-anchor="middle" x="894.5" y="-207.8" font-family="Arial" font-size="14.00" fill="#cfffac">src/utils/functionQueue.js</text>
</g>
<!-- src/ControlPanel/ControlPanel.js&#45;&gt;src/utils/functionQueue.js -->
<g id="edge29" class="edge">
<title>src/ControlPanel/ControlPanel.js&#45;&gt;src/utils/functionQueue.js</title>
<path fill="none" stroke="#757575" d="M716.87,-142.05C724.57,-144.63 732.03,-147.75 739,-151.5 759.77,-162.68 754.3,-179.18 775,-190.5 781.9,-194.27 789.32,-197.39 796.98,-199.96"/>
<polygon fill="#757575" stroke="#757575" points="796.19,-203.38 806.77,-202.93 798.22,-196.68 796.19,-203.38"/>
</g>
<!-- src/utils/pauseToggle.js -->
<g id="node25" class="node">
<title>src/utils/pauseToggle.js</title>
<path fill="none" stroke="#cfffac" d="M970.33,-182C970.33,-182 818.67,-182 818.67,-182 814.83,-182 811,-178.17 811,-174.33 811,-174.33 811,-166.67 811,-166.67 811,-162.83 814.83,-159 818.67,-159 818.67,-159 970.33,-159 970.33,-159 974.17,-159 978,-162.83 978,-166.67 978,-166.67 978,-174.33 978,-174.33 978,-178.17 974.17,-182 970.33,-182"/>
<text text-anchor="middle" x="894.5" y="-166.8" font-family="Arial" font-size="14.00" fill="#cfffac">src/utils/pauseToggle.js</text>
</g>
<!-- src/ControlPanel/ControlPanel.js&#45;&gt;src/utils/pauseToggle.js -->
<g id="edge30" class="edge">
<title>src/ControlPanel/ControlPanel.js&#45;&gt;src/utils/pauseToggle.js</title>
<path fill="none" stroke="#757575" d="M691.98,-142.02C726.31,-146.87 766.42,-152.54 801.79,-157.54"/>
<polygon fill="#757575" stroke="#757575" points="801.72,-161.06 812.11,-159 802.7,-154.13 801.72,-161.06"/>
</g>
<!-- src/ControlPanel/StaticEvent.js&#45;&gt;src/TaskSystem/TaskGroup.js -->
<g id="edge31" class="edge">
<title>src/ControlPanel/StaticEvent.js&#45;&gt;src/TaskSystem/TaskGroup.js</title>
<path fill="none" stroke="#757575" d="M987.1,-141.07C996.33,-143.39 1005.45,-146.17 1014,-149.5 1073.82,-172.81 1134.69,-218.44 1166.15,-244.01"/>
<polygon fill="#757575" stroke="#757575" points="1164.27,-247 1174.22,-250.65 1168.72,-241.59 1164.27,-247"/>
</g>
<!-- src/Mirror/TaskManager.js&#45;&gt;src/Mirror/Mirror.js -->
<g id="edge34" class="edge">
<title>src/Mirror/TaskManager.js&#45;&gt;src/Mirror/Mirror.js</title>
<path fill="none" stroke="#757575" d="M984.05,-38C1025.51,-32.61 1074.33,-26.27 1113.81,-21.14"/>
<polygon fill="#757575" stroke="#757575" points="1114.43,-24.59 1123.89,-19.83 1113.53,-17.65 1114.43,-24.59"/>
</g>
<!-- src/Mirror/TaskManager.js&#45;&gt;src/TaskSystem/Task.js -->
<g id="edge35" class="edge">
<title>src/Mirror/TaskManager.js&#45;&gt;src/TaskSystem/Task.js</title>
<path fill="none" stroke="#757575" d="M941.58,-61C1045.21,-86.86 1296.31,-149.53 1408.61,-177.55"/>
<polygon fill="#757575" stroke="#757575" points="1407.84,-180.97 1418.39,-179.99 1409.53,-174.17 1407.84,-180.97"/>
</g>
<!-- src/ControlPanel/index.js&#45;&gt;src/ControlPanel/ControlPanel.js -->
<g id="edge32" class="edge">
<title>src/ControlPanel/index.js&#45;&gt;src/ControlPanel/ControlPanel.js</title>
<path fill="none" stroke="#757575" d="M444.19,-131.16C458.43,-131.1 473.43,-131.04 488.33,-130.98"/>
<polygon fill="#757575" stroke="#757575" points="488.64,-134.48 498.63,-130.94 488.61,-127.48 488.64,-134.48"/>
</g>
<!-- src/Mirror/Mirror.js&#45;&gt;src/utils/EventHub.js -->
<g id="edge33" class="edge">
<title>src/Mirror/Mirror.js&#45;&gt;src/utils/EventHub.js</title>
<path fill="none" stroke="#757575" d="M1254.07,-21.26C1347.03,-35.42 1519.29,-61.67 1620.96,-77.15"/>
<polygon fill="#757575" stroke="#757575" points="1620.46,-80.62 1630.88,-78.66 1621.52,-73.7 1620.46,-80.62"/>
</g>
<!-- src/TaskSystem/Task.js&#45;&gt;src/utils/EventHub.js -->
<g id="edge44" class="edge">
<title>src/TaskSystem/Task.js&#45;&gt;src/utils/EventHub.js</title>
<path fill="none" stroke="#757575" d="M1493.06,-180C1535.37,-161.67 1618.17,-125.81 1665.85,-105.16"/>
<polygon fill="#757575" stroke="#757575" points="1667.39,-108.3 1675.18,-101.12 1664.61,-101.88 1667.39,-108.3"/>
</g>
<!-- src/TaskSystem/TaskState.js -->
<g id="node32" class="node">
<title>src/TaskSystem/TaskState.js</title>
<path fill="none" stroke="#c6c5fe" d="M1795.33,-203C1795.33,-203 1610.67,-203 1610.67,-203 1606.83,-203 1603,-199.17 1603,-195.33 1603,-195.33 1603,-187.67 1603,-187.67 1603,-183.83 1606.83,-180 1610.67,-180 1610.67,-180 1795.33,-180 1795.33,-180 1799.17,-180 1803,-183.83 1803,-187.67 1803,-187.67 1803,-195.33 1803,-195.33 1803,-199.17 1799.17,-203 1795.33,-203"/>
<text text-anchor="middle" x="1703" y="-187.8" font-family="Arial" font-size="14.00" fill="#c6c5fe">src/TaskSystem/TaskState.js</text>
</g>
<!-- src/TaskSystem/Task.js&#45;&gt;src/TaskSystem/TaskState.js -->
<g id="edge43" class="edge">
<title>src/TaskSystem/Task.js&#45;&gt;src/TaskSystem/TaskState.js</title>
<path fill="none" stroke="#757575" d="M1549.2,-191.5C1563.3,-191.5 1578.15,-191.5 1592.82,-191.5"/>
<polygon fill="#757575" stroke="#757575" points="1592.93,-195 1602.93,-191.5 1592.93,-188 1592.93,-195"/>
</g>
<!-- src/Pipeline/index.js&#45;&gt;src/utils/functionQueue.js -->
<g id="edge39" class="edge">
<title>src/Pipeline/index.js&#45;&gt;src/utils/functionQueue.js</title>
<path fill="none" stroke="#757575" d="M681.18,-182.24C717.03,-187.18 761.04,-193.25 799.68,-198.57"/>
<polygon fill="#757575" stroke="#757575" points="799.51,-202.08 809.9,-199.98 800.47,-195.15 799.51,-202.08"/>
</g>
<!-- src/Pipeline/index.js&#45;&gt;src/utils/createUUID.js -->
<g id="edge38" class="edge">
<title>src/Pipeline/index.js&#45;&gt;src/utils/createUUID.js</title>
<path fill="none" stroke="#757575" d="M681.16,-179.72C700.62,-183.57 721.25,-189.47 739,-198.5 758.34,-208.35 755.54,-221.89 775,-231.5 784.68,-236.28 795.28,-239.99 806.04,-242.86"/>
<polygon fill="#757575" stroke="#757575" points="805.4,-246.3 815.94,-245.27 807.05,-239.5 805.4,-246.3"/>
</g>
<!-- src/TaskSystem/TaskProps.js -->
<g id="node33" class="node">
<title>src/TaskSystem/TaskProps.js</title>
<path fill="none" stroke="#cfffac" d="M2037.83,-224C2037.83,-224 1847.17,-224 1847.17,-224 1843.33,-224 1839.5,-220.17 1839.5,-216.33 1839.5,-216.33 1839.5,-208.67 1839.5,-208.67 1839.5,-204.83 1843.33,-201 1847.17,-201 1847.17,-201 2037.83,-201 2037.83,-201 2041.67,-201 2045.5,-204.83 2045.5,-208.67 2045.5,-208.67 2045.5,-216.33 2045.5,-216.33 2045.5,-220.17 2041.67,-224 2037.83,-224"/>
<text text-anchor="middle" x="1942.5" y="-208.8" font-family="Arial" font-size="14.00" fill="#cfffac">src/TaskSystem/TaskProps.js</text>
</g>
<!-- src/TaskSystem/TaskState.js&#45;&gt;src/TaskSystem/TaskProps.js -->
<g id="edge46" class="edge">
<title>src/TaskSystem/TaskState.js&#45;&gt;src/TaskSystem/TaskProps.js</title>
<path fill="none" stroke="#757575" d="M1803,-200.25C1811.6,-201.01 1820.34,-201.79 1829.04,-202.56"/>
<polygon fill="#757575" stroke="#757575" points="1828.95,-206.06 1839.22,-203.46 1829.56,-199.09 1828.95,-206.06"/>
</g>
<!-- src/TaskSystem/TaskTypes.js -->
<g id="node34" class="node">
<title>src/TaskSystem/TaskTypes.js</title>
<path fill="none" stroke="#cfffac" d="M2038.33,-183C2038.33,-183 1846.67,-183 1846.67,-183 1842.83,-183 1839,-179.17 1839,-175.33 1839,-175.33 1839,-167.67 1839,-167.67 1839,-163.83 1842.83,-160 1846.67,-160 1846.67,-160 2038.33,-160 2038.33,-160 2042.17,-160 2046,-163.83 2046,-167.67 2046,-167.67 2046,-175.33 2046,-175.33 2046,-179.17 2042.17,-183 2038.33,-183"/>
<text text-anchor="middle" x="1942.5" y="-167.8" font-family="Arial" font-size="14.00" fill="#cfffac">src/TaskSystem/TaskTypes.js</text>
</g>
<!-- src/TaskSystem/TaskState.js&#45;&gt;src/TaskSystem/TaskTypes.js -->
<g id="edge47" class="edge">
<title>src/TaskSystem/TaskState.js&#45;&gt;src/TaskSystem/TaskTypes.js</title>
<path fill="none" stroke="#757575" d="M1803,-183.16C1811.51,-182.45 1820.16,-181.72 1828.76,-180.99"/>
<polygon fill="#757575" stroke="#757575" points="1829.16,-184.47 1838.83,-180.15 1828.57,-177.5 1829.16,-184.47"/>
</g>
<!-- src/utils/retryAndDelay.js&#45;&gt;src/Errors/errors.js -->
<g id="edge51" class="edge">
<title>src/utils/retryAndDelay.js&#45;&gt;src/Errors/errors.js</title>
<path fill="none" stroke="#757575" d="M980.89,-345.89C1022.24,-351.4 1071.49,-357.97 1111.59,-363.31"/>
<polygon fill="#757575" stroke="#757575" points="1111.2,-366.79 1121.57,-364.64 1112.12,-359.85 1111.2,-366.79"/>
</g>
<!-- tools/Mock/Mock.js&#45;&gt;tools/loader/loader.js -->
<g id="edge53" class="edge">
<title>tools/Mock/Mock.js&#45;&gt;tools/loader/loader.js</title>
<path fill="none" stroke="#757575" d="M678.16,-624.59C784.12,-613.76 988.99,-592.83 1104.15,-581.07"/>
<polygon fill="#757575" stroke="#757575" points="1104.73,-584.53 1114.33,-580.03 1104.02,-577.56 1104.73,-584.53"/>
</g>
<!-- tools/Mock/Server/index.js -->
<g id="node38" class="node">
<title>tools/Mock/Server/index.js</title>
<path fill="none" stroke="#c6c5fe" d="M977.83,-662C977.83,-662 811.17,-662 811.17,-662 807.33,-662 803.5,-658.17 803.5,-654.33 803.5,-654.33 803.5,-646.67 803.5,-646.67 803.5,-642.83 807.33,-639 811.17,-639 811.17,-639 977.83,-639 977.83,-639 981.67,-639 985.5,-642.83 985.5,-646.67 985.5,-646.67 985.5,-654.33 985.5,-654.33 985.5,-658.17 981.67,-662 977.83,-662"/>
<text text-anchor="middle" x="894.5" y="-646.8" font-family="Arial" font-size="14.00" fill="#c6c5fe">tools/Mock/Server/index.js</text>
</g>
<!-- tools/Mock/Mock.js&#45;&gt;tools/Mock/Server/index.js -->
<g id="edge52" class="edge">
<title>tools/Mock/Mock.js&#45;&gt;tools/Mock/Server/index.js</title>
<path fill="none" stroke="#757575" d="M678.29,-636.05C712.66,-638.36 755.09,-641.21 793.16,-643.76"/>
<polygon fill="#757575" stroke="#757575" points="793.04,-647.26 803.25,-644.44 793.51,-640.28 793.04,-647.26"/>
</g>
<!-- tools/Mock/Server/excel.js -->
<g id="node39" class="node">
<title>tools/Mock/Server/excel.js</title>
<path fill="none" stroke="#cfffac" d="M1272.33,-662C1272.33,-662 1105.67,-662 1105.67,-662 1101.83,-662 1098,-658.17 1098,-654.33 1098,-654.33 1098,-646.67 1098,-646.67 1098,-642.83 1101.83,-639 1105.67,-639 1105.67,-639 1272.33,-639 1272.33,-639 1276.17,-639 1280,-642.83 1280,-646.67 1280,-646.67 1280,-654.33 1280,-654.33 1280,-658.17 1276.17,-662 1272.33,-662"/>
<text text-anchor="middle" x="1189" y="-646.8" font-family="Arial" font-size="14.00" fill="#cfffac">tools/Mock/Server/excel.js</text>
</g>
<!-- tools/Mock/Server/index.js&#45;&gt;tools/Mock/Server/excel.js -->
<g id="edge54" class="edge">
<title>tools/Mock/Server/index.js&#45;&gt;tools/Mock/Server/excel.js</title>
<path fill="none" stroke="#757575" d="M985.65,-650.5C1017.97,-650.5 1054.61,-650.5 1087.74,-650.5"/>
<polygon fill="#757575" stroke="#757575" points="1087.9,-654 1097.9,-650.5 1087.9,-647 1087.9,-654"/>
</g>
<!-- tools/analysis/Search/GlobalVars.js -->
<g id="node40" class="node">
<title>tools/analysis/Search/GlobalVars.js</title>
<path fill="none" stroke="#c6c5fe" d="M1006.33,-826C1006.33,-826 782.67,-826 782.67,-826 778.83,-826 775,-822.17 775,-818.33 775,-818.33 775,-810.67 775,-810.67 775,-806.83 778.83,-803 782.67,-803 782.67,-803 1006.33,-803 1006.33,-803 1010.17,-803 1014,-806.83 1014,-810.67 1014,-810.67 1014,-818.33 1014,-818.33 1014,-822.17 1010.17,-826 1006.33,-826"/>
<text text-anchor="middle" x="894.5" y="-810.8" font-family="Arial" font-size="14.00" fill="#c6c5fe">tools/analysis/Search/GlobalVars.js</text>
</g>
<!-- tools/analysis/Search/window&#45;default.json -->
<g id="node41" class="node">
<title>tools/analysis/Search/window&#45;default.json</title>
<path fill="none" stroke="#cfffac" d="M1320.33,-826C1320.33,-826 1057.67,-826 1057.67,-826 1053.83,-826 1050,-822.17 1050,-818.33 1050,-818.33 1050,-810.67 1050,-810.67 1050,-806.83 1053.83,-803 1057.67,-803 1057.67,-803 1320.33,-803 1320.33,-803 1324.17,-803 1328,-806.83 1328,-810.67 1328,-810.67 1328,-818.33 1328,-818.33 1328,-822.17 1324.17,-826 1320.33,-826"/>
<text text-anchor="middle" x="1189" y="-810.8" font-family="Arial" font-size="14.00" fill="#cfffac">tools/analysis/Search/window&#45;default.json</text>
</g>
<!-- tools/analysis/Search/GlobalVars.js&#45;&gt;tools/analysis/Search/window&#45;default.json -->
<g id="edge55" class="edge">
<title>tools/analysis/Search/GlobalVars.js&#45;&gt;tools/analysis/Search/window&#45;default.json</title>
<path fill="none" stroke="#757575" d="M1014.05,-814.5C1022.47,-814.5 1031.02,-814.5 1039.58,-814.5"/>
<polygon fill="#757575" stroke="#757575" points="1039.63,-818 1049.63,-814.5 1039.63,-811 1039.63,-818"/>
</g>
<!-- tools/analysis/Search/Search.js -->
<g id="node42" class="node">
<title>tools/analysis/Search/Search.js</title>
<path fill="none" stroke="#c6c5fe" d="M993.33,-785C993.33,-785 795.67,-785 795.67,-785 791.83,-785 788,-781.17 788,-777.33 788,-777.33 788,-769.67 788,-769.67 788,-765.83 791.83,-762 795.67,-762 795.67,-762 993.33,-762 993.33,-762 997.17,-762 1001,-765.83 1001,-769.67 1001,-769.67 1001,-777.33 1001,-777.33 1001,-781.17 997.17,-785 993.33,-785"/>
<text text-anchor="middle" x="894.5" y="-769.8" font-family="Arial" font-size="14.00" fill="#c6c5fe">tools/analysis/Search/Search.js</text>
</g>
<!-- tools/analysis/Search/searchObj.js -->
<g id="node43" class="node">
<title>tools/analysis/Search/searchObj.js</title>
<path fill="none" stroke="#c6c5fe" d="M1297.83,-755C1297.83,-755 1080.17,-755 1080.17,-755 1076.33,-755 1072.5,-751.17 1072.5,-747.33 1072.5,-747.33 1072.5,-739.67 1072.5,-739.67 1072.5,-735.83 1076.33,-732 1080.17,-732 1080.17,-732 1297.83,-732 1297.83,-732 1301.67,-732 1305.5,-735.83 1305.5,-739.67 1305.5,-739.67 1305.5,-747.33 1305.5,-747.33 1305.5,-751.17 1301.67,-755 1297.83,-755"/>
<text text-anchor="middle" x="1189" y="-739.8" font-family="Arial" font-size="14.00" fill="#c6c5fe">tools/analysis/Search/searchObj.js</text>
</g>
<!-- tools/analysis/Search/Search.js&#45;&gt;tools/analysis/Search/searchObj.js -->
<g id="edge56" class="edge">
<title>tools/analysis/Search/Search.js&#45;&gt;tools/analysis/Search/searchObj.js</title>
<path fill="none" stroke="#757575" d="M1001.1,-762.67C1022.01,-760.52 1044.12,-758.26 1065.53,-756.06"/>
<polygon fill="#757575" stroke="#757575" points="1066.05,-759.53 1075.64,-755.02 1065.34,-752.56 1066.05,-759.53"/>
</g>
<!-- tools/analysis/Search/searchObj.js&#45;&gt;src/utils/type.js -->
<g id="edge57" class="edge">
<title>tools/analysis/Search/searchObj.js&#45;&gt;src/utils/type.js</title>
<path fill="none" stroke="#757575" d="M1295.34,-731.99C1330.66,-728.13 1368.96,-723.94 1400.17,-720.53"/>
<polygon fill="#757575" stroke="#757575" points="1400.91,-723.97 1410.47,-719.4 1400.15,-717.01 1400.91,-723.97"/>
</g>
<!-- tools/analysis/antiDebugger.js -->
<g id="node44" class="node">
<title>tools/analysis/antiDebugger.js</title>
<path fill="none" stroke="#cfffac" d="M989.33,-744C989.33,-744 799.67,-744 799.67,-744 795.83,-744 792,-740.17 792,-736.33 792,-736.33 792,-728.67 792,-728.67 792,-724.83 795.83,-721 799.67,-721 799.67,-721 989.33,-721 989.33,-721 993.17,-721 997,-724.83 997,-728.67 997,-728.67 997,-736.33 997,-736.33 997,-740.17 993.17,-744 989.33,-744"/>
<text text-anchor="middle" x="894.5" y="-728.8" font-family="Arial" font-size="14.00" fill="#cfffac">tools/analysis/antiDebugger.js</text>
</g>
<!-- tools/analysis/copy.js -->
<g id="node45" class="node">
<title>tools/analysis/copy.js</title>
<path fill="none" stroke="#cfffac" d="M961.83,-703C961.83,-703 827.17,-703 827.17,-703 823.33,-703 819.5,-699.17 819.5,-695.33 819.5,-695.33 819.5,-687.67 819.5,-687.67 819.5,-683.83 823.33,-680 827.17,-680 827.17,-680 961.83,-680 961.83,-680 965.67,-680 969.5,-683.83 969.5,-687.67 969.5,-687.67 969.5,-695.33 969.5,-695.33 969.5,-699.17 965.67,-703 961.83,-703"/>
<text text-anchor="middle" x="894.5" y="-687.8" font-family="Arial" font-size="14.00" fill="#cfffac">tools/analysis/copy.js</text>
</g>
<!-- tools/analysis/index.js&#45;&gt;tools/analysis/Search/GlobalVars.js -->
<g id="edge58" class="edge">
<title>tools/analysis/index.js&#45;&gt;tools/analysis/Search/GlobalVars.js</title>
<path fill="none" stroke="#757575" d="M686.04,-712.07C704.58,-715.11 723.53,-720.93 739,-731.5 765.31,-749.48 748.88,-775.24 775,-793.5 777.57,-795.3 780.25,-796.96 783.01,-798.49"/>
<polygon fill="#757575" stroke="#757575" points="781.58,-801.68 792.09,-802.95 784.66,-795.4 781.58,-801.68"/>
</g>
<!-- tools/analysis/index.js&#45;&gt;tools/analysis/Search/Search.js -->
<g id="edge59" class="edge">
<title>tools/analysis/index.js&#45;&gt;tools/analysis/Search/Search.js</title>
<path fill="none" stroke="#757575" d="M686.07,-718.46C703.76,-721.39 722.3,-725.57 739,-731.5 756.46,-737.7 757.61,-746.12 775,-752.5 782.24,-755.16 789.86,-757.48 797.59,-759.52"/>
<polygon fill="#757575" stroke="#757575" points="796.88,-762.95 807.43,-761.95 798.56,-756.16 796.88,-762.95"/>
</g>
<!-- tools/analysis/index.js&#45;&gt;tools/analysis/antiDebugger.js -->
<g id="edge60" class="edge">
<title>tools/analysis/index.js&#45;&gt;tools/analysis/antiDebugger.js</title>
<path fill="none" stroke="#757575" d="M686.34,-717.13C715.59,-719.3 749.65,-721.83 781.61,-724.2"/>
<polygon fill="#757575" stroke="#757575" points="781.67,-727.71 791.9,-724.96 782.19,-720.73 781.67,-727.71"/>
</g>
<!-- tools/analysis/index.js&#45;&gt;tools/analysis/copy.js -->
<g id="edge61" class="edge">
<title>tools/analysis/index.js&#45;&gt;tools/analysis/copy.js</title>
<path fill="none" stroke="#757575" d="M686.34,-706.14C724.21,-703.46 770.15,-700.22 809.14,-697.46"/>
<polygon fill="#757575" stroke="#757575" points="809.68,-700.93 819.41,-696.74 809.19,-693.95 809.68,-700.93"/>
</g>
</g>
</svg>
